<?xml version="1.0" encoding="UTF-8"?>
<svg xmlns="http://www.w3.org/2000/svg" xmlns:xlink="http://www.w3.org/1999/xlink" width="3800" height="3800" viewBox="0 0 3800 3800">
<path fill-rule="nonzero" fill="rgb(79.6%, 23.5%, 20%)" fill-opacity="1" d="M 1710 2632.050781 C 1710 2665.1875 1683.136719 2692.050781 1650 2692.050781 C 1616.863281 2692.050781 1590 2665.1875 1590 2632.050781 C 1590 2598.914062 1616.863281 2572.050781 1650 2572.050781 C 1683.136719 2572.050781 1710 2598.914062 1710 2632.050781 Z M 1710 2632.050781 "/>
<path fill-rule="nonzero" fill="rgb(79.6%, 23.5%, 20%)" fill-opacity="1" d="M 1684.445312 2826.164062 C 1684.445312 2859.300781 1657.582031 2886.164062 1624.445312 2886.164062 C 1591.308594 2886.164062 1564.445312 2859.300781 1564.445312 2826.164062 C 1564.445312 2793.027344 1591.308594 2766.164062 1624.445312 2766.164062 C 1657.582031 2766.164062 1684.445312 2793.027344 1684.445312 2826.164062 Z M 1684.445312 2826.164062 "/>
<path fill-rule="nonzero" fill="rgb(79.6%, 23.5%, 20%)" fill-opacity="1" d="M 1609.519531 3007.050781 C 1609.519531 3040.1875 1582.65625 3067.050781 1549.519531 3067.050781 C 1516.382812 3067.050781 1489.519531 3040.1875 1489.519531 3007.050781 C 1489.519531 2973.914062 1516.382812 2947.050781 1549.519531 2947.050781 C 1582.65625 2947.050781 1609.519531 2973.914062 1609.519531 3007.050781 Z M 1609.519531 3007.050781 "/>
<path fill-rule="nonzero" fill="rgb(79.6%, 23.5%, 20%)" fill-opacity="1" d="M 1490.332031 3162.382812 C 1490.332031 3195.519531 1463.46875 3222.382812 1430.332031 3222.382812 C 1397.191406 3222.382812 1370.332031 3195.519531 1370.332031 3162.382812 C 1370.332031 3129.242188 1397.191406 3102.382812 1430.332031 3102.382812 C 1463.46875 3102.382812 1490.332031 3129.242188 1490.332031 3162.382812 Z M 1490.332031 3162.382812 "/>
<path fill-rule="nonzero" fill="rgb(79.6%, 23.5%, 20%)" fill-opacity="1" d="M 1335 3281.570312 C 1335 3314.707031 1308.136719 3341.570312 1275 3341.570312 C 1241.863281 3341.570312 1215 3314.707031 1215 3281.570312 C 1215 3248.433594 1241.863281 3221.570312 1275 3221.570312 C 1308.136719 3221.570312 1335 3248.433594 1335 3281.570312 Z M 1335 3281.570312 "/>
<path fill-rule="nonzero" fill="rgb(79.6%, 23.5%, 20%)" fill-opacity="1" d="M 1154.113281 3356.496094 C 1154.113281 3389.632812 1127.25 3416.496094 1094.113281 3416.496094 C 1060.976562 3416.496094 1034.113281 3389.632812 1034.113281 3356.496094 C 1034.113281 3323.359375 1060.976562 3296.496094 1094.113281 3296.496094 C 1127.25 3296.496094 1154.113281 3323.359375 1154.113281 3356.496094 Z M 1154.113281 3356.496094 "/>
<path fill-rule="nonzero" fill="rgb(79.6%, 23.5%, 20%)" fill-opacity="1" d="M 960 3382.050781 C 960 3415.1875 933.136719 3442.050781 900 3442.050781 C 866.863281 3442.050781 840 3415.1875 840 3382.050781 C 840 3348.914062 866.863281 3322.050781 900 3322.050781 C 933.136719 3322.050781 960 3348.914062 960 3382.050781 Z M 960 3382.050781 "/>
<path fill-rule="nonzero" fill="rgb(79.6%, 23.5%, 20%)" fill-opacity="1" d="M 765.886719 3356.496094 C 765.886719 3389.632812 739.023438 3416.496094 705.886719 3416.496094 C 672.75 3416.496094 645.886719 3389.632812 645.886719 3356.496094 C 645.886719 3323.359375 672.75 3296.496094 705.886719 3296.496094 C 739.023438 3296.496094 765.886719 3323.359375 765.886719 3356.496094 Z M 765.886719 3356.496094 "/>
<path fill-rule="nonzero" fill="rgb(79.6%, 23.5%, 20%)" fill-opacity="1" d="M 585 3281.570312 C 585 3314.707031 558.136719 3341.570312 525 3341.570312 C 491.863281 3341.570312 465 3314.707031 465 3281.570312 C 465 3248.433594 491.863281 3221.570312 525 3221.570312 C 558.136719 3221.570312 585 3248.433594 585 3281.570312 Z M 585 3281.570312 "/>
<path fill-rule="nonzero" fill="rgb(79.6%, 23.5%, 20%)" fill-opacity="1" d="M 429.667969 3162.382812 C 429.667969 3195.519531 402.808594 3222.382812 369.667969 3222.382812 C 336.53125 3222.382812 309.667969 3195.519531 309.667969 3162.382812 C 309.667969 3129.242188 336.53125 3102.382812 369.667969 3102.382812 C 402.808594 3102.382812 429.667969 3129.242188 429.667969 3162.382812 Z M 429.667969 3162.382812 "/>
<path fill-rule="nonzero" fill="rgb(79.6%, 23.5%, 20%)" fill-opacity="1" d="M 310.480469 3007.050781 C 310.480469 3040.1875 283.617188 3067.050781 250.480469 3067.050781 C 217.34375 3067.050781 190.480469 3040.1875 190.480469 3007.050781 C 190.480469 2973.914062 217.34375 2947.050781 250.480469 2947.050781 C 283.617188 2947.050781 310.480469 2973.914062 310.480469 3007.050781 Z M 310.480469 3007.050781 "/>
<path fill-rule="nonzero" fill="rgb(79.6%, 23.5%, 20%)" fill-opacity="1" d="M 235.554688 2826.164062 C 235.554688 2859.300781 208.691406 2886.164062 175.554688 2886.164062 C 142.417969 2886.164062 115.554688 2859.300781 115.554688 2826.164062 C 115.554688 2793.027344 142.417969 2766.164062 175.554688 2766.164062 C 208.691406 2766.164062 235.554688 2793.027344 235.554688 2826.164062 Z M 235.554688 2826.164062 "/>
<path fill-rule="nonzero" fill="rgb(79.6%, 23.5%, 20%)" fill-opacity="1" d="M 210 2632.050781 C 210 2665.1875 183.136719 2692.050781 150 2692.050781 C 116.863281 2692.050781 90 2665.1875 90 2632.050781 C 90 2598.914062 116.863281 2572.050781 150 2572.050781 C 183.136719 2572.050781 210 2598.914062 210 2632.050781 Z M 210 2632.050781 "/>
<path fill-rule="nonzero" fill="rgb(79.6%, 23.5%, 20%)" fill-opacity="1" d="M 235.554688 2437.9375 C 235.554688 2471.074219 208.691406 2497.9375 175.554688 2497.9375 C 142.417969 2497.9375 115.554688 2471.074219 115.554688 2437.9375 C 115.554688 2404.800781 142.417969 2377.9375 175.554688 2377.9375 C 208.691406 2377.9375 235.554688 2404.800781 235.554688 2437.9375 Z M 235.554688 2437.9375 "/>
<path fill-rule="nonzero" fill="rgb(79.6%, 23.5%, 20%)" fill-opacity="1" d="M 310.480469 2257.050781 C 310.480469 2290.1875 283.617188 2317.050781 250.480469 2317.050781 C 217.34375 2317.050781 190.480469 2290.1875 190.480469 2257.050781 C 190.480469 2223.914062 217.34375 2197.050781 250.480469 2197.050781 C 283.617188 2197.050781 310.480469 2223.914062 310.480469 2257.050781 Z M 310.480469 2257.050781 "/>
<path fill-rule="nonzero" fill="rgb(79.6%, 23.5%, 20%)" fill-opacity="1" d="M 429.667969 2101.722656 C 429.667969 2134.859375 402.808594 2161.722656 369.667969 2161.722656 C 336.53125 2161.722656 309.667969 2134.859375 309.667969 2101.722656 C 309.667969 2068.582031 336.53125 2041.722656 369.667969 2041.722656 C 402.808594 2041.722656 429.667969 2068.582031 429.667969 2101.722656 Z M 429.667969 2101.722656 "/>
<path fill-rule="nonzero" fill="rgb(79.6%, 23.5%, 20%)" fill-opacity="1" d="M 585 1982.53125 C 585 2015.667969 558.136719 2042.53125 525 2042.53125 C 491.863281 2042.53125 465 2015.667969 465 1982.53125 C 465 1949.394531 491.863281 1922.53125 525 1922.53125 C 558.136719 1922.53125 585 1949.394531 585 1982.53125 Z M 585 1982.53125 "/>
<path fill-rule="nonzero" fill="rgb(79.6%, 23.5%, 20%)" fill-opacity="1" d="M 765.886719 1907.605469 C 765.886719 1940.742188 739.023438 1967.605469 705.886719 1967.605469 C 672.75 1967.605469 645.886719 1940.742188 645.886719 1907.605469 C 645.886719 1874.46875 672.75 1847.605469 705.886719 1847.605469 C 739.023438 1847.605469 765.886719 1874.46875 765.886719 1907.605469 Z M 765.886719 1907.605469 "/>
<path fill-rule="nonzero" fill="rgb(79.6%, 23.5%, 20%)" fill-opacity="1" d="M 960 1882.050781 C 960 1915.1875 933.136719 1942.050781 900 1942.050781 C 866.863281 1942.050781 840 1915.1875 840 1882.050781 C 840 1848.914062 866.863281 1822.050781 900 1822.050781 C 933.136719 1822.050781 960 1848.914062 960 1882.050781 Z M 960 1882.050781 "/>
<path fill-rule="nonzero" fill="rgb(79.6%, 23.5%, 20%)" fill-opacity="1" d="M 1154.113281 1907.605469 C 1154.113281 1940.742188 1127.25 1967.605469 1094.113281 1967.605469 C 1060.976562 1967.605469 1034.113281 1940.742188 1034.113281 1907.605469 C 1034.113281 1874.46875 1060.976562 1847.605469 1094.113281 1847.605469 C 1127.25 1847.605469 1154.113281 1874.46875 1154.113281 1907.605469 Z M 1154.113281 1907.605469 "/>
<path fill-rule="nonzero" fill="rgb(79.6%, 23.5%, 20%)" fill-opacity="1" d="M 1335 1982.53125 C 1335 2015.667969 1308.136719 2042.53125 1275 2042.53125 C 1241.863281 2042.53125 1215 2015.667969 1215 1982.53125 C 1215 1949.394531 1241.863281 1922.53125 1275 1922.53125 C 1308.136719 1922.53125 1335 1949.394531 1335 1982.53125 Z M 1335 1982.53125 "/>
<path fill-rule="nonzero" fill="rgb(79.6%, 23.5%, 20%)" fill-opacity="1" d="M 1490.332031 2101.722656 C 1490.332031 2134.859375 1463.46875 2161.722656 1430.332031 2161.722656 C 1397.191406 2161.722656 1370.332031 2134.859375 1370.332031 2101.722656 C 1370.332031 2068.582031 1397.191406 2041.722656 1430.332031 2041.722656 C 1463.46875 2041.722656 1490.332031 2068.582031 1490.332031 2101.722656 Z M 1490.332031 2101.722656 "/>
<path fill-rule="nonzero" fill="rgb(79.6%, 23.5%, 20%)" fill-opacity="1" d="M 1609.519531 2257.050781 C 1609.519531 2290.1875 1582.65625 2317.050781 1549.519531 2317.050781 C 1516.382812 2317.050781 1489.519531 2290.1875 1489.519531 2257.050781 C 1489.519531 2223.914062 1516.382812 2197.050781 1549.519531 2197.050781 C 1582.65625 2197.050781 1609.519531 2223.914062 1609.519531 2257.050781 Z M 1609.519531 2257.050781 "/>
<path fill-rule="nonzero" fill="rgb(79.6%, 23.5%, 20%)" fill-opacity="1" d="M 1684.445312 2437.9375 C 1684.445312 2471.074219 1657.582031 2497.9375 1624.445312 2497.9375 C 1591.308594 2497.9375 1564.445312 2471.074219 1564.445312 2437.9375 C 1564.445312 2404.800781 1591.308594 2377.9375 1624.445312 2377.9375 C 1657.582031 2377.9375 1684.445312 2404.800781 1684.445312 2437.9375 Z M 1684.445312 2437.9375 "/>
<path fill-rule="nonzero" fill="rgb(79.6%, 23.5%, 20%)" fill-opacity="1" d="M 1095.273438 2040.597656 C 1095.273438 2073.734375 1068.414062 2100.597656 1035.273438 2100.597656 C 1002.136719 2100.597656 975.273438 2073.734375 975.273438 2040.597656 C 975.273438 2007.460938 1002.136719 1980.597656 1035.273438 1980.597656 C 1068.414062 1980.597656 1095.273438 2007.460938 1095.273438 2040.597656 Z M 1095.273438 2040.597656 "/>
<path fill-rule="nonzero" fill="rgb(79.6%, 23.5%, 20%)" fill-opacity="1" d="M 814.097656 2048.925781 C 814.097656 2082.066406 787.238281 2108.925781 754.097656 2108.925781 C 720.960938 2108.925781 694.097656 2082.066406 694.097656 2048.925781 C 694.097656 2015.789062 720.960938 1988.925781 754.097656 1988.925781 C 787.238281 1988.925781 814.097656 2015.789062 814.097656 2048.925781 Z M 814.097656 2048.925781 "/>
<path fill-rule="nonzero" fill="rgb(79.6%, 23.5%, 20%)" fill-opacity="1" d="M 1278.722656 2125.285156 C 1278.722656 2158.421875 1251.859375 2185.285156 1218.722656 2185.285156 C 1185.585938 2185.285156 1158.722656 2158.421875 1158.722656 2125.285156 C 1158.722656 2092.148438 1185.585938 2065.285156 1218.722656 2065.285156 C 1251.859375 2065.285156 1278.722656 2092.148438 1278.722656 2125.285156 Z M 1278.722656 2125.285156 "/>
<path fill-rule="nonzero" fill="rgb(79.6%, 23.5%, 20%)" fill-opacity="1" d="M 956.179688 2113.101562 C 956.179688 2146.238281 929.316406 2173.101562 896.179688 2173.101562 C 863.042969 2173.101562 836.179688 2146.238281 836.179688 2113.101562 C 836.179688 2079.964844 863.042969 2053.101562 896.179688 2053.101562 C 929.316406 2053.101562 956.179688 2079.964844 956.179688 2113.101562 Z M 956.179688 2113.101562 "/>
<path fill-rule="nonzero" fill="rgb(79.6%, 23.5%, 20%)" fill-opacity="1" d="M 645.894531 2145.300781 C 645.894531 2178.4375 619.03125 2205.300781 585.894531 2205.300781 C 552.757812 2205.300781 525.894531 2178.4375 525.894531 2145.300781 C 525.894531 2112.164062 552.757812 2085.300781 585.894531 2085.300781 C 619.03125 2085.300781 645.894531 2112.164062 645.894531 2145.300781 Z M 645.894531 2145.300781 "/>
<path fill-rule="nonzero" fill="rgb(79.6%, 23.5%, 20%)" fill-opacity="1" d="M 1140.371094 2215.863281 C 1140.371094 2249 1113.507812 2275.863281 1080.371094 2275.863281 C 1047.234375 2275.863281 1020.371094 2249 1020.371094 2215.863281 C 1020.371094 2182.726562 1047.234375 2155.863281 1080.371094 2155.863281 C 1113.507812 2155.863281 1140.371094 2182.726562 1140.371094 2215.863281 Z M 1140.371094 2215.863281 "/>
<path fill-rule="nonzero" fill="rgb(79.6%, 23.5%, 20%)" fill-opacity="1" d="M 809.644531 2239.367188 C 809.644531 2272.503906 782.78125 2299.367188 749.644531 2299.367188 C 716.507812 2299.367188 689.644531 2272.503906 689.644531 2239.367188 C 689.644531 2206.230469 716.507812 2179.367188 749.644531 2179.367188 C 782.78125 2179.367188 809.644531 2206.230469 809.644531 2239.367188 Z M 809.644531 2239.367188 "/>
<path fill-rule="nonzero" fill="rgb(79.6%, 23.5%, 20%)" fill-opacity="1" d="M 1375.300781 2265.089844 C 1375.300781 2298.226562 1348.4375 2325.089844 1315.300781 2325.089844 C 1282.164062 2325.089844 1255.300781 2298.226562 1255.300781 2265.089844 C 1255.300781 2231.953125 1282.164062 2205.089844 1315.300781 2205.089844 C 1348.4375 2205.089844 1375.300781 2231.953125 1375.300781 2265.089844 Z M 1375.300781 2265.089844 "/>
<path fill-rule="nonzero" fill="rgb(79.6%, 23.5%, 20%)" fill-opacity="1" d="M 515.792969 2255.644531 C 515.792969 2288.78125 488.929688 2315.644531 455.792969 2315.644531 C 422.65625 2315.644531 395.792969 2288.78125 395.792969 2255.644531 C 395.792969 2222.507812 422.65625 2195.644531 455.792969 2195.644531 C 488.929688 2195.644531 515.792969 2222.507812 515.792969 2255.644531 Z M 515.792969 2255.644531 "/>
<path fill-rule="nonzero" fill="rgb(79.6%, 23.5%, 20%)" fill-opacity="1" d="M 991.417969 2313.945312 C 991.417969 2347.082031 964.558594 2373.945312 931.417969 2373.945312 C 898.28125 2373.945312 871.417969 2347.082031 871.417969 2313.945312 C 871.417969 2280.808594 898.28125 2253.945312 931.417969 2253.945312 C 964.558594 2253.945312 991.417969 2280.808594 991.417969 2313.945312 Z M 991.417969 2313.945312 "/>
<path fill-rule="nonzero" fill="rgb(79.6%, 23.5%, 20%)" fill-opacity="1" d="M 399.308594 2394.175781 C 399.308594 2427.3125 372.445312 2454.175781 339.308594 2454.175781 C 306.171875 2454.175781 279.308594 2427.3125 279.308594 2394.175781 C 279.308594 2361.035156 306.171875 2334.175781 339.308594 2334.175781 C 372.445312 2334.175781 399.308594 2361.035156 399.308594 2394.175781 Z M 399.308594 2394.175781 "/>
<path fill-rule="nonzero" fill="rgb(79.6%, 23.5%, 20%)" fill-opacity="1" d="M 681.261719 2342.117188 C 681.261719 2375.253906 654.398438 2402.117188 621.261719 2402.117188 C 588.125 2402.117188 561.261719 2375.253906 561.261719 2342.117188 C 561.261719 2308.980469 588.125 2282.117188 621.261719 2282.117188 C 654.398438 2282.117188 681.261719 2308.980469 681.261719 2342.117188 Z M 681.261719 2342.117188 "/>
<path fill-rule="nonzero" fill="rgb(79.6%, 23.5%, 20%)" fill-opacity="1" d="M 1213.75 2367.710938 C 1213.75 2400.847656 1186.886719 2427.710938 1153.75 2427.710938 C 1120.613281 2427.710938 1093.75 2400.847656 1093.75 2367.710938 C 1093.75 2334.574219 1120.613281 2307.710938 1153.75 2307.710938 C 1186.886719 2307.710938 1213.75 2334.574219 1213.75 2367.710938 Z M 1213.75 2367.710938 "/>
<path fill-rule="nonzero" fill="rgb(79.6%, 23.5%, 20%)" fill-opacity="1" d="M 1506.125 2374.277344 C 1506.125 2407.414062 1479.265625 2434.277344 1446.125 2434.277344 C 1412.988281 2434.277344 1386.125 2407.414062 1386.125 2374.277344 C 1386.125 2341.136719 1412.988281 2314.277344 1446.125 2314.277344 C 1479.265625 2314.277344 1506.125 2341.136719 1506.125 2374.277344 Z M 1506.125 2374.277344 "/>
<path fill-rule="nonzero" fill="rgb(79.6%, 23.5%, 20%)" fill-opacity="1" d="M 854.3125 2427.523438 C 854.3125 2460.660156 827.449219 2487.523438 794.3125 2487.523438 C 761.175781 2487.523438 734.3125 2460.660156 734.3125 2427.523438 C 734.3125 2394.386719 761.175781 2367.523438 794.3125 2367.523438 C 827.449219 2367.523438 854.3125 2394.386719 854.3125 2427.523438 Z M 854.3125 2427.523438 "/>
<path fill-rule="nonzero" fill="rgb(79.6%, 23.5%, 20%)" fill-opacity="1" d="M 545.390625 2469.710938 C 545.390625 2502.847656 518.527344 2529.710938 485.390625 2529.710938 C 452.253906 2529.710938 425.390625 2502.847656 425.390625 2469.710938 C 425.390625 2436.570312 452.253906 2409.710938 485.390625 2409.710938 C 518.527344 2409.710938 545.390625 2436.570312 545.390625 2469.710938 Z M 545.390625 2469.710938 "/>
<path fill-rule="nonzero" fill="rgb(79.6%, 23.5%, 20%)" fill-opacity="1" d="M 1358.800781 2457.335938 C 1358.800781 2490.472656 1331.9375 2517.335938 1298.800781 2517.335938 C 1265.664062 2517.335938 1238.800781 2490.472656 1238.800781 2457.335938 C 1238.800781 2424.199219 1265.664062 2397.335938 1298.800781 2397.335938 C 1331.9375 2397.335938 1358.800781 2424.199219 1358.800781 2457.335938 Z M 1358.800781 2457.335938 "/>
<path fill-rule="nonzero" fill="rgb(79.6%, 23.5%, 20%)" fill-opacity="1" d="M 1053.914062 2480.988281 C 1053.914062 2514.125 1027.050781 2540.988281 993.914062 2540.988281 C 960.777344 2540.988281 933.914062 2514.125 933.914062 2480.988281 C 933.914062 2447.851562 960.777344 2420.988281 993.914062 2420.988281 C 1027.050781 2420.988281 1053.914062 2447.851562 1053.914062 2480.988281 Z M 1053.914062 2480.988281 "/>
<path fill-rule="nonzero" fill="rgb(79.6%, 23.5%, 20%)" fill-opacity="1" d="M 715.265625 2540.210938 C 715.265625 2573.351562 688.402344 2600.210938 655.265625 2600.210938 C 622.128906 2600.210938 595.265625 2573.351562 595.265625 2540.210938 C 595.265625 2507.074219 622.128906 2480.210938 655.265625 2480.210938 C 688.402344 2480.210938 715.265625 2507.074219 715.265625 2540.210938 Z M 715.265625 2540.210938 "/>
<path fill-rule="nonzero" fill="rgb(79.6%, 23.5%, 20%)" fill-opacity="1" d="M 1543.902344 2557.808594 C 1543.902344 2590.945312 1517.039062 2617.808594 1483.902344 2617.808594 C 1450.761719 2617.808594 1423.902344 2590.945312 1423.902344 2557.808594 C 1423.902344 2524.671875 1450.761719 2497.808594 1483.902344 2497.808594 C 1517.039062 2497.808594 1543.902344 2524.671875 1543.902344 2557.808594 Z M 1543.902344 2557.808594 "/>
<path fill-rule="nonzero" fill="rgb(79.6%, 23.5%, 20%)" fill-opacity="1" d="M 1209.046875 2559.09375 C 1209.046875 2592.230469 1182.183594 2619.09375 1149.046875 2619.09375 C 1115.910156 2619.09375 1089.046875 2592.230469 1089.046875 2559.09375 C 1089.046875 2525.957031 1115.910156 2499.09375 1149.046875 2499.09375 C 1182.183594 2499.09375 1209.046875 2525.957031 1209.046875 2559.09375 Z M 1209.046875 2559.09375 "/>
<path fill-rule="nonzero" fill="rgb(79.6%, 23.5%, 20%)" fill-opacity="1" d="M 384.179688 2574.660156 C 384.179688 2607.796875 357.316406 2634.660156 324.179688 2634.660156 C 291.042969 2634.660156 264.179688 2607.796875 264.179688 2574.660156 C 264.179688 2541.523438 291.042969 2514.660156 324.179688 2514.660156 C 357.316406 2514.660156 384.179688 2541.523438 384.179688 2574.660156 Z M 384.179688 2574.660156 "/>
<path fill-rule="nonzero" fill="rgb(79.6%, 23.5%, 20%)" fill-opacity="1" d="M 920.601562 2596.367188 C 920.601562 2629.503906 893.738281 2656.367188 860.601562 2656.367188 C 827.464844 2656.367188 800.601562 2629.503906 800.601562 2596.367188 C 800.601562 2563.230469 827.464844 2536.367188 860.601562 2536.367188 C 893.738281 2536.367188 920.601562 2563.230469 920.601562 2596.367188 Z M 920.601562 2596.367188 "/>
<path fill-rule="nonzero" fill="rgb(79.6%, 23.5%, 20%)" fill-opacity="1" d="M 1386.328125 2648.71875 C 1386.328125 2681.855469 1359.464844 2708.71875 1326.328125 2708.71875 C 1293.191406 2708.71875 1266.328125 2681.855469 1266.328125 2648.71875 C 1266.328125 2615.582031 1293.191406 2588.71875 1326.328125 2588.71875 C 1359.464844 2588.71875 1386.328125 2615.582031 1386.328125 2648.71875 Z M 1386.328125 2648.71875 "/>
<path fill-rule="nonzero" fill="rgb(79.6%, 23.5%, 20%)" fill-opacity="1" d="M 559.195312 2662.285156 C 559.195312 2695.421875 532.332031 2722.285156 499.195312 2722.285156 C 466.058594 2722.285156 439.195312 2695.421875 439.195312 2662.285156 C 439.195312 2629.148438 466.058594 2602.285156 499.195312 2602.285156 C 532.332031 2602.285156 559.195312 2629.148438 559.195312 2662.285156 Z M 559.195312 2662.285156 "/>
<path fill-rule="nonzero" fill="rgb(79.6%, 23.5%, 20%)" fill-opacity="1" d="M 773.703125 2702.847656 C 773.703125 2735.984375 746.839844 2762.847656 713.703125 2762.847656 C 680.566406 2762.847656 653.703125 2735.984375 653.703125 2702.847656 C 653.703125 2669.710938 680.566406 2642.847656 713.703125 2642.847656 C 746.839844 2642.847656 773.703125 2669.710938 773.703125 2702.847656 Z M 773.703125 2702.847656 "/>
<path fill-rule="nonzero" fill="rgb(79.6%, 23.5%, 20%)" fill-opacity="1" d="M 1072.804688 2673.695312 C 1072.804688 2706.832031 1045.941406 2733.695312 1012.804688 2733.695312 C 979.667969 2733.695312 952.804688 2706.832031 952.804688 2673.695312 C 952.804688 2640.554688 979.667969 2613.695312 1012.804688 2613.695312 C 1045.941406 2613.695312 1072.804688 2640.554688 1072.804688 2673.695312 Z M 1072.804688 2673.695312 "/>
<path fill-rule="nonzero" fill="rgb(79.6%, 23.5%, 20%)" fill-opacity="1" d="M 1547.269531 2719.078125 C 1547.269531 2752.214844 1520.40625 2779.078125 1487.269531 2779.078125 C 1454.132812 2779.078125 1427.269531 2752.214844 1427.269531 2719.078125 C 1427.269531 2685.941406 1454.132812 2659.078125 1487.269531 2659.078125 C 1520.40625 2659.078125 1547.269531 2685.941406 1547.269531 2719.078125 Z M 1547.269531 2719.078125 "/>
<path fill-rule="nonzero" fill="rgb(79.6%, 23.5%, 20%)" fill-opacity="1" d="M 382.148438 2746.144531 C 382.148438 2779.28125 355.289062 2806.144531 322.148438 2806.144531 C 289.011719 2806.144531 262.148438 2779.28125 262.148438 2746.144531 C 262.148438 2713.007812 289.011719 2686.144531 322.148438 2686.144531 C 355.289062 2686.144531 382.148438 2713.007812 382.148438 2746.144531 Z M 382.148438 2746.144531 "/>
<path fill-rule="nonzero" fill="rgb(79.6%, 23.5%, 20%)" fill-opacity="1" d="M 1232.9375 2762.609375 C 1232.9375 2795.746094 1206.074219 2822.609375 1172.9375 2822.609375 C 1139.800781 2822.609375 1112.9375 2795.746094 1112.9375 2762.609375 C 1112.9375 2729.472656 1139.800781 2702.609375 1172.9375 2702.609375 C 1206.074219 2702.609375 1232.9375 2729.472656 1232.9375 2762.609375 Z M 1232.9375 2762.609375 "/>
<path fill-rule="nonzero" fill="rgb(79.6%, 23.5%, 20%)" fill-opacity="1" d="M 935.402344 2788.679688 C 935.402344 2821.816406 908.539062 2848.679688 875.402344 2848.679688 C 842.265625 2848.679688 815.402344 2821.816406 815.402344 2788.679688 C 815.402344 2755.542969 842.265625 2728.679688 875.402344 2728.679688 C 908.539062 2728.679688 935.402344 2755.542969 935.402344 2788.679688 Z M 935.402344 2788.679688 "/>
<path fill-rule="nonzero" fill="rgb(79.6%, 23.5%, 20%)" fill-opacity="1" d="M 638.3125 2811.058594 C 638.3125 2844.195312 611.449219 2871.058594 578.3125 2871.058594 C 545.175781 2871.058594 518.3125 2844.195312 518.3125 2811.058594 C 518.3125 2777.921875 545.175781 2751.058594 578.3125 2751.058594 C 611.449219 2751.058594 638.3125 2777.921875 638.3125 2811.058594 Z M 638.3125 2811.058594 "/>
<path fill-rule="nonzero" fill="rgb(79.6%, 23.5%, 20%)" fill-opacity="1" d="M 1378.65625 2834.410156 C 1378.65625 2867.546875 1351.796875 2894.410156 1318.65625 2894.410156 C 1285.519531 2894.410156 1258.65625 2867.546875 1258.65625 2834.410156 C 1258.65625 2801.273438 1285.519531 2774.410156 1318.65625 2774.410156 C 1351.796875 2774.410156 1378.65625 2801.273438 1378.65625 2834.410156 Z M 1378.65625 2834.410156 "/>
<path fill-rule="nonzero" fill="rgb(79.6%, 23.5%, 20%)" fill-opacity="1" d="M 1096.449219 2883.339844 C 1096.449219 2916.476562 1069.585938 2943.339844 1036.449219 2943.339844 C 1003.3125 2943.339844 976.449219 2916.476562 976.449219 2883.339844 C 976.449219 2850.203125 1003.3125 2823.339844 1036.449219 2823.339844 C 1069.585938 2823.339844 1096.449219 2850.203125 1096.449219 2883.339844 Z M 1096.449219 2883.339844 "/>
<path fill-rule="nonzero" fill="rgb(79.6%, 23.5%, 20%)" fill-opacity="1" d="M 468.378906 2875.339844 C 468.378906 2908.476562 441.515625 2935.339844 408.378906 2935.339844 C 375.242188 2935.339844 348.378906 2908.476562 348.378906 2875.339844 C 348.378906 2842.203125 375.242188 2815.339844 408.378906 2815.339844 C 441.515625 2815.339844 468.378906 2842.203125 468.378906 2875.339844 Z M 468.378906 2875.339844 "/>
<path fill-rule="nonzero" fill="rgb(79.6%, 23.5%, 20%)" fill-opacity="1" d="M 803.355469 2894.867188 C 803.355469 2928.003906 776.492188 2954.867188 743.355469 2954.867188 C 710.21875 2954.867188 683.355469 2928.003906 683.355469 2894.867188 C 683.355469 2861.730469 710.21875 2834.867188 743.355469 2834.867188 C 776.492188 2834.867188 803.355469 2861.730469 803.355469 2894.867188 Z M 803.355469 2894.867188 "/>
<path fill-rule="nonzero" fill="rgb(79.6%, 23.5%, 20%)" fill-opacity="1" d="M 1246.917969 2957.710938 C 1246.917969 2990.847656 1220.054688 3017.710938 1186.917969 3017.710938 C 1153.78125 3017.710938 1126.917969 2990.847656 1126.917969 2957.710938 C 1126.917969 2924.574219 1153.78125 2897.710938 1186.917969 2897.710938 C 1220.054688 2897.710938 1246.917969 2924.574219 1246.917969 2957.710938 Z M 1246.917969 2957.710938 "/>
<path fill-rule="nonzero" fill="rgb(79.6%, 23.5%, 20%)" fill-opacity="1" d="M 1502.761719 2925.03125 C 1502.761719 2958.167969 1475.898438 2985.03125 1442.761719 2985.03125 C 1409.625 2985.03125 1382.761719 2958.167969 1382.761719 2925.03125 C 1382.761719 2891.894531 1409.625 2865.03125 1442.761719 2865.03125 C 1475.898438 2865.03125 1502.761719 2891.894531 1502.761719 2925.03125 Z M 1502.761719 2925.03125 "/>
<path fill-rule="nonzero" fill="rgb(79.6%, 23.5%, 20%)" fill-opacity="1" d="M 975.191406 3006.984375 C 975.191406 3040.121094 948.328125 3066.984375 915.191406 3066.984375 C 882.054688 3066.984375 855.191406 3040.121094 855.191406 3006.984375 C 855.191406 2973.847656 882.054688 2946.984375 915.191406 2946.984375 C 948.328125 2946.984375 975.191406 2973.847656 975.191406 3006.984375 Z M 975.191406 3006.984375 "/>
<path fill-rule="nonzero" fill="rgb(79.6%, 23.5%, 20%)" fill-opacity="1" d="M 652.050781 2984.714844 C 652.050781 3017.851562 625.1875 3044.714844 592.050781 3044.714844 C 558.914062 3044.714844 532.050781 3017.851562 532.050781 2984.714844 C 532.050781 2951.578125 558.914062 2924.714844 592.050781 2924.714844 C 625.1875 2924.714844 652.050781 2951.578125 652.050781 2984.714844 Z M 652.050781 2984.714844 "/>
<path fill-rule="nonzero" fill="rgb(79.6%, 23.5%, 20%)" fill-opacity="1" d="M 1373.902344 3062.78125 C 1373.902344 3095.921875 1347.039062 3122.78125 1313.902344 3122.78125 C 1280.765625 3122.78125 1253.902344 3095.921875 1253.902344 3062.78125 C 1253.902344 3029.644531 1280.765625 3002.78125 1313.902344 3002.78125 C 1347.039062 3002.78125 1373.902344 3029.644531 1373.902344 3062.78125 Z M 1373.902344 3062.78125 "/>
<path fill-rule="nonzero" fill="rgb(79.6%, 23.5%, 20%)" fill-opacity="1" d="M 499.429688 3039.078125 C 499.429688 3072.214844 472.566406 3099.078125 439.429688 3099.078125 C 406.292969 3099.078125 379.429688 3072.214844 379.429688 3039.078125 C 379.429688 3005.941406 406.292969 2979.078125 439.429688 2979.078125 C 472.566406 2979.078125 499.429688 3005.941406 499.429688 3039.078125 Z M 499.429688 3039.078125 "/>
<path fill-rule="nonzero" fill="rgb(79.6%, 23.5%, 20%)" fill-opacity="1" d="M 1114.246094 3060.238281 C 1114.246094 3093.375 1087.382812 3120.238281 1054.246094 3120.238281 C 1021.109375 3120.238281 994.246094 3093.375 994.246094 3060.238281 C 994.246094 3027.101562 1021.109375 3000.238281 1054.246094 3000.238281 C 1087.382812 3000.238281 1114.246094 3027.101562 1114.246094 3060.238281 Z M 1114.246094 3060.238281 "/>
<path fill-rule="nonzero" fill="rgb(79.6%, 23.5%, 20%)" fill-opacity="1" d="M 830.308594 3086.203125 C 830.308594 3119.339844 803.445312 3146.203125 770.308594 3146.203125 C 737.171875 3146.203125 710.308594 3119.339844 710.308594 3086.203125 C 710.308594 3053.066406 737.171875 3026.203125 770.308594 3026.203125 C 803.445312 3026.203125 830.308594 3053.066406 830.308594 3086.203125 Z M 830.308594 3086.203125 "/>
<path fill-rule="nonzero" fill="rgb(79.6%, 23.5%, 20%)" fill-opacity="1" d="M 679.433594 3166.847656 C 679.433594 3199.984375 652.570312 3226.847656 619.433594 3226.847656 C 586.296875 3226.847656 559.433594 3199.984375 559.433594 3166.847656 C 559.433594 3133.707031 586.296875 3106.847656 619.433594 3106.847656 C 652.570312 3106.847656 679.433594 3133.707031 679.433594 3166.847656 Z M 679.433594 3166.847656 "/>
<path fill-rule="nonzero" fill="rgb(79.6%, 23.5%, 20%)" fill-opacity="1" d="M 1014.980469 3211.035156 C 1014.980469 3244.171875 988.117188 3271.035156 954.980469 3271.035156 C 921.84375 3271.035156 894.980469 3244.171875 894.980469 3211.035156 C 894.980469 3177.898438 921.84375 3151.035156 954.980469 3151.035156 C 988.117188 3151.035156 1014.980469 3177.898438 1014.980469 3211.035156 Z M 1014.980469 3211.035156 "/>
<path fill-rule="nonzero" fill="rgb(79.6%, 23.5%, 20%)" fill-opacity="1" d="M 1249.882812 3168.574219 C 1249.882812 3201.710938 1223.019531 3228.574219 1189.882812 3228.574219 C 1156.746094 3228.574219 1129.882812 3201.710938 1129.882812 3168.574219 C 1129.882812 3135.4375 1156.746094 3108.574219 1189.882812 3108.574219 C 1223.019531 3108.574219 1249.882812 3135.4375 1249.882812 3168.574219 Z M 1249.882812 3168.574219 "/>
<path fill-rule="nonzero" fill="rgb(79.6%, 23.5%, 20%)" fill-opacity="1" d="M 872.21875 3231.65625 C 872.21875 3264.792969 845.355469 3291.65625 812.21875 3291.65625 C 779.082031 3291.65625 752.21875 3264.792969 752.21875 3231.65625 C 752.21875 3198.519531 779.082031 3171.65625 812.21875 3171.65625 C 845.355469 3171.65625 872.21875 3198.519531 872.21875 3231.65625 Z M 872.21875 3231.65625 "/>
<path fill-rule="nonzero" fill="rgb(22%, 59.6%, 14.9%)" fill-opacity="1" d="M 3710 2632.050781 C 3710 2665.1875 3683.136719 2692.050781 3650 2692.050781 C 3616.863281 2692.050781 3590 2665.1875 3590 2632.050781 C 3590 2598.914062 3616.863281 2572.050781 3650 2572.050781 C 3683.136719 2572.050781 3710 2598.914062 3710 2632.050781 Z M 3710 2632.050781 "/>
<path fill-rule="nonzero" fill="rgb(22%, 59.6%, 14.9%)" fill-opacity="1" d="M 3684.445312 2826.164062 C 3684.445312 2859.300781 3657.582031 2886.164062 3624.445312 2886.164062 C 3591.308594 2886.164062 3564.445312 2859.300781 3564.445312 2826.164062 C 3564.445312 2793.027344 3591.308594 2766.164062 3624.445312 2766.164062 C 3657.582031 2766.164062 3684.445312 2793.027344 3684.445312 2826.164062 Z M 3684.445312 2826.164062 "/>
<path fill-rule="nonzero" fill="rgb(22%, 59.6%, 14.9%)" fill-opacity="1" d="M 3609.519531 3007.050781 C 3609.519531 3040.1875 3582.65625 3067.050781 3549.519531 3067.050781 C 3516.382812 3067.050781 3489.519531 3040.1875 3489.519531 3007.050781 C 3489.519531 2973.914062 3516.382812 2947.050781 3549.519531 2947.050781 C 3582.65625 2947.050781 3609.519531 2973.914062 3609.519531 3007.050781 Z M 3609.519531 3007.050781 "/>
<path fill-rule="nonzero" fill="rgb(22%, 59.6%, 14.9%)" fill-opacity="1" d="M 3490.332031 3162.382812 C 3490.332031 3195.519531 3463.46875 3222.382812 3430.332031 3222.382812 C 3397.191406 3222.382812 3370.332031 3195.519531 3370.332031 3162.382812 C 3370.332031 3129.242188 3397.191406 3102.382812 3430.332031 3102.382812 C 3463.46875 3102.382812 3490.332031 3129.242188 3490.332031 3162.382812 Z M 3490.332031 3162.382812 "/>
<path fill-rule="nonzero" fill="rgb(22%, 59.6%, 14.9%)" fill-opacity="1" d="M 3335 3281.570312 C 3335 3314.707031 3308.136719 3341.570312 3275 3341.570312 C 3241.863281 3341.570312 3215 3314.707031 3215 3281.570312 C 3215 3248.433594 3241.863281 3221.570312 3275 3221.570312 C 3308.136719 3221.570312 3335 3248.433594 3335 3281.570312 Z M 3335 3281.570312 "/>
<path fill-rule="nonzero" fill="rgb(22%, 59.6%, 14.9%)" fill-opacity="1" d="M 3154.113281 3356.496094 C 3154.113281 3389.632812 3127.25 3416.496094 3094.113281 3416.496094 C 3060.976562 3416.496094 3034.113281 3389.632812 3034.113281 3356.496094 C 3034.113281 3323.359375 3060.976562 3296.496094 3094.113281 3296.496094 C 3127.25 3296.496094 3154.113281 3323.359375 3154.113281 3356.496094 Z M 3154.113281 3356.496094 "/>
<path fill-rule="nonzero" fill="rgb(22%, 59.6%, 14.9%)" fill-opacity="1" d="M 2960 3382.050781 C 2960 3415.1875 2933.136719 3442.050781 2900 3442.050781 C 2866.863281 3442.050781 2840 3415.1875 2840 3382.050781 C 2840 3348.914062 2866.863281 3322.050781 2900 3322.050781 C 2933.136719 3322.050781 2960 3348.914062 2960 3382.050781 Z M 2960 3382.050781 "/>
<path fill-rule="nonzero" fill="rgb(22%, 59.6%, 14.9%)" fill-opacity="1" d="M 2765.886719 3356.496094 C 2765.886719 3389.632812 2739.023438 3416.496094 2705.886719 3416.496094 C 2672.75 3416.496094 2645.886719 3389.632812 2645.886719 3356.496094 C 2645.886719 3323.359375 2672.75 3296.496094 2705.886719 3296.496094 C 2739.023438 3296.496094 2765.886719 3323.359375 2765.886719 3356.496094 Z M 2765.886719 3356.496094 "/>
<path fill-rule="nonzero" fill="rgb(22%, 59.6%, 14.9%)" fill-opacity="1" d="M 2585 3281.570312 C 2585 3314.707031 2558.136719 3341.570312 2525 3341.570312 C 2491.863281 3341.570312 2465 3314.707031 2465 3281.570312 C 2465 3248.433594 2491.863281 3221.570312 2525 3221.570312 C 2558.136719 3221.570312 2585 3248.433594 2585 3281.570312 Z M 2585 3281.570312 "/>
<path fill-rule="nonzero" fill="rgb(22%, 59.6%, 14.9%)" fill-opacity="1" d="M 2429.667969 3162.382812 C 2429.667969 3195.519531 2402.808594 3222.382812 2369.667969 3222.382812 C 2336.53125 3222.382812 2309.667969 3195.519531 2309.667969 3162.382812 C 2309.667969 3129.242188 2336.53125 3102.382812 2369.667969 3102.382812 C 2402.808594 3102.382812 2429.667969 3129.242188 2429.667969 3162.382812 Z M 2429.667969 3162.382812 "/>
<path fill-rule="nonzero" fill="rgb(22%, 59.6%, 14.9%)" fill-opacity="1" d="M 2310.480469 3007.050781 C 2310.480469 3040.1875 2283.617188 3067.050781 2250.480469 3067.050781 C 2217.34375 3067.050781 2190.480469 3040.1875 2190.480469 3007.050781 C 2190.480469 2973.914062 2217.34375 2947.050781 2250.480469 2947.050781 C 2283.617188 2947.050781 2310.480469 2973.914062 2310.480469 3007.050781 Z M 2310.480469 3007.050781 "/>
<path fill-rule="nonzero" fill="rgb(22%, 59.6%, 14.9%)" fill-opacity="1" d="M 2235.554688 2826.164062 C 2235.554688 2859.300781 2208.691406 2886.164062 2175.554688 2886.164062 C 2142.417969 2886.164062 2115.554688 2859.300781 2115.554688 2826.164062 C 2115.554688 2793.027344 2142.417969 2766.164062 2175.554688 2766.164062 C 2208.691406 2766.164062 2235.554688 2793.027344 2235.554688 2826.164062 Z M 2235.554688 2826.164062 "/>
<path fill-rule="nonzero" fill="rgb(22%, 59.6%, 14.9%)" fill-opacity="1" d="M 2210 2632.050781 C 2210 2665.1875 2183.136719 2692.050781 2150 2692.050781 C 2116.863281 2692.050781 2090 2665.1875 2090 2632.050781 C 2090 2598.914062 2116.863281 2572.050781 2150 2572.050781 C 2183.136719 2572.050781 2210 2598.914062 2210 2632.050781 Z M 2210 2632.050781 "/>
<path fill-rule="nonzero" fill="rgb(22%, 59.6%, 14.9%)" fill-opacity="1" d="M 2235.554688 2437.9375 C 2235.554688 2471.074219 2208.691406 2497.9375 2175.554688 2497.9375 C 2142.417969 2497.9375 2115.554688 2471.074219 2115.554688 2437.9375 C 2115.554688 2404.800781 2142.417969 2377.9375 2175.554688 2377.9375 C 2208.691406 2377.9375 2235.554688 2404.800781 2235.554688 2437.9375 Z M 2235.554688 2437.9375 "/>
<path fill-rule="nonzero" fill="rgb(22%, 59.6%, 14.9%)" fill-opacity="1" d="M 2310.480469 2257.050781 C 2310.480469 2290.1875 2283.617188 2317.050781 2250.480469 2317.050781 C 2217.34375 2317.050781 2190.480469 2290.1875 2190.480469 2257.050781 C 2190.480469 2223.914062 2217.34375 2197.050781 2250.480469 2197.050781 C 2283.617188 2197.050781 2310.480469 2223.914062 2310.480469 2257.050781 Z M 2310.480469 2257.050781 "/>
<path fill-rule="nonzero" fill="rgb(22%, 59.6%, 14.9%)" fill-opacity="1" d="M 2429.667969 2101.722656 C 2429.667969 2134.859375 2402.808594 2161.722656 2369.667969 2161.722656 C 2336.53125 2161.722656 2309.667969 2134.859375 2309.667969 2101.722656 C 2309.667969 2068.582031 2336.53125 2041.722656 2369.667969 2041.722656 C 2402.808594 2041.722656 2429.667969 2068.582031 2429.667969 2101.722656 Z M 2429.667969 2101.722656 "/>
<path fill-rule="nonzero" fill="rgb(22%, 59.6%, 14.9%)" fill-opacity="1" d="M 2585 1982.53125 C 2585 2015.667969 2558.136719 2042.53125 2525 2042.53125 C 2491.863281 2042.53125 2465 2015.667969 2465 1982.53125 C 2465 1949.394531 2491.863281 1922.53125 2525 1922.53125 C 2558.136719 1922.53125 2585 1949.394531 2585 1982.53125 Z M 2585 1982.53125 "/>
<path fill-rule="nonzero" fill="rgb(22%, 59.6%, 14.9%)" fill-opacity="1" d="M 2765.886719 1907.605469 C 2765.886719 1940.742188 2739.023438 1967.605469 2705.886719 1967.605469 C 2672.75 1967.605469 2645.886719 1940.742188 2645.886719 1907.605469 C 2645.886719 1874.46875 2672.75 1847.605469 2705.886719 1847.605469 C 2739.023438 1847.605469 2765.886719 1874.46875 2765.886719 1907.605469 Z M 2765.886719 1907.605469 "/>
<path fill-rule="nonzero" fill="rgb(22%, 59.6%, 14.9%)" fill-opacity="1" d="M 2960 1882.050781 C 2960 1915.1875 2933.136719 1942.050781 2900 1942.050781 C 2866.863281 1942.050781 2840 1915.1875 2840 1882.050781 C 2840 1848.914062 2866.863281 1822.050781 2900 1822.050781 C 2933.136719 1822.050781 2960 1848.914062 2960 1882.050781 Z M 2960 1882.050781 "/>
<path fill-rule="nonzero" fill="rgb(22%, 59.6%, 14.9%)" fill-opacity="1" d="M 3154.113281 1907.605469 C 3154.113281 1940.742188 3127.25 1967.605469 3094.113281 1967.605469 C 3060.976562 1967.605469 3034.113281 1940.742188 3034.113281 1907.605469 C 3034.113281 1874.46875 3060.976562 1847.605469 3094.113281 1847.605469 C 3127.25 1847.605469 3154.113281 1874.46875 3154.113281 1907.605469 Z M 3154.113281 1907.605469 "/>
<path fill-rule="nonzero" fill="rgb(22%, 59.6%, 14.9%)" fill-opacity="1" d="M 3335 1982.53125 C 3335 2015.667969 3308.136719 2042.53125 3275 2042.53125 C 3241.863281 2042.53125 3215 2015.667969 3215 1982.53125 C 3215 1949.394531 3241.863281 1922.53125 3275 1922.53125 C 3308.136719 1922.53125 3335 1949.394531 3335 1982.53125 Z M 3335 1982.53125 "/>
<path fill-rule="nonzero" fill="rgb(22%, 59.6%, 14.9%)" fill-opacity="1" d="M 3490.332031 2101.722656 C 3490.332031 2134.859375 3463.46875 2161.722656 3430.332031 2161.722656 C 3397.191406 2161.722656 3370.332031 2134.859375 3370.332031 2101.722656 C 3370.332031 2068.582031 3397.191406 2041.722656 3430.332031 2041.722656 C 3463.46875 2041.722656 3490.332031 2068.582031 3490.332031 2101.722656 Z M 3490.332031 2101.722656 "/>
<path fill-rule="nonzero" fill="rgb(22%, 59.6%, 14.9%)" fill-opacity="1" d="M 3609.519531 2257.050781 C 3609.519531 2290.1875 3582.65625 2317.050781 3549.519531 2317.050781 C 3516.382812 2317.050781 3489.519531 2290.1875 3489.519531 2257.050781 C 3489.519531 2223.914062 3516.382812 2197.050781 3549.519531 2197.050781 C 3582.65625 2197.050781 3609.519531 2223.914062 3609.519531 2257.050781 Z M 3609.519531 2257.050781 "/>
<path fill-rule="nonzero" fill="rgb(22%, 59.6%, 14.9%)" fill-opacity="1" d="M 3684.445312 2437.9375 C 3684.445312 2471.074219 3657.582031 2497.9375 3624.445312 2497.9375 C 3591.308594 2497.9375 3564.445312 2471.074219 3564.445312 2437.9375 C 3564.445312 2404.800781 3591.308594 2377.9375 3624.445312 2377.9375 C 3657.582031 2377.9375 3684.445312 2404.800781 3684.445312 2437.9375 Z M 3684.445312 2437.9375 "/>
<path fill-rule="nonzero" fill="rgb(22%, 59.6%, 14.9%)" fill-opacity="1" d="M 3014.265625 2023.042969 C 3014.265625 2056.183594 2987.402344 2083.042969 2954.265625 2083.042969 C 2921.128906 2083.042969 2894.265625 2056.183594 2894.265625 2023.042969 C 2894.265625 1989.90625 2921.128906 1963.042969 2954.265625 1963.042969 C 2987.402344 1963.042969 3014.265625 1989.90625 3014.265625 2023.042969 Z M 3014.265625 2023.042969 "/>
<path fill-rule="nonzero" fill="rgb(22%, 59.6%, 14.9%)" fill-opacity="1" d="M 2718.175781 2053.390625 C 2718.175781 2086.527344 2691.3125 2113.390625 2658.175781 2113.390625 C 2625.039062 2113.390625 2598.175781 2086.527344 2598.175781 2053.390625 C 2598.175781 2020.253906 2625.039062 1993.390625 2658.175781 1993.390625 C 2691.3125 1993.390625 2718.175781 2020.253906 2718.175781 2053.390625 Z M 2718.175781 2053.390625 "/>
<path fill-rule="nonzero" fill="rgb(22%, 59.6%, 14.9%)" fill-opacity="1" d="M 3254.820312 2100.199219 C 3254.820312 2133.335938 3227.957031 2160.199219 3194.820312 2160.199219 C 3161.683594 2160.199219 3134.820312 2133.335938 3134.820312 2100.199219 C 3134.820312 2067.0625 3161.683594 2040.199219 3194.820312 2040.199219 C 3227.957031 2040.199219 3254.820312 2067.0625 3254.820312 2100.199219 Z M 3254.820312 2100.199219 "/>
<path fill-rule="nonzero" fill="rgb(22%, 59.6%, 14.9%)" fill-opacity="1" d="M 2869.398438 2116.539062 C 2869.398438 2149.675781 2842.535156 2176.539062 2809.398438 2176.539062 C 2776.261719 2176.539062 2749.398438 2149.675781 2749.398438 2116.539062 C 2749.398438 2083.402344 2776.261719 2056.539062 2809.398438 2056.539062 C 2842.535156 2056.539062 2869.398438 2083.402344 2869.398438 2116.539062 Z M 2869.398438 2116.539062 "/>
<path fill-rule="nonzero" fill="rgb(22%, 59.6%, 14.9%)" fill-opacity="1" d="M 3102.449219 2153.675781 C 3102.449219 2186.8125 3075.585938 2213.675781 3042.449219 2213.675781 C 3009.3125 2213.675781 2982.449219 2186.8125 2982.449219 2153.675781 C 2982.449219 2120.539062 3009.3125 2093.675781 3042.449219 2093.675781 C 3075.585938 2093.675781 3102.449219 2120.539062 3102.449219 2153.675781 Z M 3102.449219 2153.675781 "/>
<path fill-rule="nonzero" fill="rgb(22%, 59.6%, 14.9%)" fill-opacity="1" d="M 2571.917969 2159.984375 C 2571.917969 2193.121094 2545.054688 2219.984375 2511.917969 2219.984375 C 2478.777344 2219.984375 2451.917969 2193.121094 2451.917969 2159.984375 C 2451.917969 2126.847656 2478.777344 2099.984375 2511.917969 2099.984375 C 2545.054688 2099.984375 2571.917969 2126.847656 2571.917969 2159.984375 Z M 2571.917969 2159.984375 "/>
<path fill-rule="nonzero" fill="rgb(22%, 59.6%, 14.9%)" fill-opacity="1" d="M 3401.125 2227.761719 C 3401.125 2260.898438 3374.261719 2287.761719 3341.125 2287.761719 C 3307.984375 2287.761719 3281.125 2260.898438 3281.125 2227.761719 C 3281.125 2194.625 3307.984375 2167.761719 3341.125 2167.761719 C 3374.261719 2167.761719 3401.125 2194.625 3401.125 2227.761719 Z M 3401.125 2227.761719 "/>
<path fill-rule="nonzero" fill="rgb(22%, 59.6%, 14.9%)" fill-opacity="1" d="M 2732.300781 2227.042969 C 2732.300781 2260.183594 2705.4375 2287.042969 2672.300781 2287.042969 C 2639.164062 2287.042969 2612.300781 2260.183594 2612.300781 2227.042969 C 2612.300781 2193.90625 2639.164062 2167.042969 2672.300781 2167.042969 C 2705.4375 2167.042969 2732.300781 2193.90625 2732.300781 2227.042969 Z M 2732.300781 2227.042969 "/>
<path fill-rule="nonzero" fill="rgb(22%, 59.6%, 14.9%)" fill-opacity="1" d="M 2960.027344 2251.921875 C 2960.027344 2285.058594 2933.164062 2311.921875 2900.027344 2311.921875 C 2866.890625 2311.921875 2840.027344 2285.058594 2840.027344 2251.921875 C 2840.027344 2218.785156 2866.890625 2191.921875 2900.027344 2191.921875 C 2933.164062 2191.921875 2960.027344 2218.785156 2960.027344 2251.921875 Z M 2960.027344 2251.921875 "/>
<path fill-rule="nonzero" fill="rgb(22%, 59.6%, 14.9%)" fill-opacity="1" d="M 3235.957031 2290.390625 C 3235.957031 2323.53125 3209.09375 2350.390625 3175.957031 2350.390625 C 3142.820312 2350.390625 3115.957031 2323.53125 3115.957031 2290.390625 C 3115.957031 2257.253906 3142.820312 2230.390625 3175.957031 2230.390625 C 3209.09375 2230.390625 3235.957031 2257.253906 3235.957031 2290.390625 Z M 3235.957031 2290.390625 "/>
<path fill-rule="nonzero" fill="rgb(22%, 59.6%, 14.9%)" fill-opacity="1" d="M 2450.71875 2285.824219 C 2450.71875 2318.960938 2423.855469 2345.824219 2390.71875 2345.824219 C 2357.582031 2345.824219 2330.71875 2318.960938 2330.71875 2285.824219 C 2330.71875 2252.6875 2357.582031 2225.824219 2390.71875 2225.824219 C 2423.855469 2225.824219 2450.71875 2252.6875 2450.71875 2285.824219 Z M 2450.71875 2285.824219 "/>
<path fill-rule="nonzero" fill="rgb(22%, 59.6%, 14.9%)" fill-opacity="1" d="M 3516.910156 2368.363281 C 3516.910156 2401.5 3490.046875 2428.363281 3456.910156 2428.363281 C 3423.773438 2428.363281 3396.910156 2401.5 3396.910156 2368.363281 C 3396.910156 2335.226562 3423.773438 2308.363281 3456.910156 2308.363281 C 3490.046875 2308.363281 3516.910156 2335.226562 3516.910156 2368.363281 Z M 3516.910156 2368.363281 "/>
<path fill-rule="nonzero" fill="rgb(22%, 59.6%, 14.9%)" fill-opacity="1" d="M 2602.191406 2357.277344 C 2602.191406 2390.417969 2575.328125 2417.277344 2542.191406 2417.277344 C 2509.054688 2417.277344 2482.191406 2390.417969 2482.191406 2357.277344 C 2482.191406 2324.140625 2509.054688 2297.277344 2542.191406 2297.277344 C 2575.328125 2297.277344 2602.191406 2324.140625 2602.191406 2357.277344 Z M 2602.191406 2357.277344 "/>
<path fill-rule="nonzero" fill="rgb(22%, 59.6%, 14.9%)" fill-opacity="1" d="M 2830.839844 2354.039062 C 2830.839844 2387.175781 2803.976562 2414.039062 2770.839844 2414.039062 C 2737.703125 2414.039062 2710.839844 2387.175781 2710.839844 2354.039062 C 2710.839844 2320.902344 2737.703125 2294.039062 2770.839844 2294.039062 C 2803.976562 2294.039062 2830.839844 2320.902344 2830.839844 2354.039062 Z M 2830.839844 2354.039062 "/>
<path fill-rule="nonzero" fill="rgb(22%, 59.6%, 14.9%)" fill-opacity="1" d="M 3092.378906 2376.621094 C 3092.378906 2409.757812 3065.519531 2436.621094 3032.378906 2436.621094 C 2999.242188 2436.621094 2972.378906 2409.757812 2972.378906 2376.621094 C 2972.378906 2343.484375 2999.242188 2316.621094 3032.378906 2316.621094 C 3065.519531 2316.621094 3092.378906 2343.484375 3092.378906 2376.621094 Z M 3092.378906 2376.621094 "/>
<path fill-rule="nonzero" fill="rgb(22%, 59.6%, 14.9%)" fill-opacity="1" d="M 3360.097656 2412.96875 C 3360.097656 2446.105469 3333.234375 2472.96875 3300.097656 2472.96875 C 3266.960938 2472.96875 3240.097656 2446.105469 3240.097656 2412.96875 C 3240.097656 2379.832031 3266.960938 2352.96875 3300.097656 2352.96875 C 3333.234375 2352.96875 3360.097656 2379.832031 3360.097656 2412.96875 Z M 3360.097656 2412.96875 "/>
<path fill-rule="nonzero" fill="rgb(22%, 59.6%, 14.9%)" fill-opacity="1" d="M 2461.359375 2448.925781 C 2461.359375 2482.0625 2434.496094 2508.925781 2401.359375 2508.925781 C 2368.21875 2508.925781 2341.359375 2482.0625 2341.359375 2448.925781 C 2341.359375 2415.789062 2368.21875 2388.925781 2401.359375 2388.925781 C 2434.496094 2388.925781 2461.359375 2415.789062 2461.359375 2448.925781 Z M 2461.359375 2448.925781 "/>
<path fill-rule="nonzero" fill="rgb(22%, 59.6%, 14.9%)" fill-opacity="1" d="M 2952.859375 2471.285156 C 2952.859375 2504.421875 2925.996094 2531.285156 2892.859375 2531.285156 C 2859.722656 2531.285156 2832.859375 2504.421875 2832.859375 2471.285156 C 2832.859375 2438.148438 2859.722656 2411.285156 2892.859375 2411.285156 C 2925.996094 2411.285156 2952.859375 2438.148438 2952.859375 2471.285156 Z M 2952.859375 2471.285156 "/>
<path fill-rule="nonzero" fill="rgb(22%, 59.6%, 14.9%)" fill-opacity="1" d="M 2699.160156 2486.671875 C 2699.160156 2519.808594 2672.296875 2546.671875 2639.160156 2546.671875 C 2606.023438 2546.671875 2579.160156 2519.808594 2579.160156 2486.671875 C 2579.160156 2453.535156 2606.023438 2426.671875 2639.160156 2426.671875 C 2672.296875 2426.671875 2699.160156 2453.535156 2699.160156 2486.671875 Z M 2699.160156 2486.671875 "/>
<path fill-rule="nonzero" fill="rgb(22%, 59.6%, 14.9%)" fill-opacity="1" d="M 3212.078125 2494.9375 C 3212.078125 2528.074219 3185.214844 2554.9375 3152.078125 2554.9375 C 3118.941406 2554.9375 3092.078125 2528.074219 3092.078125 2494.9375 C 3092.078125 2461.800781 3118.941406 2434.9375 3152.078125 2434.9375 C 3185.214844 2434.9375 3212.078125 2461.800781 3212.078125 2494.9375 Z M 3212.078125 2494.9375 "/>
<path fill-rule="nonzero" fill="rgb(22%, 59.6%, 14.9%)" fill-opacity="1" d="M 3537.460938 2534.328125 C 3537.460938 2567.464844 3510.597656 2594.328125 3477.460938 2594.328125 C 3444.324219 2594.328125 3417.460938 2567.464844 3417.460938 2534.328125 C 3417.460938 2501.191406 3444.324219 2474.328125 3477.460938 2474.328125 C 3510.597656 2474.328125 3537.460938 2501.191406 3537.460938 2534.328125 Z M 3537.460938 2534.328125 "/>
<path fill-rule="nonzero" fill="rgb(22%, 59.6%, 14.9%)" fill-opacity="1" d="M 2337.710938 2556.144531 C 2337.710938 2589.28125 2310.847656 2616.144531 2277.710938 2616.144531 C 2244.574219 2616.144531 2217.710938 2589.28125 2217.710938 2556.144531 C 2217.710938 2523.007812 2244.574219 2496.144531 2277.710938 2496.144531 C 2310.847656 2496.144531 2337.710938 2523.007812 2337.710938 2556.144531 Z M 2337.710938 2556.144531 "/>
<path fill-rule="nonzero" fill="rgb(22%, 59.6%, 14.9%)" fill-opacity="1" d="M 2563.414062 2579.230469 C 2563.414062 2612.367188 2536.550781 2639.230469 2503.414062 2639.230469 C 2470.277344 2639.230469 2443.414062 2612.367188 2443.414062 2579.230469 C 2443.414062 2546.09375 2470.277344 2519.230469 2503.414062 2519.230469 C 2536.550781 2519.230469 2563.414062 2546.09375 2563.414062 2579.230469 Z M 2563.414062 2579.230469 "/>
<path fill-rule="nonzero" fill="rgb(22%, 59.6%, 14.9%)" fill-opacity="1" d="M 3073.730469 2590.257812 C 3073.730469 2623.394531 3046.867188 2650.257812 3013.730469 2650.257812 C 2980.59375 2650.257812 2953.730469 2623.394531 2953.730469 2590.257812 C 2953.730469 2557.121094 2980.59375 2530.257812 3013.730469 2530.257812 C 3046.867188 2530.257812 3073.730469 2557.121094 3073.730469 2590.257812 Z M 3073.730469 2590.257812 "/>
<path fill-rule="nonzero" fill="rgb(22%, 59.6%, 14.9%)" fill-opacity="1" d="M 2834.152344 2594.183594 C 2834.152344 2627.320312 2807.289062 2654.183594 2774.152344 2654.183594 C 2741.015625 2654.183594 2714.152344 2627.320312 2714.152344 2594.183594 C 2714.152344 2561.046875 2741.015625 2534.183594 2774.152344 2534.183594 C 2807.289062 2534.183594 2834.152344 2561.046875 2834.152344 2594.183594 Z M 2834.152344 2594.183594 "/>
<path fill-rule="nonzero" fill="rgb(22%, 59.6%, 14.9%)" fill-opacity="1" d="M 3367.496094 2601.550781 C 3367.496094 2634.6875 3340.632812 2661.550781 3307.496094 2661.550781 C 3274.359375 2661.550781 3247.496094 2634.6875 3247.496094 2601.550781 C 3247.496094 2568.414062 3274.359375 2541.550781 3307.496094 2541.550781 C 3340.632812 2541.550781 3367.496094 2568.414062 3367.496094 2601.550781 Z M 3367.496094 2601.550781 "/>
<path fill-rule="nonzero" fill="rgb(22%, 59.6%, 14.9%)" fill-opacity="1" d="M 2404.285156 2699.433594 C 2404.285156 2732.570312 2377.421875 2759.433594 2344.285156 2759.433594 C 2311.144531 2759.433594 2284.285156 2732.570312 2284.285156 2699.433594 C 2284.285156 2666.296875 2311.144531 2639.433594 2344.285156 2639.433594 C 2377.421875 2639.433594 2404.285156 2666.296875 2404.285156 2699.433594 Z M 2404.285156 2699.433594 "/>
<path fill-rule="nonzero" fill="rgb(22%, 59.6%, 14.9%)" fill-opacity="1" d="M 2694.117188 2688.878906 C 2694.117188 2722.015625 2667.253906 2748.878906 2634.117188 2748.878906 C 2600.980469 2748.878906 2574.117188 2722.015625 2574.117188 2688.878906 C 2574.117188 2655.742188 2600.980469 2628.878906 2634.117188 2628.878906 C 2667.253906 2628.878906 2694.117188 2655.742188 2694.117188 2688.878906 Z M 2694.117188 2688.878906 "/>
<path fill-rule="nonzero" fill="rgb(22%, 59.6%, 14.9%)" fill-opacity="1" d="M 3538.160156 2699.511719 C 3538.160156 2732.648438 3511.296875 2759.511719 3478.160156 2759.511719 C 3445.023438 2759.511719 3418.160156 2732.648438 3418.160156 2699.511719 C 3418.160156 2666.375 3445.023438 2639.511719 3478.160156 2639.511719 C 3511.296875 2639.511719 3538.160156 2666.375 3538.160156 2699.511719 Z M 3538.160156 2699.511719 "/>
<path fill-rule="nonzero" fill="rgb(22%, 59.6%, 14.9%)" fill-opacity="1" d="M 2956.230469 2711.871094 C 2956.230469 2745.007812 2929.367188 2771.871094 2896.230469 2771.871094 C 2863.089844 2771.871094 2836.230469 2745.007812 2836.230469 2711.871094 C 2836.230469 2678.734375 2863.089844 2651.871094 2896.230469 2651.871094 C 2929.367188 2651.871094 2956.230469 2678.734375 2956.230469 2711.871094 Z M 2956.230469 2711.871094 "/>
<path fill-rule="nonzero" fill="rgb(22%, 59.6%, 14.9%)" fill-opacity="1" d="M 3211.613281 2698.421875 C 3211.613281 2731.558594 3184.75 2758.421875 3151.613281 2758.421875 C 3118.476562 2758.421875 3091.613281 2731.558594 3091.613281 2698.421875 C 3091.613281 2665.285156 3118.476562 2638.421875 3151.613281 2638.421875 C 3184.75 2638.421875 3211.613281 2665.285156 3211.613281 2698.421875 Z M 3211.613281 2698.421875 "/>
<path fill-rule="nonzero" fill="rgb(22%, 59.6%, 14.9%)" fill-opacity="1" d="M 2556.492188 2793.570312 C 2556.492188 2826.707031 2529.628906 2853.570312 2496.492188 2853.570312 C 2463.351562 2853.570312 2436.492188 2826.707031 2436.492188 2793.570312 C 2436.492188 2760.433594 2463.351562 2733.570312 2496.492188 2733.570312 C 2529.628906 2733.570312 2556.492188 2760.433594 2556.492188 2793.570312 Z M 2556.492188 2793.570312 "/>
<path fill-rule="nonzero" fill="rgb(22%, 59.6%, 14.9%)" fill-opacity="1" d="M 3359.863281 2794.890625 C 3359.863281 2828.027344 3333 2854.890625 3299.863281 2854.890625 C 3266.726562 2854.890625 3239.863281 2828.027344 3239.863281 2794.890625 C 3239.863281 2761.753906 3266.726562 2734.890625 3299.863281 2734.890625 C 3333 2734.890625 3359.863281 2761.753906 3359.863281 2794.890625 Z M 3359.863281 2794.890625 "/>
<path fill-rule="nonzero" fill="rgb(22%, 59.6%, 14.9%)" fill-opacity="1" d="M 2811.105469 2812.898438 C 2811.105469 2846.035156 2784.246094 2872.898438 2751.105469 2872.898438 C 2717.96875 2872.898438 2691.105469 2846.035156 2691.105469 2812.898438 C 2691.105469 2779.761719 2717.96875 2752.898438 2751.105469 2752.898438 C 2784.246094 2752.898438 2811.105469 2779.761719 2811.105469 2812.898438 Z M 2811.105469 2812.898438 "/>
<path fill-rule="nonzero" fill="rgb(22%, 59.6%, 14.9%)" fill-opacity="1" d="M 3091.714844 2821.949219 C 3091.714844 2855.085938 3064.851562 2881.949219 3031.714844 2881.949219 C 2998.578125 2881.949219 2971.714844 2855.085938 2971.714844 2821.949219 C 2971.714844 2788.8125 2998.578125 2761.949219 3031.714844 2761.949219 C 3064.851562 2761.949219 3091.714844 2788.8125 3091.714844 2821.949219 Z M 3091.714844 2821.949219 "/>
<path fill-rule="nonzero" fill="rgb(22%, 59.6%, 14.9%)" fill-opacity="1" d="M 2392.800781 2862.140625 C 2392.800781 2895.277344 2365.9375 2922.140625 2332.800781 2922.140625 C 2299.664062 2922.140625 2272.800781 2895.277344 2272.800781 2862.140625 C 2272.800781 2829.003906 2299.664062 2802.140625 2332.800781 2802.140625 C 2365.9375 2802.140625 2392.800781 2829.003906 2392.800781 2862.140625 Z M 2392.800781 2862.140625 "/>
<path fill-rule="nonzero" fill="rgb(22%, 59.6%, 14.9%)" fill-opacity="1" d="M 3515.332031 2871.398438 C 3515.332031 2904.539062 3488.46875 2931.398438 3455.332031 2931.398438 C 3422.195312 2931.398438 3395.332031 2904.539062 3395.332031 2871.398438 C 3395.332031 2838.261719 3422.195312 2811.398438 3455.332031 2811.398438 C 3488.46875 2811.398438 3515.332031 2838.261719 3515.332031 2871.398438 Z M 3515.332031 2871.398438 "/>
<path fill-rule="nonzero" fill="rgb(22%, 59.6%, 14.9%)" fill-opacity="1" d="M 2659.738281 2921.019531 C 2659.738281 2954.15625 2632.875 2981.019531 2599.738281 2981.019531 C 2566.601562 2981.019531 2539.738281 2954.15625 2539.738281 2921.019531 C 2539.738281 2887.878906 2566.601562 2861.019531 2599.738281 2861.019531 C 2632.875 2861.019531 2659.738281 2887.878906 2659.738281 2921.019531 Z M 2659.738281 2921.019531 "/>
<path fill-rule="nonzero" fill="rgb(22%, 59.6%, 14.9%)" fill-opacity="1" d="M 3247.933594 2920.457031 C 3247.933594 2953.59375 3221.070312 2980.457031 3187.933594 2980.457031 C 3154.792969 2980.457031 3127.933594 2953.59375 3127.933594 2920.457031 C 3127.933594 2887.320312 3154.792969 2860.457031 3187.933594 2860.457031 C 3221.070312 2860.457031 3247.933594 2887.320312 3247.933594 2920.457031 Z M 3247.933594 2920.457031 "/>
<path fill-rule="nonzero" fill="rgb(22%, 59.6%, 14.9%)" fill-opacity="1" d="M 2949.726562 2915.476562 C 2949.726562 2948.613281 2922.863281 2975.476562 2889.726562 2975.476562 C 2856.589844 2975.476562 2829.726562 2948.613281 2829.726562 2915.476562 C 2829.726562 2882.339844 2856.589844 2855.476562 2889.726562 2855.476562 C 2922.863281 2855.476562 2949.726562 2882.339844 2949.726562 2915.476562 Z M 2949.726562 2915.476562 "/>
<path fill-rule="nonzero" fill="rgb(22%, 59.6%, 14.9%)" fill-opacity="1" d="M 2499.5625 2990.621094 C 2499.5625 3023.757812 2472.699219 3050.621094 2439.5625 3050.621094 C 2406.425781 3050.621094 2379.5625 3023.757812 2379.5625 2990.621094 C 2379.5625 2957.484375 2406.425781 2930.621094 2439.5625 2930.621094 C 2472.699219 2930.621094 2499.5625 2957.484375 2499.5625 2990.621094 Z M 2499.5625 2990.621094 "/>
<path fill-rule="nonzero" fill="rgb(22%, 59.6%, 14.9%)" fill-opacity="1" d="M 3408.238281 3007.039062 C 3408.238281 3040.179688 3381.375 3067.039062 3348.238281 3067.039062 C 3315.101562 3067.039062 3288.238281 3040.179688 3288.238281 3007.039062 C 3288.238281 2973.902344 3315.101562 2947.039062 3348.238281 2947.039062 C 3381.375 2947.039062 3408.238281 2973.902344 3408.238281 3007.039062 Z M 3408.238281 3007.039062 "/>
<path fill-rule="nonzero" fill="rgb(22%, 59.6%, 14.9%)" fill-opacity="1" d="M 3109.378906 3020.265625 C 3109.378906 3053.402344 3082.515625 3080.265625 3049.378906 3080.265625 C 3016.242188 3080.265625 2989.378906 3053.402344 2989.378906 3020.265625 C 2989.378906 2987.128906 3016.242188 2960.265625 3049.378906 2960.265625 C 3082.515625 2960.265625 3109.378906 2987.128906 3109.378906 3020.265625 Z M 3109.378906 3020.265625 "/>
<path fill-rule="nonzero" fill="rgb(22%, 59.6%, 14.9%)" fill-opacity="1" d="M 2796.261719 3022.429688 C 2796.261719 3055.566406 2769.398438 3082.429688 2736.261719 3082.429688 C 2703.125 3082.429688 2676.261719 3055.566406 2676.261719 3022.429688 C 2676.261719 2989.292969 2703.125 2962.429688 2736.261719 2962.429688 C 2769.398438 2962.429688 2796.261719 2989.292969 2796.261719 3022.429688 Z M 2796.261719 3022.429688 "/>
<path fill-rule="nonzero" fill="rgb(22%, 59.6%, 14.9%)" fill-opacity="1" d="M 3274.300781 3125.601562 C 3274.300781 3158.738281 3247.4375 3185.601562 3214.300781 3185.601562 C 3181.164062 3185.601562 3154.300781 3158.738281 3154.300781 3125.601562 C 3154.300781 3092.464844 3181.164062 3065.601562 3214.300781 3065.601562 C 3247.4375 3065.601562 3274.300781 3092.464844 3274.300781 3125.601562 Z M 3274.300781 3125.601562 "/>
<path fill-rule="nonzero" fill="rgb(22%, 59.6%, 14.9%)" fill-opacity="1" d="M 2618.875 3103.796875 C 2618.875 3136.933594 2592.011719 3163.796875 2558.875 3163.796875 C 2525.734375 3163.796875 2498.875 3136.933594 2498.875 3103.796875 C 2498.875 3070.65625 2525.734375 3043.796875 2558.875 3043.796875 C 2592.011719 3043.796875 2618.875 3070.65625 2618.875 3103.796875 Z M 2618.875 3103.796875 "/>
<path fill-rule="nonzero" fill="rgb(22%, 59.6%, 14.9%)" fill-opacity="1" d="M 2946.261719 3092.996094 C 2946.261719 3126.136719 2919.398438 3152.996094 2886.261719 3152.996094 C 2853.125 3152.996094 2826.261719 3126.136719 2826.261719 3092.996094 C 2826.261719 3059.859375 2853.125 3032.996094 2886.261719 3032.996094 C 2919.398438 3032.996094 2946.261719 3059.859375 2946.261719 3092.996094 Z M 2946.261719 3092.996094 "/>
<path fill-rule="nonzero" fill="rgb(22%, 59.6%, 14.9%)" fill-opacity="1" d="M 3120.652344 3204.1875 C 3120.652344 3237.324219 3093.789062 3264.1875 3060.652344 3264.1875 C 3027.515625 3264.1875 3000.652344 3237.324219 3000.652344 3204.1875 C 3000.652344 3171.050781 3027.515625 3144.1875 3060.652344 3144.1875 C 3093.789062 3144.1875 3120.652344 3171.050781 3120.652344 3204.1875 Z M 3120.652344 3204.1875 "/>
<path fill-rule="nonzero" fill="rgb(22%, 59.6%, 14.9%)" fill-opacity="1" d="M 2765.683594 3190.144531 C 2765.683594 3223.28125 2738.820312 3250.144531 2705.683594 3250.144531 C 2672.546875 3250.144531 2645.683594 3223.28125 2645.683594 3190.144531 C 2645.683594 3157.007812 2672.546875 3130.144531 2705.683594 3130.144531 C 2738.820312 3130.144531 2765.683594 3157.007812 2765.683594 3190.144531 Z M 2765.683594 3190.144531 "/>
<path fill-rule="nonzero" fill="rgb(22%, 59.6%, 14.9%)" fill-opacity="1" d="M 2915.855469 3247.339844 C 2915.855469 3280.476562 2888.992188 3307.339844 2855.855469 3307.339844 C 2822.71875 3307.339844 2795.855469 3280.476562 2795.855469 3247.339844 C 2795.855469 3214.203125 2822.71875 3187.339844 2855.855469 3187.339844 C 2888.992188 3187.339844 2915.855469 3214.203125 2915.855469 3247.339844 Z M 2915.855469 3247.339844 "/>
<path fill-rule="nonzero" fill="rgb(58.4%, 34.5%, 69.8%)" fill-opacity="1" d="M 2710 900 C 2710 933.136719 2683.136719 960 2650 960 C 2616.863281 960 2590 933.136719 2590 900 C 2590 866.863281 2616.863281 840 2650 840 C 2683.136719 840 2710 866.863281 2710 900 Z M 2710 900 "/>
<path fill-rule="nonzero" fill="rgb(58.4%, 34.5%, 69.8%)" fill-opacity="1" d="M 2684.445312 1094.113281 C 2684.445312 1127.25 2657.582031 1154.113281 2624.445312 1154.113281 C 2591.308594 1154.113281 2564.445312 1127.25 2564.445312 1094.113281 C 2564.445312 1060.976562 2591.308594 1034.113281 2624.445312 1034.113281 C 2657.582031 1034.113281 2684.445312 1060.976562 2684.445312 1094.113281 Z M 2684.445312 1094.113281 "/>
<path fill-rule="nonzero" fill="rgb(58.4%, 34.5%, 69.8%)" fill-opacity="1" d="M 2609.519531 1275 C 2609.519531 1308.136719 2582.65625 1335 2549.519531 1335 C 2516.382812 1335 2489.519531 1308.136719 2489.519531 1275 C 2489.519531 1241.863281 2516.382812 1215 2549.519531 1215 C 2582.65625 1215 2609.519531 1241.863281 2609.519531 1275 Z M 2609.519531 1275 "/>
<path fill-rule="nonzero" fill="rgb(58.4%, 34.5%, 69.8%)" fill-opacity="1" d="M 2490.332031 1430.332031 C 2490.332031 1463.46875 2463.46875 1490.332031 2430.332031 1490.332031 C 2397.191406 1490.332031 2370.332031 1463.46875 2370.332031 1430.332031 C 2370.332031 1397.191406 2397.191406 1370.332031 2430.332031 1370.332031 C 2463.46875 1370.332031 2490.332031 1397.191406 2490.332031 1430.332031 Z M 2490.332031 1430.332031 "/>
<path fill-rule="nonzero" fill="rgb(58.4%, 34.5%, 69.8%)" fill-opacity="1" d="M 2335 1549.519531 C 2335 1582.65625 2308.136719 1609.519531 2275 1609.519531 C 2241.863281 1609.519531 2215 1582.65625 2215 1549.519531 C 2215 1516.382812 2241.863281 1489.519531 2275 1489.519531 C 2308.136719 1489.519531 2335 1516.382812 2335 1549.519531 Z M 2335 1549.519531 "/>
<path fill-rule="nonzero" fill="rgb(58.4%, 34.5%, 69.8%)" fill-opacity="1" d="M 2154.113281 1624.445312 C 2154.113281 1657.582031 2127.25 1684.445312 2094.113281 1684.445312 C 2060.976562 1684.445312 2034.113281 1657.582031 2034.113281 1624.445312 C 2034.113281 1591.308594 2060.976562 1564.445312 2094.113281 1564.445312 C 2127.25 1564.445312 2154.113281 1591.308594 2154.113281 1624.445312 Z M 2154.113281 1624.445312 "/>
<path fill-rule="nonzero" fill="rgb(58.4%, 34.5%, 69.8%)" fill-opacity="1" d="M 1960 1650 C 1960 1683.136719 1933.136719 1710 1900 1710 C 1866.863281 1710 1840 1683.136719 1840 1650 C 1840 1616.863281 1866.863281 1590 1900 1590 C 1933.136719 1590 1960 1616.863281 1960 1650 Z M 1960 1650 "/>
<path fill-rule="nonzero" fill="rgb(58.4%, 34.5%, 69.8%)" fill-opacity="1" d="M 1765.886719 1624.445312 C 1765.886719 1657.582031 1739.023438 1684.445312 1705.886719 1684.445312 C 1672.75 1684.445312 1645.886719 1657.582031 1645.886719 1624.445312 C 1645.886719 1591.308594 1672.75 1564.445312 1705.886719 1564.445312 C 1739.023438 1564.445312 1765.886719 1591.308594 1765.886719 1624.445312 Z M 1765.886719 1624.445312 "/>
<path fill-rule="nonzero" fill="rgb(58.4%, 34.5%, 69.8%)" fill-opacity="1" d="M 1585 1549.519531 C 1585 1582.65625 1558.136719 1609.519531 1525 1609.519531 C 1491.863281 1609.519531 1465 1582.65625 1465 1549.519531 C 1465 1516.382812 1491.863281 1489.519531 1525 1489.519531 C 1558.136719 1489.519531 1585 1516.382812 1585 1549.519531 Z M 1585 1549.519531 "/>
<path fill-rule="nonzero" fill="rgb(58.4%, 34.5%, 69.8%)" fill-opacity="1" d="M 1429.667969 1430.332031 C 1429.667969 1463.46875 1402.808594 1490.332031 1369.667969 1490.332031 C 1336.53125 1490.332031 1309.667969 1463.46875 1309.667969 1430.332031 C 1309.667969 1397.191406 1336.53125 1370.332031 1369.667969 1370.332031 C 1402.808594 1370.332031 1429.667969 1397.191406 1429.667969 1430.332031 Z M 1429.667969 1430.332031 "/>
<path fill-rule="nonzero" fill="rgb(58.4%, 34.5%, 69.8%)" fill-opacity="1" d="M 1310.480469 1275 C 1310.480469 1308.136719 1283.617188 1335 1250.480469 1335 C 1217.34375 1335 1190.480469 1308.136719 1190.480469 1275 C 1190.480469 1241.863281 1217.34375 1215 1250.480469 1215 C 1283.617188 1215 1310.480469 1241.863281 1310.480469 1275 Z M 1310.480469 1275 "/>
<path fill-rule="nonzero" fill="rgb(58.4%, 34.5%, 69.8%)" fill-opacity="1" d="M 1235.554688 1094.113281 C 1235.554688 1127.25 1208.691406 1154.113281 1175.554688 1154.113281 C 1142.417969 1154.113281 1115.554688 1127.25 1115.554688 1094.113281 C 1115.554688 1060.976562 1142.417969 1034.113281 1175.554688 1034.113281 C 1208.691406 1034.113281 1235.554688 1060.976562 1235.554688 1094.113281 Z M 1235.554688 1094.113281 "/>
<path fill-rule="nonzero" fill="rgb(58.4%, 34.5%, 69.8%)" fill-opacity="1" d="M 1210 900 C 1210 933.136719 1183.136719 960 1150 960 C 1116.863281 960 1090 933.136719 1090 900 C 1090 866.863281 1116.863281 840 1150 840 C 1183.136719 840 1210 866.863281 1210 900 Z M 1210 900 "/>
<path fill-rule="nonzero" fill="rgb(58.4%, 34.5%, 69.8%)" fill-opacity="1" d="M 1235.554688 705.886719 C 1235.554688 739.023438 1208.691406 765.886719 1175.554688 765.886719 C 1142.417969 765.886719 1115.554688 739.023438 1115.554688 705.886719 C 1115.554688 672.75 1142.417969 645.886719 1175.554688 645.886719 C 1208.691406 645.886719 1235.554688 672.75 1235.554688 705.886719 Z M 1235.554688 705.886719 "/>
<path fill-rule="nonzero" fill="rgb(58.4%, 34.5%, 69.8%)" fill-opacity="1" d="M 1310.480469 525 C 1310.480469 558.136719 1283.617188 585 1250.480469 585 C 1217.34375 585 1190.480469 558.136719 1190.480469 525 C 1190.480469 491.863281 1217.34375 465 1250.480469 465 C 1283.617188 465 1310.480469 491.863281 1310.480469 525 Z M 1310.480469 525 "/>
<path fill-rule="nonzero" fill="rgb(58.4%, 34.5%, 69.8%)" fill-opacity="1" d="M 1429.667969 369.667969 C 1429.667969 402.808594 1402.808594 429.667969 1369.667969 429.667969 C 1336.53125 429.667969 1309.667969 402.808594 1309.667969 369.667969 C 1309.667969 336.53125 1336.53125 309.667969 1369.667969 309.667969 C 1402.808594 309.667969 1429.667969 336.53125 1429.667969 369.667969 Z M 1429.667969 369.667969 "/>
<path fill-rule="nonzero" fill="rgb(58.4%, 34.5%, 69.8%)" fill-opacity="1" d="M 1585 250.480469 C 1585 283.617188 1558.136719 310.480469 1525 310.480469 C 1491.863281 310.480469 1465 283.617188 1465 250.480469 C 1465 217.34375 1491.863281 190.480469 1525 190.480469 C 1558.136719 190.480469 1585 217.34375 1585 250.480469 Z M 1585 250.480469 "/>
<path fill-rule="nonzero" fill="rgb(58.4%, 34.5%, 69.8%)" fill-opacity="1" d="M 1765.886719 175.554688 C 1765.886719 208.691406 1739.023438 235.554688 1705.886719 235.554688 C 1672.75 235.554688 1645.886719 208.691406 1645.886719 175.554688 C 1645.886719 142.417969 1672.75 115.554688 1705.886719 115.554688 C 1739.023438 115.554688 1765.886719 142.417969 1765.886719 175.554688 Z M 1765.886719 175.554688 "/>
<path fill-rule="nonzero" fill="rgb(58.4%, 34.5%, 69.8%)" fill-opacity="1" d="M 1960 150 C 1960 183.136719 1933.136719 210 1900 210 C 1866.863281 210 1840 183.136719 1840 150 C 1840 116.863281 1866.863281 90 1900 90 C 1933.136719 90 1960 116.863281 1960 150 Z M 1960 150 "/>
<path fill-rule="nonzero" fill="rgb(58.4%, 34.5%, 69.8%)" fill-opacity="1" d="M 2154.113281 175.554688 C 2154.113281 208.691406 2127.25 235.554688 2094.113281 235.554688 C 2060.976562 235.554688 2034.113281 208.691406 2034.113281 175.554688 C 2034.113281 142.417969 2060.976562 115.554688 2094.113281 115.554688 C 2127.25 115.554688 2154.113281 142.417969 2154.113281 175.554688 Z M 2154.113281 175.554688 "/>
<path fill-rule="nonzero" fill="rgb(58.4%, 34.5%, 69.8%)" fill-opacity="1" d="M 2335 250.480469 C 2335 283.617188 2308.136719 310.480469 2275 310.480469 C 2241.863281 310.480469 2215 283.617188 2215 250.480469 C 2215 217.34375 2241.863281 190.480469 2275 190.480469 C 2308.136719 190.480469 2335 217.34375 2335 250.480469 Z M 2335 250.480469 "/>
<path fill-rule="nonzero" fill="rgb(58.4%, 34.5%, 69.8%)" fill-opacity="1" d="M 2490.332031 369.667969 C 2490.332031 402.808594 2463.46875 429.667969 2430.332031 429.667969 C 2397.191406 429.667969 2370.332031 402.808594 2370.332031 369.667969 C 2370.332031 336.53125 2397.191406 309.667969 2430.332031 309.667969 C 2463.46875 309.667969 2490.332031 336.53125 2490.332031 369.667969 Z M 2490.332031 369.667969 "/>
<path fill-rule="nonzero" fill="rgb(58.4%, 34.5%, 69.8%)" fill-opacity="1" d="M 2609.519531 525 C 2609.519531 558.136719 2582.65625 585 2549.519531 585 C 2516.382812 585 2489.519531 558.136719 2489.519531 525 C 2489.519531 491.863281 2516.382812 465 2549.519531 465 C 2582.65625 465 2609.519531 491.863281 2609.519531 525 Z M 2609.519531 525 "/>
<path fill-rule="nonzero" fill="rgb(58.4%, 34.5%, 69.8%)" fill-opacity="1" d="M 2684.445312 705.886719 C 2684.445312 739.023438 2657.582031 765.886719 2624.445312 765.886719 C 2591.308594 765.886719 2564.445312 739.023438 2564.445312 705.886719 C 2564.445312 672.75 2591.308594 645.886719 2624.445312 645.886719 C 2657.582031 645.886719 2684.445312 672.75 2684.445312 705.886719 Z M 2684.445312 705.886719 "/>
<path fill-rule="nonzero" fill="rgb(58.4%, 34.5%, 69.8%)" fill-opacity="1" d="M 2112.78125 331.960938 C 2112.78125 365.097656 2085.917969 391.960938 2052.78125 391.960938 C 2019.644531 391.960938 1992.78125 365.097656 1992.78125 331.960938 C 1992.78125 298.824219 2019.644531 271.960938 2052.78125 271.960938 C 2085.917969 271.960938 2112.78125 298.824219 2112.78125 331.960938 Z M 2112.78125 331.960938 "/>
<path fill-rule="nonzero" fill="rgb(58.4%, 34.5%, 69.8%)" fill-opacity="1" d="M 2308.277344 391.402344 C 2308.277344 424.539062 2281.414062 451.402344 2248.277344 451.402344 C 2215.140625 451.402344 2188.277344 424.539062 2188.277344 391.402344 C 2188.277344 358.265625 2215.140625 331.402344 2248.277344 331.402344 C 2281.414062 331.402344 2308.277344 358.265625 2308.277344 391.402344 Z M 2308.277344 391.402344 "/>
<path fill-rule="nonzero" fill="rgb(58.4%, 34.5%, 69.8%)" fill-opacity="1" d="M 1940.578125 329.234375 C 1940.578125 362.371094 1913.714844 389.234375 1880.578125 389.234375 C 1847.441406 389.234375 1820.578125 362.371094 1820.578125 329.234375 C 1820.578125 296.097656 1847.441406 269.234375 1880.578125 269.234375 C 1913.714844 269.234375 1940.578125 296.097656 1940.578125 329.234375 Z M 1940.578125 329.234375 "/>
<path fill-rule="nonzero" fill="rgb(58.4%, 34.5%, 69.8%)" fill-opacity="1" d="M 1603.476562 406.203125 C 1603.476562 439.34375 1576.613281 466.203125 1543.476562 466.203125 C 1510.339844 466.203125 1483.476562 439.34375 1483.476562 406.203125 C 1483.476562 373.066406 1510.339844 346.203125 1543.476562 346.203125 C 1576.613281 346.203125 1603.476562 373.066406 1603.476562 406.203125 Z M 1603.476562 406.203125 "/>
<path fill-rule="nonzero" fill="rgb(58.4%, 34.5%, 69.8%)" fill-opacity="1" d="M 1777.542969 379.769531 C 1777.542969 412.90625 1750.679688 439.769531 1717.542969 439.769531 C 1684.40625 439.769531 1657.542969 412.90625 1657.542969 379.769531 C 1657.542969 346.632812 1684.40625 319.769531 1717.542969 319.769531 C 1750.679688 319.769531 1777.542969 346.632812 1777.542969 379.769531 Z M 1777.542969 379.769531 "/>
<path fill-rule="nonzero" fill="rgb(58.4%, 34.5%, 69.8%)" fill-opacity="1" d="M 2202.796875 500.101562 C 2202.796875 533.238281 2175.9375 560.101562 2142.796875 560.101562 C 2109.660156 560.101562 2082.796875 533.238281 2082.796875 500.101562 C 2082.796875 466.964844 2109.660156 440.101562 2142.796875 440.101562 C 2175.9375 440.101562 2202.796875 466.964844 2202.796875 500.101562 Z M 2202.796875 500.101562 "/>
<path fill-rule="nonzero" fill="rgb(58.4%, 34.5%, 69.8%)" fill-opacity="1" d="M 2019.078125 479.707031 C 2019.078125 512.84375 1992.214844 539.707031 1959.078125 539.707031 C 1925.941406 539.707031 1899.078125 512.84375 1899.078125 479.707031 C 1899.078125 446.570312 1925.941406 419.707031 1959.078125 419.707031 C 1992.214844 419.707031 2019.078125 446.570312 2019.078125 479.707031 Z M 2019.078125 479.707031 "/>
<path fill-rule="nonzero" fill="rgb(58.4%, 34.5%, 69.8%)" fill-opacity="1" d="M 2427.109375 525.703125 C 2427.109375 558.839844 2400.246094 585.703125 2367.109375 585.703125 C 2333.96875 585.703125 2307.109375 558.839844 2307.109375 525.703125 C 2307.109375 492.566406 2333.96875 465.703125 2367.109375 465.703125 C 2400.246094 465.703125 2427.109375 492.566406 2427.109375 525.703125 Z M 2427.109375 525.703125 "/>
<path fill-rule="nonzero" fill="rgb(58.4%, 34.5%, 69.8%)" fill-opacity="1" d="M 1467.101562 537.386719 C 1467.101562 570.523438 1440.238281 597.386719 1407.101562 597.386719 C 1373.964844 597.386719 1347.101562 570.523438 1347.101562 537.386719 C 1347.101562 504.25 1373.964844 477.386719 1407.101562 477.386719 C 1440.238281 477.386719 1467.101562 504.25 1467.101562 537.386719 Z M 1467.101562 537.386719 "/>
<path fill-rule="nonzero" fill="rgb(58.4%, 34.5%, 69.8%)" fill-opacity="1" d="M 1665.527344 555.765625 C 1665.527344 588.902344 1638.664062 615.765625 1605.527344 615.765625 C 1572.390625 615.765625 1545.527344 588.902344 1545.527344 555.765625 C 1545.527344 522.628906 1572.390625 495.765625 1605.527344 495.765625 C 1638.664062 495.765625 1665.527344 522.628906 1665.527344 555.765625 Z M 1665.527344 555.765625 "/>
<path fill-rule="nonzero" fill="rgb(58.4%, 34.5%, 69.8%)" fill-opacity="1" d="M 1850.253906 519.292969 C 1850.253906 552.429688 1823.394531 579.292969 1790.253906 579.292969 C 1757.117188 579.292969 1730.253906 552.429688 1730.253906 519.292969 C 1730.253906 486.15625 1757.117188 459.292969 1790.253906 459.292969 C 1823.394531 459.292969 1850.253906 486.15625 1850.253906 519.292969 Z M 1850.253906 519.292969 "/>
<path fill-rule="nonzero" fill="rgb(58.4%, 34.5%, 69.8%)" fill-opacity="1" d="M 2533.835938 664.476562 C 2533.835938 697.613281 2506.972656 724.476562 2473.835938 724.476562 C 2440.699219 724.476562 2413.835938 697.613281 2413.835938 664.476562 C 2413.835938 631.339844 2440.699219 604.476562 2473.835938 604.476562 C 2506.972656 604.476562 2533.835938 631.339844 2533.835938 664.476562 Z M 2533.835938 664.476562 "/>
<path fill-rule="nonzero" fill="rgb(58.4%, 34.5%, 69.8%)" fill-opacity="1" d="M 2315.726562 649.667969 C 2315.726562 682.804688 2288.863281 709.667969 2255.726562 709.667969 C 2222.589844 709.667969 2195.726562 682.804688 2195.726562 649.667969 C 2195.726562 616.53125 2222.589844 589.667969 2255.726562 589.667969 C 2288.863281 589.667969 2315.726562 616.53125 2315.726562 649.667969 Z M 2315.726562 649.667969 "/>
<path fill-rule="nonzero" fill="rgb(58.4%, 34.5%, 69.8%)" fill-opacity="1" d="M 2123.800781 666.90625 C 2123.800781 700.042969 2096.9375 726.90625 2063.800781 726.90625 C 2030.664062 726.90625 2003.800781 700.042969 2003.800781 666.90625 C 2003.800781 633.769531 2030.664062 606.90625 2063.800781 606.90625 C 2096.9375 606.90625 2123.800781 633.769531 2123.800781 666.90625 Z M 2123.800781 666.90625 "/>
<path fill-rule="nonzero" fill="rgb(58.4%, 34.5%, 69.8%)" fill-opacity="1" d="M 1508.875 702.0625 C 1508.875 735.199219 1482.011719 762.0625 1448.875 762.0625 C 1415.738281 762.0625 1388.875 735.199219 1388.875 702.0625 C 1388.875 668.925781 1415.738281 642.0625 1448.875 642.0625 C 1482.011719 642.0625 1508.875 668.925781 1508.875 702.0625 Z M 1508.875 702.0625 "/>
<path fill-rule="nonzero" fill="rgb(58.4%, 34.5%, 69.8%)" fill-opacity="1" d="M 1764.667969 692.59375 C 1764.667969 725.730469 1737.804688 752.59375 1704.667969 752.59375 C 1671.53125 752.59375 1644.667969 725.730469 1644.667969 692.59375 C 1644.667969 659.457031 1671.53125 632.59375 1704.667969 632.59375 C 1737.804688 632.59375 1764.667969 659.457031 1764.667969 692.59375 Z M 1764.667969 692.59375 "/>
<path fill-rule="nonzero" fill="rgb(58.4%, 34.5%, 69.8%)" fill-opacity="1" d="M 1960.25 705.507812 C 1960.25 738.644531 1933.386719 765.507812 1900.25 765.507812 C 1867.109375 765.507812 1840.25 738.644531 1840.25 705.507812 C 1840.25 672.371094 1867.109375 645.507812 1900.25 645.507812 C 1933.386719 645.507812 1960.25 672.371094 1960.25 705.507812 Z M 1960.25 705.507812 "/>
<path fill-rule="nonzero" fill="rgb(58.4%, 34.5%, 69.8%)" fill-opacity="1" d="M 2421.730469 772.703125 C 2421.730469 805.839844 2394.867188 832.703125 2361.730469 832.703125 C 2328.59375 832.703125 2301.730469 805.839844 2301.730469 772.703125 C 2301.730469 739.566406 2328.59375 712.703125 2361.730469 712.703125 C 2394.867188 712.703125 2421.730469 739.566406 2421.730469 772.703125 Z M 2421.730469 772.703125 "/>
<path fill-rule="nonzero" fill="rgb(58.4%, 34.5%, 69.8%)" fill-opacity="1" d="M 1366.066406 800.230469 C 1366.066406 833.371094 1339.203125 860.230469 1306.066406 860.230469 C 1272.929688 860.230469 1246.066406 833.371094 1246.066406 800.230469 C 1246.066406 767.09375 1272.929688 740.230469 1306.066406 740.230469 C 1339.203125 740.230469 1366.066406 767.09375 1366.066406 800.230469 Z M 1366.066406 800.230469 "/>
<path fill-rule="nonzero" fill="rgb(58.4%, 34.5%, 69.8%)" fill-opacity="1" d="M 2227.648438 799.082031 C 2227.648438 832.21875 2200.785156 859.082031 2167.648438 859.082031 C 2134.511719 859.082031 2107.648438 832.21875 2107.648438 799.082031 C 2107.648438 765.945312 2134.511719 739.082031 2167.648438 739.082031 C 2200.785156 739.082031 2227.648438 765.945312 2227.648438 799.082031 Z M 2227.648438 799.082031 "/>
<path fill-rule="nonzero" fill="rgb(58.4%, 34.5%, 69.8%)" fill-opacity="1" d="M 1640.234375 811.171875 C 1640.234375 844.308594 1613.371094 871.171875 1580.234375 871.171875 C 1547.097656 871.171875 1520.234375 844.308594 1520.234375 811.171875 C 1520.234375 778.035156 1547.097656 751.171875 1580.234375 751.171875 C 1613.371094 751.171875 1640.234375 778.035156 1640.234375 811.171875 Z M 1640.234375 811.171875 "/>
<path fill-rule="nonzero" fill="rgb(58.4%, 34.5%, 69.8%)" fill-opacity="1" d="M 1854.027344 846.316406 C 1854.027344 879.457031 1827.164062 906.316406 1794.027344 906.316406 C 1760.890625 906.316406 1734.027344 879.457031 1734.027344 846.316406 C 1734.027344 813.179688 1760.890625 786.316406 1794.027344 786.316406 C 1827.164062 786.316406 1854.027344 813.179688 1854.027344 846.316406 Z M 1854.027344 846.316406 "/>
<path fill-rule="nonzero" fill="rgb(58.4%, 34.5%, 69.8%)" fill-opacity="1" d="M 2050.535156 850.53125 C 2050.535156 883.667969 2023.675781 910.53125 1990.535156 910.53125 C 1957.398438 910.53125 1930.535156 883.667969 1930.535156 850.53125 C 1930.535156 817.390625 1957.398438 790.53125 1990.535156 790.53125 C 2023.675781 790.53125 2050.535156 817.390625 2050.535156 850.53125 Z M 2050.535156 850.53125 "/>
<path fill-rule="nonzero" fill="rgb(58.4%, 34.5%, 69.8%)" fill-opacity="1" d="M 2563.980469 892.121094 C 2563.980469 925.257812 2537.117188 952.121094 2503.980469 952.121094 C 2470.84375 952.121094 2443.980469 925.257812 2443.980469 892.121094 C 2443.980469 858.984375 2470.84375 832.121094 2503.980469 832.121094 C 2537.117188 832.121094 2563.980469 858.984375 2563.980469 892.121094 Z M 2563.980469 892.121094 "/>
<path fill-rule="nonzero" fill="rgb(58.4%, 34.5%, 69.8%)" fill-opacity="1" d="M 2347.273438 928.882812 C 2347.273438 962.019531 2320.410156 988.882812 2287.273438 988.882812 C 2254.136719 988.882812 2227.273438 962.019531 2227.273438 928.882812 C 2227.273438 895.746094 2254.136719 868.882812 2287.273438 868.882812 C 2320.410156 868.882812 2347.273438 895.746094 2347.273438 928.882812 Z M 2347.273438 928.882812 "/>
<path fill-rule="nonzero" fill="rgb(58.4%, 34.5%, 69.8%)" fill-opacity="1" d="M 1504.175781 909.945312 C 1504.175781 943.082031 1477.3125 969.945312 1444.175781 969.945312 C 1411.039062 969.945312 1384.175781 943.082031 1384.175781 909.945312 C 1384.175781 876.808594 1411.039062 849.945312 1444.175781 849.945312 C 1477.3125 849.945312 1504.175781 876.808594 1504.175781 909.945312 Z M 1504.175781 909.945312 "/>
<path fill-rule="nonzero" fill="rgb(58.4%, 34.5%, 69.8%)" fill-opacity="1" d="M 1725.726562 971.933594 C 1725.726562 1005.070312 1698.863281 1031.933594 1665.726562 1031.933594 C 1632.589844 1031.933594 1605.726562 1005.070312 1605.726562 971.933594 C 1605.726562 938.796875 1632.589844 911.933594 1665.726562 911.933594 C 1698.863281 911.933594 1725.726562 938.796875 1725.726562 971.933594 Z M 1725.726562 971.933594 "/>
<path fill-rule="nonzero" fill="rgb(58.4%, 34.5%, 69.8%)" fill-opacity="1" d="M 2184.699219 983.453125 C 2184.699219 1016.589844 2157.835938 1043.453125 2124.699219 1043.453125 C 2091.5625 1043.453125 2064.699219 1016.589844 2064.699219 983.453125 C 2064.699219 950.316406 2091.5625 923.453125 2124.699219 923.453125 C 2157.835938 923.453125 2184.699219 950.316406 2184.699219 983.453125 Z M 2184.699219 983.453125 "/>
<path fill-rule="nonzero" fill="rgb(58.4%, 34.5%, 69.8%)" fill-opacity="1" d="M 1940.769531 992.144531 C 1940.769531 1025.28125 1913.90625 1052.144531 1880.769531 1052.144531 C 1847.632812 1052.144531 1820.769531 1025.28125 1820.769531 992.144531 C 1820.769531 959.007812 1847.632812 932.144531 1880.769531 932.144531 C 1913.90625 932.144531 1940.769531 959.007812 1940.769531 992.144531 Z M 1940.769531 992.144531 "/>
<path fill-rule="nonzero" fill="rgb(58.4%, 34.5%, 69.8%)" fill-opacity="1" d="M 1373.800781 1025.09375 C 1373.800781 1058.230469 1346.9375 1085.09375 1313.800781 1085.09375 C 1280.664062 1085.09375 1253.800781 1058.230469 1253.800781 1025.09375 C 1253.800781 991.957031 1280.664062 965.09375 1313.800781 965.09375 C 1346.9375 965.09375 1373.800781 991.957031 1373.800781 1025.09375 Z M 1373.800781 1025.09375 "/>
<path fill-rule="nonzero" fill="rgb(58.4%, 34.5%, 69.8%)" fill-opacity="1" d="M 2450.207031 1044.371094 C 2450.207031 1077.507812 2423.34375 1104.371094 2390.207031 1104.371094 C 2357.070312 1104.371094 2330.207031 1077.507812 2330.207031 1044.371094 C 2330.207031 1011.234375 2357.070312 984.371094 2390.207031 984.371094 C 2423.34375 984.371094 2450.207031 1011.234375 2450.207031 1044.371094 Z M 2450.207031 1044.371094 "/>
<path fill-rule="nonzero" fill="rgb(58.4%, 34.5%, 69.8%)" fill-opacity="1" d="M 1582.015625 1070.101562 C 1582.015625 1103.238281 1555.152344 1130.101562 1522.015625 1130.101562 C 1488.878906 1130.101562 1462.015625 1103.238281 1462.015625 1070.101562 C 1462.015625 1036.964844 1488.878906 1010.101562 1522.015625 1010.101562 C 1555.152344 1010.101562 1582.015625 1036.964844 1582.015625 1070.101562 Z M 1582.015625 1070.101562 "/>
<path fill-rule="nonzero" fill="rgb(58.4%, 34.5%, 69.8%)" fill-opacity="1" d="M 1819.546875 1113.960938 C 1819.546875 1147.097656 1792.683594 1173.960938 1759.546875 1173.960938 C 1726.410156 1173.960938 1699.546875 1147.097656 1699.546875 1113.960938 C 1699.546875 1080.824219 1726.410156 1053.960938 1759.546875 1053.960938 C 1792.683594 1053.960938 1819.546875 1080.824219 1819.546875 1113.960938 Z M 1819.546875 1113.960938 "/>
<path fill-rule="nonzero" fill="rgb(58.4%, 34.5%, 69.8%)" fill-opacity="1" d="M 2073.550781 1109.277344 C 2073.550781 1142.414062 2046.6875 1169.277344 2013.550781 1169.277344 C 1980.414062 1169.277344 1953.550781 1142.414062 1953.550781 1109.277344 C 1953.550781 1076.136719 1980.414062 1049.277344 2013.550781 1049.277344 C 2046.6875 1049.277344 2073.550781 1076.136719 2073.550781 1109.277344 Z M 2073.550781 1109.277344 "/>
<path fill-rule="nonzero" fill="rgb(58.4%, 34.5%, 69.8%)" fill-opacity="1" d="M 2294.003906 1131.019531 C 2294.003906 1164.15625 2267.140625 1191.019531 2234.003906 1191.019531 C 2200.867188 1191.019531 2174.003906 1164.15625 2174.003906 1131.019531 C 2174.003906 1097.878906 2200.867188 1071.019531 2234.003906 1071.019531 C 2267.140625 1071.019531 2294.003906 1097.878906 2294.003906 1131.019531 Z M 2294.003906 1131.019531 "/>
<path fill-rule="nonzero" fill="rgb(58.4%, 34.5%, 69.8%)" fill-opacity="1" d="M 2532.792969 1158.734375 C 2532.792969 1191.871094 2505.929688 1218.734375 2472.792969 1218.734375 C 2439.652344 1218.734375 2412.792969 1191.871094 2412.792969 1158.734375 C 2412.792969 1125.597656 2439.652344 1098.734375 2472.792969 1098.734375 C 2505.929688 1098.734375 2532.792969 1125.597656 2532.792969 1158.734375 Z M 2532.792969 1158.734375 "/>
<path fill-rule="nonzero" fill="rgb(58.4%, 34.5%, 69.8%)" fill-opacity="1" d="M 1455.109375 1199.324219 C 1455.109375 1232.460938 1428.246094 1259.324219 1395.109375 1259.324219 C 1361.972656 1259.324219 1335.109375 1232.460938 1335.109375 1199.324219 C 1335.109375 1166.1875 1361.972656 1139.324219 1395.109375 1139.324219 C 1428.246094 1139.324219 1455.109375 1166.1875 1455.109375 1199.324219 Z M 1455.109375 1199.324219 "/>
<path fill-rule="nonzero" fill="rgb(58.4%, 34.5%, 69.8%)" fill-opacity="1" d="M 1674.773438 1214.304688 C 1674.773438 1247.441406 1647.910156 1274.304688 1614.773438 1274.304688 C 1581.636719 1274.304688 1554.773438 1247.441406 1554.773438 1214.304688 C 1554.773438 1181.167969 1581.636719 1154.304688 1614.773438 1154.304688 C 1647.910156 1154.304688 1674.773438 1181.167969 1674.773438 1214.304688 Z M 1674.773438 1214.304688 "/>
<path fill-rule="nonzero" fill="rgb(58.4%, 34.5%, 69.8%)" fill-opacity="1" d="M 1957.636719 1223.640625 C 1957.636719 1256.78125 1930.777344 1283.640625 1897.636719 1283.640625 C 1864.5 1283.640625 1837.636719 1256.78125 1837.636719 1223.640625 C 1837.636719 1190.503906 1864.5 1163.640625 1897.636719 1163.640625 C 1930.777344 1163.640625 1957.636719 1190.503906 1957.636719 1223.640625 Z M 1957.636719 1223.640625 "/>
<path fill-rule="nonzero" fill="rgb(58.4%, 34.5%, 69.8%)" fill-opacity="1" d="M 2176.394531 1260.796875 C 2176.394531 1293.933594 2149.53125 1320.796875 2116.394531 1320.796875 C 2083.257812 1320.796875 2056.394531 1293.933594 2056.394531 1260.796875 C 2056.394531 1227.660156 2083.257812 1200.796875 2116.394531 1200.796875 C 2149.53125 1200.796875 2176.394531 1227.660156 2176.394531 1260.796875 Z M 2176.394531 1260.796875 "/>
<path fill-rule="nonzero" fill="rgb(58.4%, 34.5%, 69.8%)" fill-opacity="1" d="M 2401.894531 1260.242188 C 2401.894531 1293.378906 2375.03125 1320.242188 2341.894531 1320.242188 C 2308.757812 1320.242188 2281.894531 1293.378906 2281.894531 1260.242188 C 2281.894531 1227.105469 2308.757812 1200.242188 2341.894531 1200.242188 C 2375.03125 1200.242188 2401.894531 1227.105469 2401.894531 1260.242188 Z M 2401.894531 1260.242188 "/>
<path fill-rule="nonzero" fill="rgb(58.4%, 34.5%, 69.8%)" fill-opacity="1" d="M 1568.875 1346.804688 C 1568.875 1379.941406 1542.011719 1406.804688 1508.875 1406.804688 C 1475.738281 1406.804688 1448.875 1379.941406 1448.875 1346.804688 C 1448.875 1313.667969 1475.738281 1286.804688 1508.875 1286.804688 C 1542.011719 1286.804688 1568.875 1313.667969 1568.875 1346.804688 Z M 1568.875 1346.804688 "/>
<path fill-rule="nonzero" fill="rgb(58.4%, 34.5%, 69.8%)" fill-opacity="1" d="M 1817.636719 1328.980469 C 1817.636719 1362.117188 1790.773438 1388.980469 1757.636719 1388.980469 C 1724.5 1388.980469 1697.636719 1362.117188 1697.636719 1328.980469 C 1697.636719 1295.84375 1724.5 1268.980469 1757.636719 1268.980469 C 1790.773438 1268.980469 1817.636719 1295.84375 1817.636719 1328.980469 Z M 1817.636719 1328.980469 "/>
<path fill-rule="nonzero" fill="rgb(58.4%, 34.5%, 69.8%)" fill-opacity="1" d="M 2034.15625 1375.046875 C 2034.15625 1408.183594 2007.292969 1435.046875 1974.15625 1435.046875 C 1941.019531 1435.046875 1914.15625 1408.183594 1914.15625 1375.046875 C 1914.15625 1341.910156 1941.019531 1315.046875 1974.15625 1315.046875 C 2007.292969 1315.046875 2034.15625 1341.910156 2034.15625 1375.046875 Z M 2034.15625 1375.046875 "/>
<path fill-rule="nonzero" fill="rgb(58.4%, 34.5%, 69.8%)" fill-opacity="1" d="M 2290.617188 1386.296875 C 2290.617188 1419.433594 2263.753906 1446.296875 2230.617188 1446.296875 C 2197.480469 1446.296875 2170.617188 1419.433594 2170.617188 1386.296875 C 2170.617188 1353.160156 2197.480469 1326.296875 2230.617188 1326.296875 C 2263.753906 1326.296875 2290.617188 1353.160156 2290.617188 1386.296875 Z M 2290.617188 1386.296875 "/>
<path fill-rule="nonzero" fill="rgb(58.4%, 34.5%, 69.8%)" fill-opacity="1" d="M 1716.492188 1457.234375 C 1716.492188 1490.371094 1689.628906 1517.234375 1656.492188 1517.234375 C 1623.355469 1517.234375 1596.492188 1490.371094 1596.492188 1457.234375 C 1596.492188 1424.097656 1623.355469 1397.234375 1656.492188 1397.234375 C 1689.628906 1397.234375 1716.492188 1424.097656 1716.492188 1457.234375 Z M 1716.492188 1457.234375 "/>
<path fill-rule="nonzero" fill="rgb(58.4%, 34.5%, 69.8%)" fill-opacity="1" d="M 1906.199219 1496.015625 C 1906.199219 1529.152344 1879.335938 1556.015625 1846.199219 1556.015625 C 1813.0625 1556.015625 1786.199219 1529.152344 1786.199219 1496.015625 C 1786.199219 1462.878906 1813.0625 1436.015625 1846.199219 1436.015625 C 1879.335938 1436.015625 1906.199219 1462.878906 1906.199219 1496.015625 Z M 1906.199219 1496.015625 "/>
<path fill-rule="nonzero" fill="rgb(58.4%, 34.5%, 69.8%)" fill-opacity="1" d="M 2154.75 1475.820312 C 2154.75 1508.957031 2127.886719 1535.820312 2094.75 1535.820312 C 2061.613281 1535.820312 2034.75 1508.957031 2034.75 1475.820312 C 2034.75 1442.683594 2061.613281 1415.820312 2094.75 1415.820312 C 2127.886719 1415.820312 2154.75 1442.683594 2154.75 1475.820312 Z M 2154.75 1475.820312 "/>
</svg>
