<?xml version="1.0" encoding="UTF-8"?>
<svg xmlns="http://www.w3.org/2000/svg" xmlns:xlink="http://www.w3.org/1999/xlink" width="3800" height="3800" viewBox="0 0 3800 3800">
<path fill-rule="nonzero" fill="rgb(79.6%, 23.5%, 20%)" fill-opacity="1" d="M 1710 2632.050781 C 1710 2665.1875 1683.136719 2692.050781 1650 2692.050781 C 1616.863281 2692.050781 1590 2665.1875 1590 2632.050781 C 1590 2598.914062 1616.863281 2572.050781 1650 2572.050781 C 1683.136719 2572.050781 1710 2598.914062 1710 2632.050781 Z M 1710 2632.050781 "/>
<path fill-rule="nonzero" fill="rgb(79.6%, 23.5%, 20%)" fill-opacity="1" d="M 1684.445312 2826.164062 C 1684.445312 2859.300781 1657.582031 2886.164062 1624.445312 2886.164062 C 1591.308594 2886.164062 1564.445312 2859.300781 1564.445312 2826.164062 C 1564.445312 2793.027344 1591.308594 2766.164062 1624.445312 2766.164062 C 1657.582031 2766.164062 1684.445312 2793.027344 1684.445312 2826.164062 Z M 1684.445312 2826.164062 "/>
<path fill-rule="nonzero" fill="rgb(79.6%, 23.5%, 20%)" fill-opacity="1" d="M 1609.519531 3007.050781 C 1609.519531 3040.1875 1582.65625 3067.050781 1549.519531 3067.050781 C 1516.382812 3067.050781 1489.519531 3040.1875 1489.519531 3007.050781 C 1489.519531 2973.914062 1516.382812 2947.050781 1549.519531 2947.050781 C 1582.65625 2947.050781 1609.519531 2973.914062 1609.519531 3007.050781 Z M 1609.519531 3007.050781 "/>
<path fill-rule="nonzero" fill="rgb(79.6%, 23.5%, 20%)" fill-opacity="1" d="M 1490.332031 3162.382812 C 1490.332031 3195.519531 1463.46875 3222.382812 1430.332031 3222.382812 C 1397.191406 3222.382812 1370.332031 3195.519531 1370.332031 3162.382812 C 1370.332031 3129.242188 1397.191406 3102.382812 1430.332031 3102.382812 C 1463.46875 3102.382812 1490.332031 3129.242188 1490.332031 3162.382812 Z M 1490.332031 3162.382812 "/>
<path fill-rule="nonzero" fill="rgb(79.6%, 23.5%, 20%)" fill-opacity="1" d="M 1335 3281.570312 C 1335 3314.707031 1308.136719 3341.570312 1275 3341.570312 C 1241.863281 3341.570312 1215 3314.707031 1215 3281.570312 C 1215 3248.433594 1241.863281 3221.570312 1275 3221.570312 C 1308.136719 3221.570312 1335 3248.433594 1335 3281.570312 Z M 1335 3281.570312 "/>
<path fill-rule="nonzero" fill="rgb(79.6%, 23.5%, 20%)" fill-opacity="1" d="M 1154.113281 3356.496094 C 1154.113281 3389.632812 1127.25 3416.496094 1094.113281 3416.496094 C 1060.976562 3416.496094 1034.113281 3389.632812 1034.113281 3356.496094 C 1034.113281 3323.359375 1060.976562 3296.496094 1094.113281 3296.496094 C 1127.25 3296.496094 1154.113281 3323.359375 1154.113281 3356.496094 Z M 1154.113281 3356.496094 "/>
<path fill-rule="nonzero" fill="rgb(79.6%, 23.5%, 20%)" fill-opacity="1" d="M 960 3382.050781 C 960 3415.1875 933.136719 3442.050781 900 3442.050781 C 866.863281 3442.050781 840 3415.1875 840 3382.050781 C 840 3348.914062 866.863281 3322.050781 900 3322.050781 C 933.136719 3322.050781 960 3348.914062 960 3382.050781 Z M 960 3382.050781 "/>
<path fill-rule="nonzero" fill="rgb(79.6%, 23.5%, 20%)" fill-opacity="1" d="M 765.886719 3356.496094 C 765.886719 3389.632812 739.023438 3416.496094 705.886719 3416.496094 C 672.75 3416.496094 645.886719 3389.632812 645.886719 3356.496094 C 645.886719 3323.359375 672.75 3296.496094 705.886719 3296.496094 C 739.023438 3296.496094 765.886719 3323.359375 765.886719 3356.496094 Z M 765.886719 3356.496094 "/>
<path fill-rule="nonzero" fill="rgb(79.6%, 23.5%, 20%)" fill-opacity="1" d="M 585 3281.570312 C 585 3314.707031 558.136719 3341.570312 525 3341.570312 C 491.863281 3341.570312 465 3314.707031 465 3281.570312 C 465 3248.433594 491.863281 3221.570312 525 3221.570312 C 558.136719 3221.570312 585 3248.433594 585 3281.570312 Z M 585 3281.570312 "/>
<path fill-rule="nonzero" fill="rgb(79.6%, 23.5%, 20%)" fill-opacity="1" d="M 429.667969 3162.382812 C 429.667969 3195.519531 402.808594 3222.382812 369.667969 3222.382812 C 336.53125 3222.382812 309.667969 3195.519531 309.667969 3162.382812 C 309.667969 3129.242188 336.53125 3102.382812 369.667969 3102.382812 C 402.808594 3102.382812 429.667969 3129.242188 429.667969 3162.382812 Z M 429.667969 3162.382812 "/>
<path fill-rule="nonzero" fill="rgb(79.6%, 23.5%, 20%)" fill-opacity="1" d="M 310.480469 3007.050781 C 310.480469 3040.1875 283.617188 3067.050781 250.480469 3067.050781 C 217.34375 3067.050781 190.480469 3040.1875 190.480469 3007.050781 C 190.480469 2973.914062 217.34375 2947.050781 250.480469 2947.050781 C 283.617188 2947.050781 310.480469 2973.914062 310.480469 3007.050781 Z M 310.480469 3007.050781 "/>
<path fill-rule="nonzero" fill="rgb(79.6%, 23.5%, 20%)" fill-opacity="1" d="M 235.554688 2826.164062 C 235.554688 2859.300781 208.691406 2886.164062 175.554688 2886.164062 C 142.417969 2886.164062 115.554688 2859.300781 115.554688 2826.164062 C 115.554688 2793.027344 142.417969 2766.164062 175.554688 2766.164062 C 208.691406 2766.164062 235.554688 2793.027344 235.554688 2826.164062 Z M 235.554688 2826.164062 "/>
<path fill-rule="nonzero" fill="rgb(79.6%, 23.5%, 20%)" fill-opacity="1" d="M 210 2632.050781 C 210 2665.1875 183.136719 2692.050781 150 2692.050781 C 116.863281 2692.050781 90 2665.1875 90 2632.050781 C 90 2598.914062 116.863281 2572.050781 150 2572.050781 C 183.136719 2572.050781 210 2598.914062 210 2632.050781 Z M 210 2632.050781 "/>
<path fill-rule="nonzero" fill="rgb(79.6%, 23.5%, 20%)" fill-opacity="1" d="M 235.554688 2437.9375 C 235.554688 2471.074219 208.691406 2497.9375 175.554688 2497.9375 C 142.417969 2497.9375 115.554688 2471.074219 115.554688 2437.9375 C 115.554688 2404.800781 142.417969 2377.9375 175.554688 2377.9375 C 208.691406 2377.9375 235.554688 2404.800781 235.554688 2437.9375 Z M 235.554688 2437.9375 "/>
<path fill-rule="nonzero" fill="rgb(79.6%, 23.5%, 20%)" fill-opacity="1" d="M 310.480469 2257.050781 C 310.480469 2290.1875 283.617188 2317.050781 250.480469 2317.050781 C 217.34375 2317.050781 190.480469 2290.1875 190.480469 2257.050781 C 190.480469 2223.914062 217.34375 2197.050781 250.480469 2197.050781 C 283.617188 2197.050781 310.480469 2223.914062 310.480469 2257.050781 Z M 310.480469 2257.050781 "/>
<path fill-rule="nonzero" fill="rgb(79.6%, 23.5%, 20%)" fill-opacity="1" d="M 429.667969 2101.722656 C 429.667969 2134.859375 402.808594 2161.722656 369.667969 2161.722656 C 336.53125 2161.722656 309.667969 2134.859375 309.667969 2101.722656 C 309.667969 2068.582031 336.53125 2041.722656 369.667969 2041.722656 C 402.808594 2041.722656 429.667969 2068.582031 429.667969 2101.722656 Z M 429.667969 2101.722656 "/>
<path fill-rule="nonzero" fill="rgb(79.6%, 23.5%, 20%)" fill-opacity="1" d="M 585 1982.53125 C 585 2015.667969 558.136719 2042.53125 525 2042.53125 C 491.863281 2042.53125 465 2015.667969 465 1982.53125 C 465 1949.394531 491.863281 1922.53125 525 1922.53125 C 558.136719 1922.53125 585 1949.394531 585 1982.53125 Z M 585 1982.53125 "/>
<path fill-rule="nonzero" fill="rgb(79.6%, 23.5%, 20%)" fill-opacity="1" d="M 765.886719 1907.605469 C 765.886719 1940.742188 739.023438 1967.605469 705.886719 1967.605469 C 672.75 1967.605469 645.886719 1940.742188 645.886719 1907.605469 C 645.886719 1874.46875 672.75 1847.605469 705.886719 1847.605469 C 739.023438 1847.605469 765.886719 1874.46875 765.886719 1907.605469 Z M 765.886719 1907.605469 "/>
<path fill-rule="nonzero" fill="rgb(79.6%, 23.5%, 20%)" fill-opacity="1" d="M 960 1882.050781 C 960 1915.1875 933.136719 1942.050781 900 1942.050781 C 866.863281 1942.050781 840 1915.1875 840 1882.050781 C 840 1848.914062 866.863281 1822.050781 900 1822.050781 C 933.136719 1822.050781 960 1848.914062 960 1882.050781 Z M 960 1882.050781 "/>
<path fill-rule="nonzero" fill="rgb(79.6%, 23.5%, 20%)" fill-opacity="1" d="M 1154.113281 1907.605469 C 1154.113281 1940.742188 1127.25 1967.605469 1094.113281 1967.605469 C 1060.976562 1967.605469 1034.113281 1940.742188 1034.113281 1907.605469 C 1034.113281 1874.46875 1060.976562 1847.605469 1094.113281 1847.605469 C 1127.25 1847.605469 1154.113281 1874.46875 1154.113281 1907.605469 Z M 1154.113281 1907.605469 "/>
<path fill-rule="nonzero" fill="rgb(79.6%, 23.5%, 20%)" fill-opacity="1" d="M 1335 1982.53125 C 1335 2015.667969 1308.136719 2042.53125 1275 2042.53125 C 1241.863281 2042.53125 1215 2015.667969 1215 1982.53125 C 1215 1949.394531 1241.863281 1922.53125 1275 1922.53125 C 1308.136719 1922.53125 1335 1949.394531 1335 1982.53125 Z M 1335 1982.53125 "/>
<path fill-rule="nonzero" fill="rgb(79.6%, 23.5%, 20%)" fill-opacity="1" d="M 1490.332031 2101.722656 C 1490.332031 2134.859375 1463.46875 2161.722656 1430.332031 2161.722656 C 1397.191406 2161.722656 1370.332031 2134.859375 1370.332031 2101.722656 C 1370.332031 2068.582031 1397.191406 2041.722656 1430.332031 2041.722656 C 1463.46875 2041.722656 1490.332031 2068.582031 1490.332031 2101.722656 Z M 1490.332031 2101.722656 "/>
<path fill-rule="nonzero" fill="rgb(79.6%, 23.5%, 20%)" fill-opacity="1" d="M 1609.519531 2257.050781 C 1609.519531 2290.1875 1582.65625 2317.050781 1549.519531 2317.050781 C 1516.382812 2317.050781 1489.519531 2290.1875 1489.519531 2257.050781 C 1489.519531 2223.914062 1516.382812 2197.050781 1549.519531 2197.050781 C 1582.65625 2197.050781 1609.519531 2223.914062 1609.519531 2257.050781 Z M 1609.519531 2257.050781 "/>
<path fill-rule="nonzero" fill="rgb(79.6%, 23.5%, 20%)" fill-opacity="1" d="M 1684.445312 2437.9375 C 1684.445312 2471.074219 1657.582031 2497.9375 1624.445312 2497.9375 C 1591.308594 2497.9375 1564.445312 2471.074219 1564.445312 2437.9375 C 1564.445312 2404.800781 1591.308594 2377.9375 1624.445312 2377.9375 C 1657.582031 2377.9375 1684.445312 2404.800781 1684.445312 2437.9375 Z M 1684.445312 2437.9375 "/>
<path fill-rule="nonzero" fill="rgb(79.6%, 23.5%, 20%)" fill-opacity="1" d="M 855.570312 2014.652344 C 855.570312 2047.789062 828.707031 2074.652344 795.570312 2074.652344 C 762.433594 2074.652344 735.570312 2047.789062 735.570312 2014.652344 C 735.570312 1981.515625 762.433594 1954.652344 795.570312 1954.652344 C 828.707031 1954.652344 855.570312 1981.515625 855.570312 2014.652344 Z M 855.570312 2014.652344 "/>
<path fill-rule="nonzero" fill="rgb(79.6%, 23.5%, 20%)" fill-opacity="1" d="M 1102.40625 2032.441406 C 1102.40625 2065.578125 1075.542969 2092.441406 1042.40625 2092.441406 C 1009.269531 2092.441406 982.40625 2065.578125 982.40625 2032.441406 C 982.40625 1999.304688 1009.269531 1972.441406 1042.40625 1972.441406 C 1075.542969 1972.441406 1102.40625 1999.304688 1102.40625 2032.441406 Z M 1102.40625 2032.441406 "/>
<path fill-rule="nonzero" fill="rgb(79.6%, 23.5%, 20%)" fill-opacity="1" d="M 589.746094 2043.78125 C 589.746094 2076.917969 562.882812 2103.78125 529.746094 2103.78125 C 496.609375 2103.78125 469.746094 2076.917969 469.746094 2043.78125 C 469.746094 2010.644531 496.609375 1983.78125 529.746094 1983.78125 C 562.882812 1983.78125 589.746094 2010.644531 589.746094 2043.78125 Z M 589.746094 2043.78125 "/>
<path fill-rule="nonzero" fill="rgb(79.6%, 23.5%, 20%)" fill-opacity="1" d="M 1273.292969 2109.863281 C 1273.292969 2143 1246.429688 2169.863281 1213.292969 2169.863281 C 1180.152344 2169.863281 1153.292969 2143 1153.292969 2109.863281 C 1153.292969 2076.726562 1180.152344 2049.863281 1213.292969 2049.863281 C 1246.429688 2049.863281 1273.292969 2076.726562 1273.292969 2109.863281 Z M 1273.292969 2109.863281 "/>
<path fill-rule="nonzero" fill="rgb(79.6%, 23.5%, 20%)" fill-opacity="1" d="M 741.644531 2163.871094 C 741.644531 2197.007812 714.78125 2223.871094 681.644531 2223.871094 C 648.507812 2223.871094 621.644531 2197.007812 621.644531 2163.871094 C 621.644531 2130.734375 648.507812 2103.871094 681.644531 2103.871094 C 714.78125 2103.871094 741.644531 2130.734375 741.644531 2163.871094 Z M 741.644531 2163.871094 "/>
<path fill-rule="nonzero" fill="rgb(79.6%, 23.5%, 20%)" fill-opacity="1" d="M 969.492188 2164.351562 C 969.492188 2197.488281 942.628906 2224.351562 909.492188 2224.351562 C 876.355469 2224.351562 849.492188 2197.488281 849.492188 2164.351562 C 849.492188 2131.214844 876.355469 2104.351562 909.492188 2104.351562 C 942.628906 2104.351562 969.492188 2131.214844 969.492188 2164.351562 Z M 969.492188 2164.351562 "/>
<path fill-rule="nonzero" fill="rgb(79.6%, 23.5%, 20%)" fill-opacity="1" d="M 475.824219 2193.667969 C 475.824219 2226.804688 448.960938 2253.667969 415.824219 2253.667969 C 382.6875 2253.667969 355.824219 2226.804688 355.824219 2193.667969 C 355.824219 2160.53125 382.6875 2133.667969 415.824219 2133.667969 C 448.960938 2133.667969 475.824219 2160.53125 475.824219 2193.667969 Z M 475.824219 2193.667969 "/>
<path fill-rule="nonzero" fill="rgb(79.6%, 23.5%, 20%)" fill-opacity="1" d="M 1425.191406 2218.652344 C 1425.191406 2251.789062 1398.328125 2278.652344 1365.191406 2278.652344 C 1332.054688 2278.652344 1305.191406 2251.789062 1305.191406 2218.652344 C 1305.191406 2185.515625 1332.054688 2158.652344 1365.191406 2158.652344 C 1398.328125 2158.652344 1425.191406 2185.515625 1425.191406 2218.652344 Z M 1425.191406 2218.652344 "/>
<path fill-rule="nonzero" fill="rgb(79.6%, 23.5%, 20%)" fill-opacity="1" d="M 1140.378906 2241.816406 C 1140.378906 2274.953125 1113.515625 2301.816406 1080.378906 2301.816406 C 1047.242188 2301.816406 1020.378906 2274.953125 1020.378906 2241.816406 C 1020.378906 2208.679688 1047.242188 2181.816406 1080.378906 2181.816406 C 1113.515625 2181.816406 1140.378906 2208.679688 1140.378906 2241.816406 Z M 1140.378906 2241.816406 "/>
<path fill-rule="nonzero" fill="rgb(79.6%, 23.5%, 20%)" fill-opacity="1" d="M 304.9375 2271.199219 C 304.9375 2304.335938 278.074219 2331.199219 244.9375 2331.199219 C 211.800781 2331.199219 184.9375 2304.335938 184.9375 2271.199219 C 184.9375 2238.058594 211.800781 2211.199219 244.9375 2211.199219 C 278.074219 2211.199219 304.9375 2238.058594 304.9375 2271.199219 Z M 304.9375 2271.199219 "/>
<path fill-rule="nonzero" fill="rgb(79.6%, 23.5%, 20%)" fill-opacity="1" d="M 855.570312 2312.496094 C 855.570312 2345.632812 828.707031 2372.496094 795.570312 2372.496094 C 762.433594 2372.496094 735.570312 2345.632812 735.570312 2312.496094 C 735.570312 2279.359375 762.433594 2252.496094 795.570312 2252.496094 C 828.707031 2252.496094 855.570312 2279.359375 855.570312 2312.496094 Z M 855.570312 2312.496094 "/>
<path fill-rule="nonzero" fill="rgb(79.6%, 23.5%, 20%)" fill-opacity="1" d="M 627.722656 2313.875 C 627.722656 2347.015625 600.859375 2373.875 567.722656 2373.875 C 534.585938 2373.875 507.722656 2347.015625 507.722656 2313.875 C 507.722656 2280.738281 534.585938 2253.875 567.722656 2253.875 C 600.859375 2253.875 627.722656 2280.738281 627.722656 2313.875 Z M 627.722656 2313.875 "/>
<path fill-rule="nonzero" fill="rgb(79.6%, 23.5%, 20%)" fill-opacity="1" d="M 1577.089844 2329.027344 C 1577.089844 2362.164062 1550.226562 2389.027344 1517.089844 2389.027344 C 1483.953125 2389.027344 1457.089844 2362.164062 1457.089844 2329.027344 C 1457.089844 2295.890625 1483.953125 2269.027344 1517.089844 2269.027344 C 1550.226562 2269.027344 1577.089844 2295.890625 1577.089844 2329.027344 Z M 1577.089844 2329.027344 "/>
<path fill-rule="nonzero" fill="rgb(79.6%, 23.5%, 20%)" fill-opacity="1" d="M 1292.277344 2351.296875 C 1292.277344 2384.433594 1265.414062 2411.296875 1232.277344 2411.296875 C 1199.140625 2411.296875 1172.277344 2384.433594 1172.277344 2351.296875 C 1172.277344 2318.160156 1199.140625 2291.296875 1232.277344 2291.296875 C 1265.414062 2291.296875 1292.277344 2318.160156 1292.277344 2351.296875 Z M 1292.277344 2351.296875 "/>
<path fill-rule="nonzero" fill="rgb(79.6%, 23.5%, 20%)" fill-opacity="1" d="M 456.835938 2389.988281 C 456.835938 2423.125 429.972656 2449.988281 396.835938 2449.988281 C 363.699219 2449.988281 336.835938 2423.125 336.835938 2389.988281 C 336.835938 2356.851562 363.699219 2329.988281 396.835938 2329.988281 C 429.972656 2329.988281 456.835938 2356.851562 456.835938 2389.988281 Z M 456.835938 2389.988281 "/>
<path fill-rule="nonzero" fill="rgb(79.6%, 23.5%, 20%)" fill-opacity="1" d="M 1026.457031 2390.566406 C 1026.457031 2423.703125 999.59375 2450.566406 966.457031 2450.566406 C 933.320312 2450.566406 906.457031 2423.703125 906.457031 2390.566406 C 906.457031 2357.429688 933.320312 2330.566406 966.457031 2330.566406 C 999.59375 2330.566406 1026.457031 2357.429688 1026.457031 2390.566406 Z M 1026.457031 2390.566406 "/>
<path fill-rule="nonzero" fill="rgb(79.6%, 23.5%, 20%)" fill-opacity="1" d="M 741.644531 2461.714844 C 741.644531 2494.851562 714.78125 2521.714844 681.644531 2521.714844 C 648.507812 2521.714844 621.644531 2494.851562 621.644531 2461.714844 C 621.644531 2428.578125 648.507812 2401.714844 681.644531 2401.714844 C 714.78125 2401.714844 741.644531 2428.578125 741.644531 2461.714844 Z M 741.644531 2461.714844 "/>
<path fill-rule="nonzero" fill="rgb(79.6%, 23.5%, 20%)" fill-opacity="1" d="M 1444.175781 2461.894531 C 1444.175781 2495.03125 1417.3125 2521.894531 1384.175781 2521.894531 C 1351.039062 2521.894531 1324.175781 2495.03125 1324.175781 2461.894531 C 1324.175781 2428.757812 1351.039062 2401.894531 1384.175781 2401.894531 C 1417.3125 2401.894531 1444.175781 2428.757812 1444.175781 2461.894531 Z M 1444.175781 2461.894531 "/>
<path fill-rule="nonzero" fill="rgb(79.6%, 23.5%, 20%)" fill-opacity="1" d="M 1178.355469 2500.457031 C 1178.355469 2533.59375 1151.492188 2560.457031 1118.355469 2560.457031 C 1085.21875 2560.457031 1058.355469 2533.59375 1058.355469 2500.457031 C 1058.355469 2467.316406 1085.21875 2440.457031 1118.355469 2440.457031 C 1151.492188 2440.457031 1178.355469 2467.316406 1178.355469 2500.457031 Z M 1178.355469 2500.457031 "/>
<path fill-rule="nonzero" fill="rgb(79.6%, 23.5%, 20%)" fill-opacity="1" d="M 912.53125 2539.40625 C 912.53125 2572.542969 885.667969 2599.40625 852.53125 2599.40625 C 819.394531 2599.40625 792.53125 2572.542969 792.53125 2539.40625 C 792.53125 2506.269531 819.394531 2479.40625 852.53125 2479.40625 C 885.667969 2479.40625 912.53125 2506.269531 912.53125 2539.40625 Z M 912.53125 2539.40625 "/>
<path fill-rule="nonzero" fill="rgb(79.6%, 23.5%, 20%)" fill-opacity="1" d="M 570.757812 2539.988281 C 570.757812 2573.125 543.898438 2599.988281 510.757812 2599.988281 C 477.621094 2599.988281 450.757812 2573.125 450.757812 2539.988281 C 450.757812 2506.851562 477.621094 2479.988281 510.757812 2479.988281 C 543.898438 2479.988281 570.757812 2506.851562 570.757812 2539.988281 Z M 570.757812 2539.988281 "/>
<path fill-rule="nonzero" fill="rgb(79.6%, 23.5%, 20%)" fill-opacity="1" d="M 361.898438 2551.710938 C 361.898438 2584.847656 335.035156 2611.710938 301.898438 2611.710938 C 268.761719 2611.710938 241.898438 2584.847656 241.898438 2551.710938 C 241.898438 2518.574219 268.761719 2491.710938 301.898438 2491.710938 C 335.035156 2491.710938 361.898438 2518.574219 361.898438 2551.710938 Z M 361.898438 2551.710938 "/>
<path fill-rule="nonzero" fill="rgb(79.6%, 23.5%, 20%)" fill-opacity="1" d="M 1577.089844 2593.53125 C 1577.089844 2626.671875 1550.226562 2653.53125 1517.089844 2653.53125 C 1483.953125 2653.53125 1457.089844 2626.671875 1457.089844 2593.53125 C 1457.089844 2560.394531 1483.953125 2533.53125 1517.089844 2533.53125 C 1550.226562 2533.53125 1577.089844 2560.394531 1577.089844 2593.53125 Z M 1577.089844 2593.53125 "/>
<path fill-rule="nonzero" fill="rgb(79.6%, 23.5%, 20%)" fill-opacity="1" d="M 1330.253906 2610.445312 C 1330.253906 2643.582031 1303.390625 2670.445312 1270.253906 2670.445312 C 1237.117188 2670.445312 1210.253906 2643.582031 1210.253906 2610.445312 C 1210.253906 2577.308594 1237.117188 2550.445312 1270.253906 2550.445312 C 1303.390625 2550.445312 1330.253906 2577.308594 1330.253906 2610.445312 Z M 1330.253906 2610.445312 "/>
<path fill-rule="nonzero" fill="rgb(79.6%, 23.5%, 20%)" fill-opacity="1" d="M 722.660156 2648.476562 C 722.660156 2681.613281 695.796875 2708.476562 662.660156 2708.476562 C 629.519531 2708.476562 602.660156 2681.613281 602.660156 2648.476562 C 602.660156 2615.339844 629.519531 2588.476562 662.660156 2588.476562 C 695.796875 2588.476562 722.660156 2615.339844 722.660156 2648.476562 Z M 722.660156 2648.476562 "/>
<path fill-rule="nonzero" fill="rgb(79.6%, 23.5%, 20%)" fill-opacity="1" d="M 1064.429688 2649.75 C 1064.429688 2682.886719 1037.566406 2709.75 1004.429688 2709.75 C 971.292969 2709.75 944.429688 2682.886719 944.429688 2649.75 C 944.429688 2616.613281 971.292969 2589.75 1004.429688 2589.75 C 1037.566406 2589.75 1064.429688 2616.613281 1064.429688 2649.75 Z M 1064.429688 2649.75 "/>
<path fill-rule="nonzero" fill="rgb(79.6%, 23.5%, 20%)" fill-opacity="1" d="M 475.824219 2700.929688 C 475.824219 2734.066406 448.960938 2760.929688 415.824219 2760.929688 C 382.6875 2760.929688 355.824219 2734.066406 355.824219 2700.929688 C 355.824219 2667.792969 382.6875 2640.929688 415.824219 2640.929688 C 448.960938 2640.929688 475.824219 2667.792969 475.824219 2700.929688 Z M 475.824219 2700.929688 "/>
<path fill-rule="nonzero" fill="rgb(79.6%, 23.5%, 20%)" fill-opacity="1" d="M 893.542969 2726.300781 C 893.542969 2759.4375 866.679688 2786.300781 833.542969 2786.300781 C 800.40625 2786.300781 773.542969 2759.4375 773.542969 2726.300781 C 773.542969 2693.164062 800.40625 2666.300781 833.542969 2666.300781 C 866.679688 2666.300781 893.542969 2693.164062 893.542969 2726.300781 Z M 893.542969 2726.300781 "/>
<path fill-rule="nonzero" fill="rgb(79.6%, 23.5%, 20%)" fill-opacity="1" d="M 1463.164062 2742.839844 C 1463.164062 2775.976562 1436.300781 2802.839844 1403.164062 2802.839844 C 1370.027344 2802.839844 1343.164062 2775.976562 1343.164062 2742.839844 C 1343.164062 2709.703125 1370.027344 2682.839844 1403.164062 2682.839844 C 1436.300781 2682.839844 1463.164062 2709.703125 1463.164062 2742.839844 Z M 1463.164062 2742.839844 "/>
<path fill-rule="nonzero" fill="rgb(79.6%, 23.5%, 20%)" fill-opacity="1" d="M 1216.328125 2758.546875 C 1216.328125 2791.683594 1189.464844 2818.546875 1156.328125 2818.546875 C 1123.191406 2818.546875 1096.328125 2791.683594 1096.328125 2758.546875 C 1096.328125 2725.410156 1123.191406 2698.546875 1156.328125 2698.546875 C 1189.464844 2698.546875 1216.328125 2725.410156 1216.328125 2758.546875 Z M 1216.328125 2758.546875 "/>
<path fill-rule="nonzero" fill="rgb(79.6%, 23.5%, 20%)" fill-opacity="1" d="M 323.925781 2810.304688 C 323.925781 2843.441406 297.0625 2870.304688 263.925781 2870.304688 C 230.785156 2870.304688 203.925781 2843.441406 203.925781 2810.304688 C 203.925781 2777.167969 230.785156 2750.304688 263.925781 2750.304688 C 297.0625 2750.304688 323.925781 2777.167969 323.925781 2810.304688 Z M 323.925781 2810.304688 "/>
<path fill-rule="nonzero" fill="rgb(79.6%, 23.5%, 20%)" fill-opacity="1" d="M 627.722656 2811.574219 C 627.722656 2844.710938 600.859375 2871.574219 567.722656 2871.574219 C 534.585938 2871.574219 507.722656 2844.710938 507.722656 2811.574219 C 507.722656 2778.4375 534.585938 2751.574219 567.722656 2751.574219 C 600.859375 2751.574219 627.722656 2778.4375 627.722656 2811.574219 Z M 627.722656 2811.574219 "/>
<path fill-rule="nonzero" fill="rgb(79.6%, 23.5%, 20%)" fill-opacity="1" d="M 1045.441406 2837.019531 C 1045.441406 2870.15625 1018.582031 2897.019531 985.441406 2897.019531 C 952.304688 2897.019531 925.441406 2870.15625 925.441406 2837.019531 C 925.441406 2803.882812 952.304688 2777.019531 985.441406 2777.019531 C 1018.582031 2777.019531 1045.441406 2803.882812 1045.441406 2837.019531 Z M 1045.441406 2837.019531 "/>
<path fill-rule="nonzero" fill="rgb(79.6%, 23.5%, 20%)" fill-opacity="1" d="M 1596.074219 2874.304688 C 1596.074219 2907.441406 1569.214844 2934.304688 1536.074219 2934.304688 C 1502.9375 2934.304688 1476.074219 2907.441406 1476.074219 2874.304688 C 1476.074219 2841.167969 1502.9375 2814.304688 1536.074219 2814.304688 C 1569.214844 2814.304688 1596.074219 2841.167969 1596.074219 2874.304688 Z M 1596.074219 2874.304688 "/>
<path fill-rule="nonzero" fill="rgb(79.6%, 23.5%, 20%)" fill-opacity="1" d="M 798.609375 2888.003906 C 798.609375 2921.140625 771.746094 2948.003906 738.609375 2948.003906 C 705.46875 2948.003906 678.609375 2921.140625 678.609375 2888.003906 C 678.609375 2854.867188 705.46875 2828.003906 738.609375 2828.003906 C 771.746094 2828.003906 798.609375 2854.867188 798.609375 2888.003906 Z M 798.609375 2888.003906 "/>
<path fill-rule="nonzero" fill="rgb(79.6%, 23.5%, 20%)" fill-opacity="1" d="M 1349.242188 2891.714844 C 1349.242188 2924.851562 1322.378906 2951.714844 1289.242188 2951.714844 C 1256.101562 2951.714844 1229.242188 2924.851562 1229.242188 2891.714844 C 1229.242188 2858.578125 1256.101562 2831.714844 1289.242188 2831.714844 C 1322.378906 2831.714844 1349.242188 2858.578125 1349.242188 2891.714844 Z M 1349.242188 2891.714844 "/>
<path fill-rule="nonzero" fill="rgb(79.6%, 23.5%, 20%)" fill-opacity="1" d="M 475.824219 2920.773438 C 475.824219 2953.910156 448.960938 2980.773438 415.824219 2980.773438 C 382.6875 2980.773438 355.824219 2953.910156 355.824219 2920.773438 C 355.824219 2887.636719 382.6875 2860.773438 415.824219 2860.773438 C 448.960938 2860.773438 475.824219 2887.636719 475.824219 2920.773438 Z M 475.824219 2920.773438 "/>
<path fill-rule="nonzero" fill="rgb(79.6%, 23.5%, 20%)" fill-opacity="1" d="M 1178.355469 2968.714844 C 1178.355469 3001.851562 1151.492188 3028.714844 1118.355469 3028.714844 C 1085.21875 3028.714844 1058.355469 3001.851562 1058.355469 2968.714844 C 1058.355469 2935.578125 1085.21875 2908.714844 1118.355469 2908.714844 C 1151.492188 2908.714844 1178.355469 2935.578125 1178.355469 2968.714844 Z M 1178.355469 2968.714844 "/>
<path fill-rule="nonzero" fill="rgb(79.6%, 23.5%, 20%)" fill-opacity="1" d="M 646.707031 2998.089844 C 646.707031 3031.226562 619.847656 3058.089844 586.707031 3058.089844 C 553.570312 3058.089844 526.707031 3031.226562 526.707031 2998.089844 C 526.707031 2964.953125 553.570312 2938.089844 586.707031 2938.089844 C 619.847656 2938.089844 646.707031 2964.953125 646.707031 2998.089844 Z M 646.707031 2998.089844 "/>
<path fill-rule="nonzero" fill="rgb(79.6%, 23.5%, 20%)" fill-opacity="1" d="M 950.507812 2998.601562 C 950.507812 3031.738281 923.644531 3058.601562 890.507812 3058.601562 C 857.371094 3058.601562 830.507812 3031.738281 830.507812 2998.601562 C 830.507812 2965.464844 857.371094 2938.601562 890.507812 2938.601562 C 923.644531 2938.601562 950.507812 2965.464844 950.507812 2998.601562 Z M 950.507812 2998.601562 "/>
<path fill-rule="nonzero" fill="rgb(79.6%, 23.5%, 20%)" fill-opacity="1" d="M 1482.152344 3023.804688 C 1482.152344 3056.941406 1455.289062 3083.804688 1422.152344 3083.804688 C 1389.015625 3083.804688 1362.152344 3056.941406 1362.152344 3023.804688 C 1362.152344 2990.667969 1389.015625 2963.804688 1422.152344 2963.804688 C 1455.289062 2963.804688 1482.152344 2990.667969 1482.152344 3023.804688 Z M 1482.152344 3023.804688 "/>
<path fill-rule="nonzero" fill="rgb(79.6%, 23.5%, 20%)" fill-opacity="1" d="M 361.898438 3069.398438 C 361.898438 3102.535156 335.035156 3129.398438 301.898438 3129.398438 C 268.761719 3129.398438 241.898438 3102.535156 241.898438 3069.398438 C 241.898438 3036.261719 268.761719 3009.398438 301.898438 3009.398438 C 335.035156 3009.398438 361.898438 3036.261719 361.898438 3069.398438 Z M 361.898438 3069.398438 "/>
<path fill-rule="nonzero" fill="rgb(79.6%, 23.5%, 20%)" fill-opacity="1" d="M 1311.265625 3101.480469 C 1311.265625 3134.617188 1284.402344 3161.480469 1251.265625 3161.480469 C 1218.128906 3161.480469 1191.265625 3134.617188 1191.265625 3101.480469 C 1191.265625 3068.339844 1218.128906 3041.480469 1251.265625 3041.480469 C 1284.402344 3041.480469 1311.265625 3068.339844 1311.265625 3101.480469 Z M 1311.265625 3101.480469 "/>
<path fill-rule="nonzero" fill="rgb(79.6%, 23.5%, 20%)" fill-opacity="1" d="M 798.609375 3107.847656 C 798.609375 3140.984375 771.746094 3167.847656 738.609375 3167.847656 C 705.46875 3167.847656 678.609375 3140.984375 678.609375 3107.847656 C 678.609375 3074.710938 705.46875 3047.847656 738.609375 3047.847656 C 771.746094 3047.847656 798.609375 3074.710938 798.609375 3107.847656 Z M 798.609375 3107.847656 "/>
<path fill-rule="nonzero" fill="rgb(79.6%, 23.5%, 20%)" fill-opacity="1" d="M 1083.417969 3130.996094 C 1083.417969 3164.132812 1056.554688 3190.996094 1023.417969 3190.996094 C 990.28125 3190.996094 963.417969 3164.132812 963.417969 3130.996094 C 963.417969 3097.859375 990.28125 3070.996094 1023.417969 3070.996094 C 1056.554688 3070.996094 1083.417969 3097.859375 1083.417969 3130.996094 Z M 1083.417969 3130.996094 "/>
<path fill-rule="nonzero" fill="rgb(79.6%, 23.5%, 20%)" fill-opacity="1" d="M 532.785156 3146.207031 C 532.785156 3179.34375 505.921875 3206.207031 472.785156 3206.207031 C 439.648438 3206.207031 412.785156 3179.34375 412.785156 3146.207031 C 412.785156 3113.070312 439.648438 3086.207031 472.785156 3086.207031 C 505.921875 3086.207031 532.785156 3113.070312 532.785156 3146.207031 Z M 532.785156 3146.207031 "/>
<path fill-rule="nonzero" fill="rgb(79.6%, 23.5%, 20%)" fill-opacity="1" d="M 931.519531 3239.589844 C 931.519531 3272.726562 904.65625 3299.589844 871.519531 3299.589844 C 838.382812 3299.589844 811.519531 3272.726562 811.519531 3239.589844 C 811.519531 3206.453125 838.382812 3179.589844 871.519531 3179.589844 C 904.65625 3179.589844 931.519531 3206.453125 931.519531 3239.589844 Z M 931.519531 3239.589844 "/>
<path fill-rule="nonzero" fill="rgb(79.6%, 23.5%, 20%)" fill-opacity="1" d="M 684.683594 3257.414062 C 684.683594 3290.550781 657.820312 3317.414062 624.683594 3317.414062 C 591.546875 3317.414062 564.683594 3290.550781 564.683594 3257.414062 C 564.683594 3224.277344 591.546875 3197.414062 624.683594 3197.414062 C 657.820312 3197.414062 684.683594 3224.277344 684.683594 3257.414062 Z M 684.683594 3257.414062 "/>
<path fill-rule="nonzero" fill="rgb(79.6%, 23.5%, 20%)" fill-opacity="1" d="M 1216.328125 3261.90625 C 1216.328125 3295.042969 1189.464844 3321.90625 1156.328125 3321.90625 C 1123.191406 3321.90625 1096.328125 3295.042969 1096.328125 3261.90625 C 1096.328125 3228.765625 1123.191406 3201.90625 1156.328125 3201.90625 C 1189.464844 3201.90625 1216.328125 3228.765625 1216.328125 3261.90625 Z M 1216.328125 3261.90625 "/>
<path fill-rule="nonzero" fill="rgb(22%, 59.6%, 14.9%)" fill-opacity="1" d="M 3710 2632.050781 C 3710 2665.1875 3683.136719 2692.050781 3650 2692.050781 C 3616.863281 2692.050781 3590 2665.1875 3590 2632.050781 C 3590 2598.914062 3616.863281 2572.050781 3650 2572.050781 C 3683.136719 2572.050781 3710 2598.914062 3710 2632.050781 Z M 3710 2632.050781 "/>
<path fill-rule="nonzero" fill="rgb(22%, 59.6%, 14.9%)" fill-opacity="1" d="M 3684.445312 2826.164062 C 3684.445312 2859.300781 3657.582031 2886.164062 3624.445312 2886.164062 C 3591.308594 2886.164062 3564.445312 2859.300781 3564.445312 2826.164062 C 3564.445312 2793.027344 3591.308594 2766.164062 3624.445312 2766.164062 C 3657.582031 2766.164062 3684.445312 2793.027344 3684.445312 2826.164062 Z M 3684.445312 2826.164062 "/>
<path fill-rule="nonzero" fill="rgb(22%, 59.6%, 14.9%)" fill-opacity="1" d="M 3609.519531 3007.050781 C 3609.519531 3040.1875 3582.65625 3067.050781 3549.519531 3067.050781 C 3516.382812 3067.050781 3489.519531 3040.1875 3489.519531 3007.050781 C 3489.519531 2973.914062 3516.382812 2947.050781 3549.519531 2947.050781 C 3582.65625 2947.050781 3609.519531 2973.914062 3609.519531 3007.050781 Z M 3609.519531 3007.050781 "/>
<path fill-rule="nonzero" fill="rgb(22%, 59.6%, 14.9%)" fill-opacity="1" d="M 3490.332031 3162.382812 C 3490.332031 3195.519531 3463.46875 3222.382812 3430.332031 3222.382812 C 3397.191406 3222.382812 3370.332031 3195.519531 3370.332031 3162.382812 C 3370.332031 3129.242188 3397.191406 3102.382812 3430.332031 3102.382812 C 3463.46875 3102.382812 3490.332031 3129.242188 3490.332031 3162.382812 Z M 3490.332031 3162.382812 "/>
<path fill-rule="nonzero" fill="rgb(22%, 59.6%, 14.9%)" fill-opacity="1" d="M 3335 3281.570312 C 3335 3314.707031 3308.136719 3341.570312 3275 3341.570312 C 3241.863281 3341.570312 3215 3314.707031 3215 3281.570312 C 3215 3248.433594 3241.863281 3221.570312 3275 3221.570312 C 3308.136719 3221.570312 3335 3248.433594 3335 3281.570312 Z M 3335 3281.570312 "/>
<path fill-rule="nonzero" fill="rgb(22%, 59.6%, 14.9%)" fill-opacity="1" d="M 3154.113281 3356.496094 C 3154.113281 3389.632812 3127.25 3416.496094 3094.113281 3416.496094 C 3060.976562 3416.496094 3034.113281 3389.632812 3034.113281 3356.496094 C 3034.113281 3323.359375 3060.976562 3296.496094 3094.113281 3296.496094 C 3127.25 3296.496094 3154.113281 3323.359375 3154.113281 3356.496094 Z M 3154.113281 3356.496094 "/>
<path fill-rule="nonzero" fill="rgb(22%, 59.6%, 14.9%)" fill-opacity="1" d="M 2960 3382.050781 C 2960 3415.1875 2933.136719 3442.050781 2900 3442.050781 C 2866.863281 3442.050781 2840 3415.1875 2840 3382.050781 C 2840 3348.914062 2866.863281 3322.050781 2900 3322.050781 C 2933.136719 3322.050781 2960 3348.914062 2960 3382.050781 Z M 2960 3382.050781 "/>
<path fill-rule="nonzero" fill="rgb(22%, 59.6%, 14.9%)" fill-opacity="1" d="M 2765.886719 3356.496094 C 2765.886719 3389.632812 2739.023438 3416.496094 2705.886719 3416.496094 C 2672.75 3416.496094 2645.886719 3389.632812 2645.886719 3356.496094 C 2645.886719 3323.359375 2672.75 3296.496094 2705.886719 3296.496094 C 2739.023438 3296.496094 2765.886719 3323.359375 2765.886719 3356.496094 Z M 2765.886719 3356.496094 "/>
<path fill-rule="nonzero" fill="rgb(22%, 59.6%, 14.9%)" fill-opacity="1" d="M 2585 3281.570312 C 2585 3314.707031 2558.136719 3341.570312 2525 3341.570312 C 2491.863281 3341.570312 2465 3314.707031 2465 3281.570312 C 2465 3248.433594 2491.863281 3221.570312 2525 3221.570312 C 2558.136719 3221.570312 2585 3248.433594 2585 3281.570312 Z M 2585 3281.570312 "/>
<path fill-rule="nonzero" fill="rgb(22%, 59.6%, 14.9%)" fill-opacity="1" d="M 2429.667969 3162.382812 C 2429.667969 3195.519531 2402.808594 3222.382812 2369.667969 3222.382812 C 2336.53125 3222.382812 2309.667969 3195.519531 2309.667969 3162.382812 C 2309.667969 3129.242188 2336.53125 3102.382812 2369.667969 3102.382812 C 2402.808594 3102.382812 2429.667969 3129.242188 2429.667969 3162.382812 Z M 2429.667969 3162.382812 "/>
<path fill-rule="nonzero" fill="rgb(22%, 59.6%, 14.9%)" fill-opacity="1" d="M 2310.480469 3007.050781 C 2310.480469 3040.1875 2283.617188 3067.050781 2250.480469 3067.050781 C 2217.34375 3067.050781 2190.480469 3040.1875 2190.480469 3007.050781 C 2190.480469 2973.914062 2217.34375 2947.050781 2250.480469 2947.050781 C 2283.617188 2947.050781 2310.480469 2973.914062 2310.480469 3007.050781 Z M 2310.480469 3007.050781 "/>
<path fill-rule="nonzero" fill="rgb(22%, 59.6%, 14.9%)" fill-opacity="1" d="M 2235.554688 2826.164062 C 2235.554688 2859.300781 2208.691406 2886.164062 2175.554688 2886.164062 C 2142.417969 2886.164062 2115.554688 2859.300781 2115.554688 2826.164062 C 2115.554688 2793.027344 2142.417969 2766.164062 2175.554688 2766.164062 C 2208.691406 2766.164062 2235.554688 2793.027344 2235.554688 2826.164062 Z M 2235.554688 2826.164062 "/>
<path fill-rule="nonzero" fill="rgb(22%, 59.6%, 14.9%)" fill-opacity="1" d="M 2210 2632.050781 C 2210 2665.1875 2183.136719 2692.050781 2150 2692.050781 C 2116.863281 2692.050781 2090 2665.1875 2090 2632.050781 C 2090 2598.914062 2116.863281 2572.050781 2150 2572.050781 C 2183.136719 2572.050781 2210 2598.914062 2210 2632.050781 Z M 2210 2632.050781 "/>
<path fill-rule="nonzero" fill="rgb(22%, 59.6%, 14.9%)" fill-opacity="1" d="M 2235.554688 2437.9375 C 2235.554688 2471.074219 2208.691406 2497.9375 2175.554688 2497.9375 C 2142.417969 2497.9375 2115.554688 2471.074219 2115.554688 2437.9375 C 2115.554688 2404.800781 2142.417969 2377.9375 2175.554688 2377.9375 C 2208.691406 2377.9375 2235.554688 2404.800781 2235.554688 2437.9375 Z M 2235.554688 2437.9375 "/>
<path fill-rule="nonzero" fill="rgb(22%, 59.6%, 14.9%)" fill-opacity="1" d="M 2310.480469 2257.050781 C 2310.480469 2290.1875 2283.617188 2317.050781 2250.480469 2317.050781 C 2217.34375 2317.050781 2190.480469 2290.1875 2190.480469 2257.050781 C 2190.480469 2223.914062 2217.34375 2197.050781 2250.480469 2197.050781 C 2283.617188 2197.050781 2310.480469 2223.914062 2310.480469 2257.050781 Z M 2310.480469 2257.050781 "/>
<path fill-rule="nonzero" fill="rgb(22%, 59.6%, 14.9%)" fill-opacity="1" d="M 2429.667969 2101.722656 C 2429.667969 2134.859375 2402.808594 2161.722656 2369.667969 2161.722656 C 2336.53125 2161.722656 2309.667969 2134.859375 2309.667969 2101.722656 C 2309.667969 2068.582031 2336.53125 2041.722656 2369.667969 2041.722656 C 2402.808594 2041.722656 2429.667969 2068.582031 2429.667969 2101.722656 Z M 2429.667969 2101.722656 "/>
<path fill-rule="nonzero" fill="rgb(22%, 59.6%, 14.9%)" fill-opacity="1" d="M 2585 1982.53125 C 2585 2015.667969 2558.136719 2042.53125 2525 2042.53125 C 2491.863281 2042.53125 2465 2015.667969 2465 1982.53125 C 2465 1949.394531 2491.863281 1922.53125 2525 1922.53125 C 2558.136719 1922.53125 2585 1949.394531 2585 1982.53125 Z M 2585 1982.53125 "/>
<path fill-rule="nonzero" fill="rgb(22%, 59.6%, 14.9%)" fill-opacity="1" d="M 2765.886719 1907.605469 C 2765.886719 1940.742188 2739.023438 1967.605469 2705.886719 1967.605469 C 2672.75 1967.605469 2645.886719 1940.742188 2645.886719 1907.605469 C 2645.886719 1874.46875 2672.75 1847.605469 2705.886719 1847.605469 C 2739.023438 1847.605469 2765.886719 1874.46875 2765.886719 1907.605469 Z M 2765.886719 1907.605469 "/>
<path fill-rule="nonzero" fill="rgb(22%, 59.6%, 14.9%)" fill-opacity="1" d="M 2960 1882.050781 C 2960 1915.1875 2933.136719 1942.050781 2900 1942.050781 C 2866.863281 1942.050781 2840 1915.1875 2840 1882.050781 C 2840 1848.914062 2866.863281 1822.050781 2900 1822.050781 C 2933.136719 1822.050781 2960 1848.914062 2960 1882.050781 Z M 2960 1882.050781 "/>
<path fill-rule="nonzero" fill="rgb(22%, 59.6%, 14.9%)" fill-opacity="1" d="M 3154.113281 1907.605469 C 3154.113281 1940.742188 3127.25 1967.605469 3094.113281 1967.605469 C 3060.976562 1967.605469 3034.113281 1940.742188 3034.113281 1907.605469 C 3034.113281 1874.46875 3060.976562 1847.605469 3094.113281 1847.605469 C 3127.25 1847.605469 3154.113281 1874.46875 3154.113281 1907.605469 Z M 3154.113281 1907.605469 "/>
<path fill-rule="nonzero" fill="rgb(22%, 59.6%, 14.9%)" fill-opacity="1" d="M 3335 1982.53125 C 3335 2015.667969 3308.136719 2042.53125 3275 2042.53125 C 3241.863281 2042.53125 3215 2015.667969 3215 1982.53125 C 3215 1949.394531 3241.863281 1922.53125 3275 1922.53125 C 3308.136719 1922.53125 3335 1949.394531 3335 1982.53125 Z M 3335 1982.53125 "/>
<path fill-rule="nonzero" fill="rgb(22%, 59.6%, 14.9%)" fill-opacity="1" d="M 3490.332031 2101.722656 C 3490.332031 2134.859375 3463.46875 2161.722656 3430.332031 2161.722656 C 3397.191406 2161.722656 3370.332031 2134.859375 3370.332031 2101.722656 C 3370.332031 2068.582031 3397.191406 2041.722656 3430.332031 2041.722656 C 3463.46875 2041.722656 3490.332031 2068.582031 3490.332031 2101.722656 Z M 3490.332031 2101.722656 "/>
<path fill-rule="nonzero" fill="rgb(22%, 59.6%, 14.9%)" fill-opacity="1" d="M 3609.519531 2257.050781 C 3609.519531 2290.1875 3582.65625 2317.050781 3549.519531 2317.050781 C 3516.382812 2317.050781 3489.519531 2290.1875 3489.519531 2257.050781 C 3489.519531 2223.914062 3516.382812 2197.050781 3549.519531 2197.050781 C 3582.65625 2197.050781 3609.519531 2223.914062 3609.519531 2257.050781 Z M 3609.519531 2257.050781 "/>
<path fill-rule="nonzero" fill="rgb(22%, 59.6%, 14.9%)" fill-opacity="1" d="M 3684.445312 2437.9375 C 3684.445312 2471.074219 3657.582031 2497.9375 3624.445312 2497.9375 C 3591.308594 2497.9375 3564.445312 2471.074219 3564.445312 2437.9375 C 3564.445312 2404.800781 3591.308594 2377.9375 3624.445312 2377.9375 C 3657.582031 2377.9375 3684.445312 2404.800781 3684.445312 2437.9375 Z M 3684.445312 2437.9375 "/>
<path fill-rule="nonzero" fill="rgb(22%, 59.6%, 14.9%)" fill-opacity="1" d="M 2551.773438 2016.011719 C 2551.773438 2049.148438 2524.910156 2076.011719 2491.773438 2076.011719 C 2458.636719 2076.011719 2431.773438 2049.148438 2431.773438 2016.011719 C 2431.773438 1982.875 2458.636719 1956.011719 2491.773438 1956.011719 C 2524.910156 1956.011719 2551.773438 1982.875 2551.773438 2016.011719 Z M 2551.773438 2016.011719 "/>
<path fill-rule="nonzero" fill="rgb(22%, 59.6%, 14.9%)" fill-opacity="1" d="M 2988.480469 2032.757812 C 2988.480469 2065.894531 2961.617188 2092.757812 2928.480469 2092.757812 C 2895.34375 2092.757812 2868.480469 2065.894531 2868.480469 2032.757812 C 2868.480469 1999.621094 2895.34375 1972.757812 2928.480469 1972.757812 C 2961.617188 1972.757812 2988.480469 1999.621094 2988.480469 2032.757812 Z M 2988.480469 2032.757812 "/>
<path fill-rule="nonzero" fill="rgb(22%, 59.6%, 14.9%)" fill-opacity="1" d="M 3406.203125 2044.414062 C 3406.203125 2077.550781 3379.339844 2104.414062 3346.203125 2104.414062 C 3313.066406 2104.414062 3286.203125 2077.550781 3286.203125 2044.414062 C 3286.203125 2011.277344 3313.066406 1984.414062 3346.203125 1984.414062 C 3379.339844 1984.414062 3406.203125 2011.277344 3406.203125 2044.414062 Z M 3406.203125 2044.414062 "/>
<path fill-rule="nonzero" fill="rgb(22%, 59.6%, 14.9%)" fill-opacity="1" d="M 3216.328125 2044.699219 C 3216.328125 2077.839844 3189.464844 2104.699219 3156.328125 2104.699219 C 3123.191406 2104.699219 3096.328125 2077.839844 3096.328125 2044.699219 C 3096.328125 2011.5625 3123.191406 1984.699219 3156.328125 1984.699219 C 3189.464844 1984.699219 3216.328125 2011.5625 3216.328125 2044.699219 Z M 3216.328125 2044.699219 "/>
<path fill-rule="nonzero" fill="rgb(22%, 59.6%, 14.9%)" fill-opacity="1" d="M 2779.621094 2045.433594 C 2779.621094 2078.570312 2752.757812 2105.433594 2719.621094 2105.433594 C 2686.484375 2105.433594 2659.621094 2078.570312 2659.621094 2045.433594 C 2659.621094 2012.296875 2686.484375 1985.433594 2719.621094 1985.433594 C 2752.757812 1985.433594 2779.621094 2012.296875 2779.621094 2045.433594 Z M 2779.621094 2045.433594 "/>
<path fill-rule="nonzero" fill="rgb(22%, 59.6%, 14.9%)" fill-opacity="1" d="M 2456.835938 2177.386719 C 2456.835938 2210.523438 2429.972656 2237.386719 2396.835938 2237.386719 C 2363.699219 2237.386719 2336.835938 2210.523438 2336.835938 2177.386719 C 2336.835938 2144.246094 2363.699219 2117.386719 2396.835938 2117.386719 C 2429.972656 2117.386719 2456.835938 2144.246094 2456.835938 2177.386719 Z M 2456.835938 2177.386719 "/>
<path fill-rule="nonzero" fill="rgb(22%, 59.6%, 14.9%)" fill-opacity="1" d="M 2646.707031 2177.445312 C 2646.707031 2210.582031 2619.847656 2237.445312 2586.707031 2237.445312 C 2553.570312 2237.445312 2526.707031 2210.582031 2526.707031 2177.445312 C 2526.707031 2144.304688 2553.570312 2117.445312 2586.707031 2117.445312 C 2619.847656 2117.445312 2646.707031 2144.304688 2646.707031 2177.445312 Z M 2646.707031 2177.445312 "/>
<path fill-rule="nonzero" fill="rgb(22%, 59.6%, 14.9%)" fill-opacity="1" d="M 2893.542969 2193.078125 C 2893.542969 2226.214844 2866.679688 2253.078125 2833.542969 2253.078125 C 2800.40625 2253.078125 2773.542969 2226.214844 2773.542969 2193.078125 C 2773.542969 2159.941406 2800.40625 2133.078125 2833.542969 2133.078125 C 2866.679688 2133.078125 2893.542969 2159.941406 2893.542969 2193.078125 Z M 2893.542969 2193.078125 "/>
<path fill-rule="nonzero" fill="rgb(22%, 59.6%, 14.9%)" fill-opacity="1" d="M 3102.40625 2193.3125 C 3102.40625 2226.449219 3075.542969 2253.3125 3042.40625 2253.3125 C 3009.269531 2253.3125 2982.40625 2226.449219 2982.40625 2193.3125 C 2982.40625 2160.175781 3009.269531 2133.3125 3042.40625 2133.3125 C 3075.542969 2133.3125 3102.40625 2160.175781 3102.40625 2193.3125 Z M 3102.40625 2193.3125 "/>
<path fill-rule="nonzero" fill="rgb(22%, 59.6%, 14.9%)" fill-opacity="1" d="M 3501.140625 2205.457031 C 3501.140625 2238.59375 3474.277344 2265.457031 3441.140625 2265.457031 C 3408.003906 2265.457031 3381.140625 2238.59375 3381.140625 2205.457031 C 3381.140625 2172.320312 3408.003906 2145.457031 3441.140625 2145.457031 C 3474.277344 2145.457031 3501.140625 2172.320312 3501.140625 2205.457031 Z M 3501.140625 2205.457031 "/>
<path fill-rule="nonzero" fill="rgb(22%, 59.6%, 14.9%)" fill-opacity="1" d="M 3311.265625 2205.484375 C 3311.265625 2238.621094 3284.402344 2265.484375 3251.265625 2265.484375 C 3218.128906 2265.484375 3191.265625 2238.621094 3191.265625 2205.484375 C 3191.265625 2172.347656 3218.128906 2145.484375 3251.265625 2145.484375 C 3284.402344 2145.484375 3311.265625 2172.347656 3311.265625 2205.484375 Z M 3311.265625 2205.484375 "/>
<path fill-rule="nonzero" fill="rgb(22%, 59.6%, 14.9%)" fill-opacity="1" d="M 2760.632812 2325.019531 C 2760.632812 2358.15625 2733.769531 2385.019531 2700.632812 2385.019531 C 2667.496094 2385.019531 2640.632812 2358.15625 2640.632812 2325.019531 C 2640.632812 2291.882812 2667.496094 2265.019531 2700.632812 2265.019531 C 2733.769531 2265.019531 2760.632812 2291.882812 2760.632812 2325.019531 Z M 2760.632812 2325.019531 "/>
<path fill-rule="nonzero" fill="rgb(22%, 59.6%, 14.9%)" fill-opacity="1" d="M 2342.910156 2325.144531 C 2342.910156 2358.28125 2316.046875 2385.144531 2282.910156 2385.144531 C 2249.773438 2385.144531 2222.910156 2358.28125 2222.910156 2325.144531 C 2222.910156 2292.007812 2249.773438 2265.144531 2282.910156 2265.144531 C 2316.046875 2265.144531 2342.910156 2292.007812 2342.910156 2325.144531 Z M 2342.910156 2325.144531 "/>
<path fill-rule="nonzero" fill="rgb(22%, 59.6%, 14.9%)" fill-opacity="1" d="M 2551.773438 2339.390625 C 2551.773438 2372.527344 2524.910156 2399.390625 2491.773438 2399.390625 C 2458.636719 2399.390625 2431.773438 2372.527344 2431.773438 2339.390625 C 2431.773438 2306.253906 2458.636719 2279.390625 2491.773438 2279.390625 C 2524.910156 2279.390625 2551.773438 2306.253906 2551.773438 2339.390625 Z M 2551.773438 2339.390625 "/>
<path fill-rule="nonzero" fill="rgb(22%, 59.6%, 14.9%)" fill-opacity="1" d="M 3007.46875 2355.183594 C 3007.46875 2388.320312 2980.605469 2415.183594 2947.46875 2415.183594 C 2914.332031 2415.183594 2887.46875 2388.320312 2887.46875 2355.183594 C 2887.46875 2322.046875 2914.332031 2295.183594 2947.46875 2295.183594 C 2980.605469 2295.183594 3007.46875 2322.046875 3007.46875 2355.183594 Z M 3007.46875 2355.183594 "/>
<path fill-rule="nonzero" fill="rgb(22%, 59.6%, 14.9%)" fill-opacity="1" d="M 3197.339844 2355.820312 C 3197.339844 2388.957031 3170.480469 2415.820312 3137.339844 2415.820312 C 3104.203125 2415.820312 3077.339844 2388.957031 3077.339844 2355.820312 C 3077.339844 2322.683594 3104.203125 2295.820312 3137.339844 2295.820312 C 3170.480469 2295.820312 3197.339844 2322.683594 3197.339844 2355.820312 Z M 3197.339844 2355.820312 "/>
<path fill-rule="nonzero" fill="rgb(22%, 59.6%, 14.9%)" fill-opacity="1" d="M 3406.203125 2367.792969 C 3406.203125 2400.929688 3379.339844 2427.792969 3346.203125 2427.792969 C 3313.066406 2427.792969 3286.203125 2400.929688 3286.203125 2367.792969 C 3286.203125 2334.65625 3313.066406 2307.792969 3346.203125 2307.792969 C 3379.339844 2307.792969 3406.203125 2334.65625 3406.203125 2367.792969 Z M 3406.203125 2367.792969 "/>
<path fill-rule="nonzero" fill="rgb(22%, 59.6%, 14.9%)" fill-opacity="1" d="M 3615.0625 2368.277344 C 3615.0625 2401.414062 3588.199219 2428.277344 3555.0625 2428.277344 C 3521.925781 2428.277344 3495.0625 2401.414062 3495.0625 2368.277344 C 3495.0625 2335.140625 3521.925781 2308.277344 3555.0625 2308.277344 C 3588.199219 2308.277344 3615.0625 2335.140625 3615.0625 2368.277344 Z M 3615.0625 2368.277344 "/>
<path fill-rule="nonzero" fill="rgb(22%, 59.6%, 14.9%)" fill-opacity="1" d="M 2874.558594 2486.863281 C 2874.558594 2520 2847.695312 2546.863281 2814.558594 2546.863281 C 2781.417969 2546.863281 2754.558594 2520 2754.558594 2486.863281 C 2754.558594 2453.726562 2781.417969 2426.863281 2814.558594 2426.863281 C 2847.695312 2426.863281 2874.558594 2453.726562 2874.558594 2486.863281 Z M 2874.558594 2486.863281 "/>
<path fill-rule="nonzero" fill="rgb(22%, 59.6%, 14.9%)" fill-opacity="1" d="M 2665.695312 2487.402344 C 2665.695312 2520.539062 2638.832031 2547.402344 2605.695312 2547.402344 C 2572.558594 2547.402344 2545.695312 2520.539062 2545.695312 2487.402344 C 2545.695312 2454.265625 2572.558594 2427.402344 2605.695312 2427.402344 C 2638.832031 2427.402344 2665.695312 2454.265625 2665.695312 2487.402344 Z M 2665.695312 2487.402344 "/>
<path fill-rule="nonzero" fill="rgb(22%, 59.6%, 14.9%)" fill-opacity="1" d="M 2437.847656 2488.160156 C 2437.847656 2521.296875 2410.984375 2548.160156 2377.847656 2548.160156 C 2344.710938 2548.160156 2317.847656 2521.296875 2317.847656 2488.160156 C 2317.847656 2455.023438 2344.710938 2428.160156 2377.847656 2428.160156 C 2410.984375 2428.160156 2437.847656 2455.023438 2437.847656 2488.160156 Z M 2437.847656 2488.160156 "/>
<path fill-rule="nonzero" fill="rgb(22%, 59.6%, 14.9%)" fill-opacity="1" d="M 3292.277344 2516.101562 C 3292.277344 2549.238281 3265.414062 2576.101562 3232.277344 2576.101562 C 3199.140625 2576.101562 3172.277344 2549.238281 3172.277344 2516.101562 C 3172.277344 2482.964844 3199.140625 2456.101562 3232.277344 2456.101562 C 3265.414062 2456.101562 3292.277344 2482.964844 3292.277344 2516.101562 Z M 3292.277344 2516.101562 "/>
<path fill-rule="nonzero" fill="rgb(22%, 59.6%, 14.9%)" fill-opacity="1" d="M 3102.40625 2516.6875 C 3102.40625 2549.824219 3075.542969 2576.6875 3042.40625 2576.6875 C 3009.269531 2576.6875 2982.40625 2549.824219 2982.40625 2516.6875 C 2982.40625 2483.550781 3009.269531 2456.6875 3042.40625 2456.6875 C 3075.542969 2456.6875 3102.40625 2483.550781 3102.40625 2516.6875 Z M 3102.40625 2516.6875 "/>
<path fill-rule="nonzero" fill="rgb(22%, 59.6%, 14.9%)" fill-opacity="1" d="M 3501.140625 2528.835938 C 3501.140625 2561.972656 3474.277344 2588.835938 3441.140625 2588.835938 C 3408.003906 2588.835938 3381.140625 2561.972656 3381.140625 2528.835938 C 3381.140625 2495.699219 3408.003906 2468.835938 3441.140625 2468.835938 C 3474.277344 2468.835938 3501.140625 2495.699219 3501.140625 2528.835938 Z M 3501.140625 2528.835938 "/>
<path fill-rule="nonzero" fill="rgb(22%, 59.6%, 14.9%)" fill-opacity="1" d="M 2304.9375 2620.082031 C 2304.9375 2653.222656 2278.074219 2680.082031 2244.9375 2680.082031 C 2211.800781 2680.082031 2184.9375 2653.222656 2184.9375 2620.082031 C 2184.9375 2586.945312 2211.800781 2560.082031 2244.9375 2560.082031 C 2278.074219 2560.082031 2304.9375 2586.945312 2304.9375 2620.082031 Z M 2304.9375 2620.082031 "/>
<path fill-rule="nonzero" fill="rgb(22%, 59.6%, 14.9%)" fill-opacity="1" d="M 2551.773438 2637.230469 C 2551.773438 2670.367188 2524.910156 2697.230469 2491.773438 2697.230469 C 2458.636719 2697.230469 2431.773438 2670.367188 2431.773438 2637.230469 C 2431.773438 2604.09375 2458.636719 2577.230469 2491.773438 2577.230469 C 2524.910156 2577.230469 2551.773438 2604.09375 2551.773438 2637.230469 Z M 2551.773438 2637.230469 "/>
<path fill-rule="nonzero" fill="rgb(22%, 59.6%, 14.9%)" fill-opacity="1" d="M 2760.632812 2648.394531 C 2760.632812 2681.53125 2733.769531 2708.394531 2700.632812 2708.394531 C 2667.496094 2708.394531 2640.632812 2681.53125 2640.632812 2648.394531 C 2640.632812 2615.257812 2667.496094 2588.394531 2700.632812 2588.394531 C 2733.769531 2588.394531 2760.632812 2615.257812 2760.632812 2648.394531 Z M 2760.632812 2648.394531 "/>
<path fill-rule="nonzero" fill="rgb(22%, 59.6%, 14.9%)" fill-opacity="1" d="M 2969.492188 2649.976562 C 2969.492188 2683.113281 2942.628906 2709.976562 2909.492188 2709.976562 C 2876.355469 2709.976562 2849.492188 2683.113281 2849.492188 2649.976562 C 2849.492188 2616.839844 2876.355469 2589.976562 2909.492188 2589.976562 C 2942.628906 2589.976562 2969.492188 2616.839844 2969.492188 2649.976562 Z M 2969.492188 2649.976562 "/>
<path fill-rule="nonzero" fill="rgb(22%, 59.6%, 14.9%)" fill-opacity="1" d="M 3387.214844 2677.976562 C 3387.214844 2711.113281 3360.351562 2737.976562 3327.214844 2737.976562 C 3294.078125 2737.976562 3267.214844 2711.113281 3267.214844 2677.976562 C 3267.214844 2644.839844 3294.078125 2617.976562 3327.214844 2617.976562 C 3360.351562 2617.976562 3387.214844 2644.839844 3387.214844 2677.976562 Z M 3387.214844 2677.976562 "/>
<path fill-rule="nonzero" fill="rgb(22%, 59.6%, 14.9%)" fill-opacity="1" d="M 3197.339844 2679.199219 C 3197.339844 2712.335938 3170.480469 2739.199219 3137.339844 2739.199219 C 3104.203125 2739.199219 3077.339844 2712.335938 3077.339844 2679.199219 C 3077.339844 2646.0625 3104.203125 2619.199219 3137.339844 2619.199219 C 3170.480469 2619.199219 3197.339844 2646.0625 3197.339844 2679.199219 Z M 3197.339844 2679.199219 "/>
<path fill-rule="nonzero" fill="rgb(22%, 59.6%, 14.9%)" fill-opacity="1" d="M 3615.0625 2691.65625 C 3615.0625 2724.792969 3588.199219 2751.65625 3555.0625 2751.65625 C 3521.925781 2751.65625 3495.0625 2724.792969 3495.0625 2691.65625 C 3495.0625 2658.519531 3521.925781 2631.65625 3555.0625 2631.65625 C 3588.199219 2631.65625 3615.0625 2658.519531 3615.0625 2691.65625 Z M 3615.0625 2691.65625 "/>
<path fill-rule="nonzero" fill="rgb(22%, 59.6%, 14.9%)" fill-opacity="1" d="M 2418.859375 2767.949219 C 2418.859375 2801.085938 2391.996094 2827.949219 2358.859375 2827.949219 C 2325.722656 2827.949219 2298.859375 2801.085938 2298.859375 2767.949219 C 2298.859375 2734.8125 2325.722656 2707.949219 2358.859375 2707.949219 C 2391.996094 2707.949219 2418.859375 2734.8125 2418.859375 2767.949219 Z M 2418.859375 2767.949219 "/>
<path fill-rule="nonzero" fill="rgb(22%, 59.6%, 14.9%)" fill-opacity="1" d="M 2646.707031 2798.664062 C 2646.707031 2831.800781 2619.847656 2858.664062 2586.707031 2858.664062 C 2553.570312 2858.664062 2526.707031 2831.800781 2526.707031 2798.664062 C 2526.707031 2765.527344 2553.570312 2738.664062 2586.707031 2738.664062 C 2619.847656 2738.664062 2646.707031 2765.527344 2646.707031 2798.664062 Z M 2646.707031 2798.664062 "/>
<path fill-rule="nonzero" fill="rgb(22%, 59.6%, 14.9%)" fill-opacity="1" d="M 2874.558594 2810.238281 C 2874.558594 2843.378906 2847.695312 2870.238281 2814.558594 2870.238281 C 2781.417969 2870.238281 2754.558594 2843.378906 2754.558594 2810.238281 C 2754.558594 2777.101562 2781.417969 2750.238281 2814.558594 2750.238281 C 2847.695312 2750.238281 2874.558594 2777.101562 2874.558594 2810.238281 Z M 2874.558594 2810.238281 "/>
<path fill-rule="nonzero" fill="rgb(22%, 59.6%, 14.9%)" fill-opacity="1" d="M 3064.429688 2811.054688 C 3064.429688 2844.191406 3037.566406 2871.054688 3004.429688 2871.054688 C 2971.292969 2871.054688 2944.429688 2844.191406 2944.429688 2811.054688 C 2944.429688 2777.914062 2971.292969 2751.054688 3004.429688 2751.054688 C 3037.566406 2751.054688 3064.429688 2777.914062 3064.429688 2811.054688 Z M 3064.429688 2811.054688 "/>
<path fill-rule="nonzero" fill="rgb(22%, 59.6%, 14.9%)" fill-opacity="1" d="M 3501.140625 2839.445312 C 3501.140625 2872.582031 3474.277344 2899.445312 3441.140625 2899.445312 C 3408.003906 2899.445312 3381.140625 2872.582031 3381.140625 2839.445312 C 3381.140625 2806.308594 3408.003906 2779.445312 3441.140625 2779.445312 C 3474.277344 2779.445312 3501.140625 2806.308594 3501.140625 2839.445312 Z M 3501.140625 2839.445312 "/>
<path fill-rule="nonzero" fill="rgb(22%, 59.6%, 14.9%)" fill-opacity="1" d="M 3292.277344 2839.476562 C 3292.277344 2872.617188 3265.414062 2899.476562 3232.277344 2899.476562 C 3199.140625 2899.476562 3172.277344 2872.617188 3172.277344 2839.476562 C 3172.277344 2806.339844 3199.140625 2779.476562 3232.277344 2779.476562 C 3265.414062 2779.476562 3292.277344 2806.339844 3292.277344 2839.476562 Z M 3292.277344 2839.476562 "/>
<path fill-rule="nonzero" fill="rgb(22%, 59.6%, 14.9%)" fill-opacity="1" d="M 2323.925781 2930.179688 C 2323.925781 2963.316406 2297.0625 2990.179688 2263.925781 2990.179688 C 2230.785156 2990.179688 2203.925781 2963.316406 2203.925781 2930.179688 C 2203.925781 2897.042969 2230.785156 2870.179688 2263.925781 2870.179688 C 2297.0625 2870.179688 2323.925781 2897.042969 2323.925781 2930.179688 Z M 2323.925781 2930.179688 "/>
<path fill-rule="nonzero" fill="rgb(22%, 59.6%, 14.9%)" fill-opacity="1" d="M 2513.796875 2930.25 C 2513.796875 2963.386719 2486.933594 2990.25 2453.796875 2990.25 C 2420.660156 2990.25 2393.796875 2963.386719 2393.796875 2930.25 C 2393.796875 2897.113281 2420.660156 2870.25 2453.796875 2870.25 C 2486.933594 2870.25 2513.796875 2897.113281 2513.796875 2930.25 Z M 2513.796875 2930.25 "/>
<path fill-rule="nonzero" fill="rgb(22%, 59.6%, 14.9%)" fill-opacity="1" d="M 2760.632812 2959.003906 C 2760.632812 2992.144531 2733.769531 3019.003906 2700.632812 3019.003906 C 2667.496094 3019.003906 2640.632812 2992.144531 2640.632812 2959.003906 C 2640.632812 2925.867188 2667.496094 2899.003906 2700.632812 2899.003906 C 2733.769531 2899.003906 2760.632812 2925.867188 2760.632812 2959.003906 Z M 2760.632812 2959.003906 "/>
<path fill-rule="nonzero" fill="rgb(22%, 59.6%, 14.9%)" fill-opacity="1" d="M 3159.367188 2971.800781 C 3159.367188 3004.9375 3132.503906 3031.800781 3099.367188 3031.800781 C 3066.230469 3031.800781 3039.367188 3004.9375 3039.367188 2971.800781 C 3039.367188 2938.664062 3066.230469 2911.800781 3099.367188 2911.800781 C 3132.503906 2911.800781 3159.367188 2938.664062 3159.367188 2971.800781 Z M 3159.367188 2971.800781 "/>
<path fill-rule="nonzero" fill="rgb(22%, 59.6%, 14.9%)" fill-opacity="1" d="M 2969.492188 2973.355469 C 2969.492188 3006.492188 2942.628906 3033.355469 2909.492188 3033.355469 C 2876.355469 3033.355469 2849.492188 3006.492188 2849.492188 2973.355469 C 2849.492188 2940.21875 2876.355469 2913.355469 2909.492188 2913.355469 C 2942.628906 2913.355469 2969.492188 2940.21875 2969.492188 2973.355469 Z M 2969.492188 2973.355469 "/>
<path fill-rule="nonzero" fill="rgb(22%, 59.6%, 14.9%)" fill-opacity="1" d="M 3387.214844 3001.351562 C 3387.214844 3034.492188 3360.351562 3061.351562 3327.214844 3061.351562 C 3294.078125 3061.351562 3267.214844 3034.492188 3267.214844 3001.351562 C 3267.214844 2968.214844 3294.078125 2941.351562 3327.214844 2941.351562 C 3360.351562 2941.351562 3387.214844 2968.214844 3387.214844 3001.351562 Z M 3387.214844 3001.351562 "/>
<path fill-rule="nonzero" fill="rgb(22%, 59.6%, 14.9%)" fill-opacity="1" d="M 3596.074219 3002.628906 C 3596.074219 3035.765625 3569.214844 3062.628906 3536.074219 3062.628906 C 3502.9375 3062.628906 3476.074219 3035.765625 3476.074219 3002.628906 C 3476.074219 2969.492188 3502.9375 2942.628906 3536.074219 2942.628906 C 3569.214844 2942.628906 3596.074219 2969.492188 3596.074219 3002.628906 Z M 3596.074219 3002.628906 "/>
<path fill-rule="nonzero" fill="rgb(22%, 59.6%, 14.9%)" fill-opacity="1" d="M 2418.859375 3091.324219 C 2418.859375 3124.460938 2391.996094 3151.324219 2358.859375 3151.324219 C 2325.722656 3151.324219 2298.859375 3124.460938 2298.859375 3091.324219 C 2298.859375 3058.1875 2325.722656 3031.324219 2358.859375 3031.324219 C 2391.996094 3031.324219 2418.859375 3058.1875 2418.859375 3091.324219 Z M 2418.859375 3091.324219 "/>
<path fill-rule="nonzero" fill="rgb(22%, 59.6%, 14.9%)" fill-opacity="1" d="M 2608.734375 3092.574219 C 2608.734375 3125.710938 2581.871094 3152.574219 2548.734375 3152.574219 C 2515.597656 3152.574219 2488.734375 3125.710938 2488.734375 3092.574219 C 2488.734375 3059.4375 2515.597656 3032.574219 2548.734375 3032.574219 C 2581.871094 3032.574219 2608.734375 3059.4375 2608.734375 3092.574219 Z M 2608.734375 3092.574219 "/>
<path fill-rule="nonzero" fill="rgb(22%, 59.6%, 14.9%)" fill-opacity="1" d="M 2855.570312 3122.226562 C 2855.570312 3155.363281 2828.707031 3182.226562 2795.570312 3182.226562 C 2762.433594 3182.226562 2735.570312 3155.363281 2735.570312 3122.226562 C 2735.570312 3089.089844 2762.433594 3062.226562 2795.570312 3062.226562 C 2828.707031 3062.226562 2855.570312 3089.089844 2855.570312 3122.226562 Z M 2855.570312 3122.226562 "/>
<path fill-rule="nonzero" fill="rgb(22%, 59.6%, 14.9%)" fill-opacity="1" d="M 3254.304688 3133.761719 C 3254.304688 3166.898438 3227.441406 3193.761719 3194.304688 3193.761719 C 3161.167969 3193.761719 3134.304688 3166.898438 3134.304688 3133.761719 C 3134.304688 3100.625 3161.167969 3073.761719 3194.304688 3073.761719 C 3227.441406 3073.761719 3254.304688 3100.625 3254.304688 3133.761719 Z M 3254.304688 3133.761719 "/>
<path fill-rule="nonzero" fill="rgb(22%, 59.6%, 14.9%)" fill-opacity="1" d="M 3064.429688 3134.429688 C 3064.429688 3167.566406 3037.566406 3194.429688 3004.429688 3194.429688 C 2971.292969 3194.429688 2944.429688 3167.566406 2944.429688 3134.429688 C 2944.429688 3101.292969 2971.292969 3074.429688 3004.429688 3074.429688 C 3037.566406 3074.429688 3064.429688 3101.292969 3064.429688 3134.429688 Z M 3064.429688 3134.429688 "/>
<path fill-rule="nonzero" fill="rgb(22%, 59.6%, 14.9%)" fill-opacity="1" d="M 2722.660156 3253.351562 C 2722.660156 3286.488281 2695.796875 3313.351562 2662.660156 3313.351562 C 2629.519531 3313.351562 2602.660156 3286.488281 2602.660156 3253.351562 C 2602.660156 3220.214844 2629.519531 3193.351562 2662.660156 3193.351562 C 2695.796875 3193.351562 2722.660156 3220.214844 2722.660156 3253.351562 Z M 2722.660156 3253.351562 "/>
<path fill-rule="nonzero" fill="rgb(22%, 59.6%, 14.9%)" fill-opacity="1" d="M 2950.507812 3282.925781 C 2950.507812 3316.0625 2923.644531 3342.925781 2890.507812 3342.925781 C 2857.371094 3342.925781 2830.507812 3316.0625 2830.507812 3282.925781 C 2830.507812 3249.789062 2857.371094 3222.925781 2890.507812 3222.925781 C 2923.644531 3222.925781 2950.507812 3249.789062 2950.507812 3282.925781 Z M 2950.507812 3282.925781 "/>
<path fill-rule="nonzero" fill="rgb(22%, 59.6%, 14.9%)" fill-opacity="1" d="M 3159.367188 3295.179688 C 3159.367188 3328.316406 3132.503906 3355.179688 3099.367188 3355.179688 C 3066.230469 3355.179688 3039.367188 3328.316406 3039.367188 3295.179688 C 3039.367188 3262.042969 3066.230469 3235.179688 3099.367188 3235.179688 C 3132.503906 3235.179688 3159.367188 3262.042969 3159.367188 3295.179688 Z M 3159.367188 3295.179688 "/>
<path fill-rule="nonzero" fill="rgb(58.4%, 34.5%, 69.8%)" fill-opacity="1" d="M 2710 900 C 2710 933.136719 2683.136719 960 2650 960 C 2616.863281 960 2590 933.136719 2590 900 C 2590 866.863281 2616.863281 840 2650 840 C 2683.136719 840 2710 866.863281 2710 900 Z M 2710 900 "/>
<path fill-rule="nonzero" fill="rgb(58.4%, 34.5%, 69.8%)" fill-opacity="1" d="M 2684.445312 1094.113281 C 2684.445312 1127.25 2657.582031 1154.113281 2624.445312 1154.113281 C 2591.308594 1154.113281 2564.445312 1127.25 2564.445312 1094.113281 C 2564.445312 1060.976562 2591.308594 1034.113281 2624.445312 1034.113281 C 2657.582031 1034.113281 2684.445312 1060.976562 2684.445312 1094.113281 Z M 2684.445312 1094.113281 "/>
<path fill-rule="nonzero" fill="rgb(58.4%, 34.5%, 69.8%)" fill-opacity="1" d="M 2609.519531 1275 C 2609.519531 1308.136719 2582.65625 1335 2549.519531 1335 C 2516.382812 1335 2489.519531 1308.136719 2489.519531 1275 C 2489.519531 1241.863281 2516.382812 1215 2549.519531 1215 C 2582.65625 1215 2609.519531 1241.863281 2609.519531 1275 Z M 2609.519531 1275 "/>
<path fill-rule="nonzero" fill="rgb(58.4%, 34.5%, 69.8%)" fill-opacity="1" d="M 2490.332031 1430.332031 C 2490.332031 1463.46875 2463.46875 1490.332031 2430.332031 1490.332031 C 2397.191406 1490.332031 2370.332031 1463.46875 2370.332031 1430.332031 C 2370.332031 1397.191406 2397.191406 1370.332031 2430.332031 1370.332031 C 2463.46875 1370.332031 2490.332031 1397.191406 2490.332031 1430.332031 Z M 2490.332031 1430.332031 "/>
<path fill-rule="nonzero" fill="rgb(58.4%, 34.5%, 69.8%)" fill-opacity="1" d="M 2335 1549.519531 C 2335 1582.65625 2308.136719 1609.519531 2275 1609.519531 C 2241.863281 1609.519531 2215 1582.65625 2215 1549.519531 C 2215 1516.382812 2241.863281 1489.519531 2275 1489.519531 C 2308.136719 1489.519531 2335 1516.382812 2335 1549.519531 Z M 2335 1549.519531 "/>
<path fill-rule="nonzero" fill="rgb(58.4%, 34.5%, 69.8%)" fill-opacity="1" d="M 2154.113281 1624.445312 C 2154.113281 1657.582031 2127.25 1684.445312 2094.113281 1684.445312 C 2060.976562 1684.445312 2034.113281 1657.582031 2034.113281 1624.445312 C 2034.113281 1591.308594 2060.976562 1564.445312 2094.113281 1564.445312 C 2127.25 1564.445312 2154.113281 1591.308594 2154.113281 1624.445312 Z M 2154.113281 1624.445312 "/>
<path fill-rule="nonzero" fill="rgb(58.4%, 34.5%, 69.8%)" fill-opacity="1" d="M 1960 1650 C 1960 1683.136719 1933.136719 1710 1900 1710 C 1866.863281 1710 1840 1683.136719 1840 1650 C 1840 1616.863281 1866.863281 1590 1900 1590 C 1933.136719 1590 1960 1616.863281 1960 1650 Z M 1960 1650 "/>
<path fill-rule="nonzero" fill="rgb(58.4%, 34.5%, 69.8%)" fill-opacity="1" d="M 1765.886719 1624.445312 C 1765.886719 1657.582031 1739.023438 1684.445312 1705.886719 1684.445312 C 1672.75 1684.445312 1645.886719 1657.582031 1645.886719 1624.445312 C 1645.886719 1591.308594 1672.75 1564.445312 1705.886719 1564.445312 C 1739.023438 1564.445312 1765.886719 1591.308594 1765.886719 1624.445312 Z M 1765.886719 1624.445312 "/>
<path fill-rule="nonzero" fill="rgb(58.4%, 34.5%, 69.8%)" fill-opacity="1" d="M 1585 1549.519531 C 1585 1582.65625 1558.136719 1609.519531 1525 1609.519531 C 1491.863281 1609.519531 1465 1582.65625 1465 1549.519531 C 1465 1516.382812 1491.863281 1489.519531 1525 1489.519531 C 1558.136719 1489.519531 1585 1516.382812 1585 1549.519531 Z M 1585 1549.519531 "/>
<path fill-rule="nonzero" fill="rgb(58.4%, 34.5%, 69.8%)" fill-opacity="1" d="M 1429.667969 1430.332031 C 1429.667969 1463.46875 1402.808594 1490.332031 1369.667969 1490.332031 C 1336.53125 1490.332031 1309.667969 1463.46875 1309.667969 1430.332031 C 1309.667969 1397.191406 1336.53125 1370.332031 1369.667969 1370.332031 C 1402.808594 1370.332031 1429.667969 1397.191406 1429.667969 1430.332031 Z M 1429.667969 1430.332031 "/>
<path fill-rule="nonzero" fill="rgb(58.4%, 34.5%, 69.8%)" fill-opacity="1" d="M 1310.480469 1275 C 1310.480469 1308.136719 1283.617188 1335 1250.480469 1335 C 1217.34375 1335 1190.480469 1308.136719 1190.480469 1275 C 1190.480469 1241.863281 1217.34375 1215 1250.480469 1215 C 1283.617188 1215 1310.480469 1241.863281 1310.480469 1275 Z M 1310.480469 1275 "/>
<path fill-rule="nonzero" fill="rgb(58.4%, 34.5%, 69.8%)" fill-opacity="1" d="M 1235.554688 1094.113281 C 1235.554688 1127.25 1208.691406 1154.113281 1175.554688 1154.113281 C 1142.417969 1154.113281 1115.554688 1127.25 1115.554688 1094.113281 C 1115.554688 1060.976562 1142.417969 1034.113281 1175.554688 1034.113281 C 1208.691406 1034.113281 1235.554688 1060.976562 1235.554688 1094.113281 Z M 1235.554688 1094.113281 "/>
<path fill-rule="nonzero" fill="rgb(58.4%, 34.5%, 69.8%)" fill-opacity="1" d="M 1210 900 C 1210 933.136719 1183.136719 960 1150 960 C 1116.863281 960 1090 933.136719 1090 900 C 1090 866.863281 1116.863281 840 1150 840 C 1183.136719 840 1210 866.863281 1210 900 Z M 1210 900 "/>
<path fill-rule="nonzero" fill="rgb(58.4%, 34.5%, 69.8%)" fill-opacity="1" d="M 1235.554688 705.886719 C 1235.554688 739.023438 1208.691406 765.886719 1175.554688 765.886719 C 1142.417969 765.886719 1115.554688 739.023438 1115.554688 705.886719 C 1115.554688 672.75 1142.417969 645.886719 1175.554688 645.886719 C 1208.691406 645.886719 1235.554688 672.75 1235.554688 705.886719 Z M 1235.554688 705.886719 "/>
<path fill-rule="nonzero" fill="rgb(58.4%, 34.5%, 69.8%)" fill-opacity="1" d="M 1310.480469 525 C 1310.480469 558.136719 1283.617188 585 1250.480469 585 C 1217.34375 585 1190.480469 558.136719 1190.480469 525 C 1190.480469 491.863281 1217.34375 465 1250.480469 465 C 1283.617188 465 1310.480469 491.863281 1310.480469 525 Z M 1310.480469 525 "/>
<path fill-rule="nonzero" fill="rgb(58.4%, 34.5%, 69.8%)" fill-opacity="1" d="M 1429.667969 369.667969 C 1429.667969 402.808594 1402.808594 429.667969 1369.667969 429.667969 C 1336.53125 429.667969 1309.667969 402.808594 1309.667969 369.667969 C 1309.667969 336.53125 1336.53125 309.667969 1369.667969 309.667969 C 1402.808594 309.667969 1429.667969 336.53125 1429.667969 369.667969 Z M 1429.667969 369.667969 "/>
<path fill-rule="nonzero" fill="rgb(58.4%, 34.5%, 69.8%)" fill-opacity="1" d="M 1585 250.480469 C 1585 283.617188 1558.136719 310.480469 1525 310.480469 C 1491.863281 310.480469 1465 283.617188 1465 250.480469 C 1465 217.34375 1491.863281 190.480469 1525 190.480469 C 1558.136719 190.480469 1585 217.34375 1585 250.480469 Z M 1585 250.480469 "/>
<path fill-rule="nonzero" fill="rgb(58.4%, 34.5%, 69.8%)" fill-opacity="1" d="M 1765.886719 175.554688 C 1765.886719 208.691406 1739.023438 235.554688 1705.886719 235.554688 C 1672.75 235.554688 1645.886719 208.691406 1645.886719 175.554688 C 1645.886719 142.417969 1672.75 115.554688 1705.886719 115.554688 C 1739.023438 115.554688 1765.886719 142.417969 1765.886719 175.554688 Z M 1765.886719 175.554688 "/>
<path fill-rule="nonzero" fill="rgb(58.4%, 34.5%, 69.8%)" fill-opacity="1" d="M 1960 150 C 1960 183.136719 1933.136719 210 1900 210 C 1866.863281 210 1840 183.136719 1840 150 C 1840 116.863281 1866.863281 90 1900 90 C 1933.136719 90 1960 116.863281 1960 150 Z M 1960 150 "/>
<path fill-rule="nonzero" fill="rgb(58.4%, 34.5%, 69.8%)" fill-opacity="1" d="M 2154.113281 175.554688 C 2154.113281 208.691406 2127.25 235.554688 2094.113281 235.554688 C 2060.976562 235.554688 2034.113281 208.691406 2034.113281 175.554688 C 2034.113281 142.417969 2060.976562 115.554688 2094.113281 115.554688 C 2127.25 115.554688 2154.113281 142.417969 2154.113281 175.554688 Z M 2154.113281 175.554688 "/>
<path fill-rule="nonzero" fill="rgb(58.4%, 34.5%, 69.8%)" fill-opacity="1" d="M 2335 250.480469 C 2335 283.617188 2308.136719 310.480469 2275 310.480469 C 2241.863281 310.480469 2215 283.617188 2215 250.480469 C 2215 217.34375 2241.863281 190.480469 2275 190.480469 C 2308.136719 190.480469 2335 217.34375 2335 250.480469 Z M 2335 250.480469 "/>
<path fill-rule="nonzero" fill="rgb(58.4%, 34.5%, 69.8%)" fill-opacity="1" d="M 2490.332031 369.667969 C 2490.332031 402.808594 2463.46875 429.667969 2430.332031 429.667969 C 2397.191406 429.667969 2370.332031 402.808594 2370.332031 369.667969 C 2370.332031 336.53125 2397.191406 309.667969 2430.332031 309.667969 C 2463.46875 309.667969 2490.332031 336.53125 2490.332031 369.667969 Z M 2490.332031 369.667969 "/>
<path fill-rule="nonzero" fill="rgb(58.4%, 34.5%, 69.8%)" fill-opacity="1" d="M 2609.519531 525 C 2609.519531 558.136719 2582.65625 585 2549.519531 585 C 2516.382812 585 2489.519531 558.136719 2489.519531 525 C 2489.519531 491.863281 2516.382812 465 2549.519531 465 C 2582.65625 465 2609.519531 491.863281 2609.519531 525 Z M 2609.519531 525 "/>
<path fill-rule="nonzero" fill="rgb(58.4%, 34.5%, 69.8%)" fill-opacity="1" d="M 2684.445312 705.886719 C 2684.445312 739.023438 2657.582031 765.886719 2624.445312 765.886719 C 2591.308594 765.886719 2564.445312 739.023438 2564.445312 705.886719 C 2564.445312 672.75 2591.308594 645.886719 2624.445312 645.886719 C 2657.582031 645.886719 2684.445312 672.75 2684.445312 705.886719 Z M 2684.445312 705.886719 "/>
<path fill-rule="nonzero" fill="rgb(58.4%, 34.5%, 69.8%)" fill-opacity="1" d="M 1950.507812 311.890625 C 1950.507812 345.027344 1923.644531 371.890625 1890.507812 371.890625 C 1857.371094 371.890625 1830.507812 345.027344 1830.507812 311.890625 C 1830.507812 278.753906 1857.371094 251.890625 1890.507812 251.890625 C 1923.644531 251.890625 1950.507812 278.753906 1950.507812 311.890625 Z M 1950.507812 311.890625 "/>
<path fill-rule="nonzero" fill="rgb(58.4%, 34.5%, 69.8%)" fill-opacity="1" d="M 1741.644531 312.535156 C 1741.644531 345.671875 1714.78125 372.535156 1681.644531 372.535156 C 1648.507812 372.535156 1621.644531 345.671875 1621.644531 312.535156 C 1621.644531 279.398438 1648.507812 252.535156 1681.644531 252.535156 C 1714.78125 252.535156 1741.644531 279.398438 1741.644531 312.535156 Z M 1741.644531 312.535156 "/>
<path fill-rule="nonzero" fill="rgb(58.4%, 34.5%, 69.8%)" fill-opacity="1" d="M 2349.242188 312.683594 C 2349.242188 345.820312 2322.378906 372.683594 2289.242188 372.683594 C 2256.101562 372.683594 2229.242188 345.820312 2229.242188 312.683594 C 2229.242188 279.546875 2256.101562 252.683594 2289.242188 252.683594 C 2322.378906 252.683594 2349.242188 279.546875 2349.242188 312.683594 Z M 2349.242188 312.683594 "/>
<path fill-rule="nonzero" fill="rgb(58.4%, 34.5%, 69.8%)" fill-opacity="1" d="M 2159.367188 312.886719 C 2159.367188 346.023438 2132.503906 372.886719 2099.367188 372.886719 C 2066.230469 372.886719 2039.367188 346.023438 2039.367188 312.886719 C 2039.367188 279.75 2066.230469 252.886719 2099.367188 252.886719 C 2132.503906 252.886719 2159.367188 279.75 2159.367188 312.886719 Z M 2159.367188 312.886719 "/>
<path fill-rule="nonzero" fill="rgb(58.4%, 34.5%, 69.8%)" fill-opacity="1" d="M 1589.746094 422.992188 C 1589.746094 456.128906 1562.882812 482.992188 1529.746094 482.992188 C 1496.609375 482.992188 1469.746094 456.128906 1469.746094 422.992188 C 1469.746094 389.855469 1496.609375 362.992188 1529.746094 362.992188 C 1562.882812 362.992188 1589.746094 389.855469 1589.746094 422.992188 Z M 1589.746094 422.992188 "/>
<path fill-rule="nonzero" fill="rgb(58.4%, 34.5%, 69.8%)" fill-opacity="1" d="M 2444.175781 473.382812 C 2444.175781 506.519531 2417.3125 533.382812 2384.175781 533.382812 C 2351.039062 533.382812 2324.175781 506.519531 2324.175781 473.382812 C 2324.175781 440.242188 2351.039062 413.382812 2384.175781 413.382812 C 2417.3125 413.382812 2444.175781 440.242188 2444.175781 473.382812 Z M 2444.175781 473.382812 "/>
<path fill-rule="nonzero" fill="rgb(58.4%, 34.5%, 69.8%)" fill-opacity="1" d="M 2045.441406 473.410156 C 2045.441406 506.550781 2018.582031 533.410156 1985.441406 533.410156 C 1952.304688 533.410156 1925.441406 506.550781 1925.441406 473.410156 C 1925.441406 440.273438 1952.304688 413.410156 1985.441406 413.410156 C 2018.582031 413.410156 2045.441406 440.273438 2045.441406 473.410156 Z M 2045.441406 473.410156 "/>
<path fill-rule="nonzero" fill="rgb(58.4%, 34.5%, 69.8%)" fill-opacity="1" d="M 1855.570312 474.746094 C 1855.570312 507.882812 1828.707031 534.746094 1795.570312 534.746094 C 1762.433594 534.746094 1735.570312 507.882812 1735.570312 474.746094 C 1735.570312 441.609375 1762.433594 414.746094 1795.570312 414.746094 C 1828.707031 414.746094 1855.570312 441.609375 1855.570312 474.746094 Z M 1855.570312 474.746094 "/>
<path fill-rule="nonzero" fill="rgb(58.4%, 34.5%, 69.8%)" fill-opacity="1" d="M 2254.304688 474.972656 C 2254.304688 508.109375 2227.441406 534.972656 2194.304688 534.972656 C 2161.167969 534.972656 2134.304688 508.109375 2134.304688 474.972656 C 2134.304688 441.835938 2161.167969 414.972656 2194.304688 414.972656 C 2227.441406 414.972656 2254.304688 441.835938 2254.304688 474.972656 Z M 2254.304688 474.972656 "/>
<path fill-rule="nonzero" fill="rgb(58.4%, 34.5%, 69.8%)" fill-opacity="1" d="M 2615.0625 550.621094 C 2615.0625 583.757812 2588.199219 610.621094 2555.0625 610.621094 C 2521.925781 610.621094 2495.0625 583.757812 2495.0625 550.621094 C 2495.0625 517.484375 2521.925781 490.621094 2555.0625 490.621094 C 2588.199219 490.621094 2615.0625 517.484375 2615.0625 550.621094 Z M 2615.0625 550.621094 "/>
<path fill-rule="nonzero" fill="rgb(58.4%, 34.5%, 69.8%)" fill-opacity="1" d="M 1456.835938 555.0625 C 1456.835938 588.199219 1429.972656 615.0625 1396.835938 615.0625 C 1363.699219 615.0625 1336.835938 588.199219 1336.835938 555.0625 C 1336.835938 521.925781 1363.699219 495.0625 1396.835938 495.0625 C 1429.972656 495.0625 1456.835938 521.925781 1456.835938 555.0625 Z M 1456.835938 555.0625 "/>
<path fill-rule="nonzero" fill="rgb(58.4%, 34.5%, 69.8%)" fill-opacity="1" d="M 1703.671875 583.484375 C 1703.671875 616.621094 1676.808594 643.484375 1643.671875 643.484375 C 1610.535156 643.484375 1583.671875 616.621094 1583.671875 583.484375 C 1583.671875 550.347656 1610.535156 523.484375 1643.671875 523.484375 C 1676.808594 523.484375 1703.671875 550.347656 1703.671875 583.484375 Z M 1703.671875 583.484375 "/>
<path fill-rule="nonzero" fill="rgb(58.4%, 34.5%, 69.8%)" fill-opacity="1" d="M 1950.507812 635.269531 C 1950.507812 668.40625 1923.644531 695.269531 1890.507812 695.269531 C 1857.371094 695.269531 1830.507812 668.40625 1830.507812 635.269531 C 1830.507812 602.132812 1857.371094 575.269531 1890.507812 575.269531 C 1923.644531 575.269531 1950.507812 602.132812 1950.507812 635.269531 Z M 1950.507812 635.269531 "/>
<path fill-rule="nonzero" fill="rgb(58.4%, 34.5%, 69.8%)" fill-opacity="1" d="M 2349.242188 636.058594 C 2349.242188 669.195312 2322.378906 696.058594 2289.242188 696.058594 C 2256.101562 696.058594 2229.242188 669.195312 2229.242188 636.058594 C 2229.242188 602.921875 2256.101562 576.058594 2289.242188 576.058594 C 2322.378906 576.058594 2349.242188 602.921875 2349.242188 636.058594 Z M 2349.242188 636.058594 "/>
<path fill-rule="nonzero" fill="rgb(58.4%, 34.5%, 69.8%)" fill-opacity="1" d="M 2159.367188 636.265625 C 2159.367188 669.402344 2132.503906 696.265625 2099.367188 696.265625 C 2066.230469 696.265625 2039.367188 669.402344 2039.367188 636.265625 C 2039.367188 603.125 2066.230469 576.265625 2099.367188 576.265625 C 2132.503906 576.265625 2159.367188 603.125 2159.367188 636.265625 Z M 2159.367188 636.265625 "/>
<path fill-rule="nonzero" fill="rgb(58.4%, 34.5%, 69.8%)" fill-opacity="1" d="M 1304.9375 664.011719 C 1304.9375 697.148438 1278.074219 724.011719 1244.9375 724.011719 C 1211.800781 724.011719 1184.9375 697.148438 1184.9375 664.011719 C 1184.9375 630.875 1211.800781 604.011719 1244.9375 604.011719 C 1278.074219 604.011719 1304.9375 630.875 1304.9375 664.011719 Z M 1304.9375 664.011719 "/>
<path fill-rule="nonzero" fill="rgb(58.4%, 34.5%, 69.8%)" fill-opacity="1" d="M 2520.125 712.324219 C 2520.125 745.460938 2493.261719 772.324219 2460.125 772.324219 C 2426.988281 772.324219 2400.125 745.460938 2400.125 712.324219 C 2400.125 679.1875 2426.988281 652.324219 2460.125 652.324219 C 2493.261719 652.324219 2520.125 679.1875 2520.125 712.324219 Z M 2520.125 712.324219 "/>
<path fill-rule="nonzero" fill="rgb(58.4%, 34.5%, 69.8%)" fill-opacity="1" d="M 1551.773438 715.964844 C 1551.773438 749.101562 1524.910156 775.964844 1491.773438 775.964844 C 1458.636719 775.964844 1431.773438 749.101562 1431.773438 715.964844 C 1431.773438 682.824219 1458.636719 655.964844 1491.773438 655.964844 C 1524.910156 655.964844 1551.773438 682.824219 1551.773438 715.964844 Z M 1551.773438 715.964844 "/>
<path fill-rule="nonzero" fill="rgb(58.4%, 34.5%, 69.8%)" fill-opacity="1" d="M 1798.609375 746.453125 C 1798.609375 779.59375 1771.746094 806.453125 1738.609375 806.453125 C 1705.46875 806.453125 1678.609375 779.59375 1678.609375 746.453125 C 1678.609375 713.316406 1705.46875 686.453125 1738.609375 686.453125 C 1771.746094 686.453125 1798.609375 713.316406 1798.609375 746.453125 Z M 1798.609375 746.453125 "/>
<path fill-rule="nonzero" fill="rgb(58.4%, 34.5%, 69.8%)" fill-opacity="1" d="M 2045.441406 796.789062 C 2045.441406 829.925781 2018.582031 856.789062 1985.441406 856.789062 C 1952.304688 856.789062 1925.441406 829.925781 1925.441406 796.789062 C 1925.441406 763.652344 1952.304688 736.789062 1985.441406 736.789062 C 2018.582031 736.789062 2045.441406 763.652344 2045.441406 796.789062 Z M 2045.441406 796.789062 "/>
<path fill-rule="nonzero" fill="rgb(58.4%, 34.5%, 69.8%)" fill-opacity="1" d="M 2254.304688 798.351562 C 2254.304688 831.488281 2227.441406 858.351562 2194.304688 858.351562 C 2161.167969 858.351562 2134.304688 831.488281 2134.304688 798.351562 C 2134.304688 765.214844 2161.167969 738.351562 2194.304688 738.351562 C 2227.441406 738.351562 2254.304688 765.214844 2254.304688 798.351562 Z M 2254.304688 798.351562 "/>
<path fill-rule="nonzero" fill="rgb(58.4%, 34.5%, 69.8%)" fill-opacity="1" d="M 1399.875 827.328125 C 1399.875 860.464844 1373.011719 887.328125 1339.875 887.328125 C 1306.738281 887.328125 1279.875 860.464844 1279.875 827.328125 C 1279.875 794.191406 1306.738281 767.328125 1339.875 767.328125 C 1373.011719 767.328125 1399.875 794.191406 1399.875 827.328125 Z M 1399.875 827.328125 "/>
<path fill-rule="nonzero" fill="rgb(58.4%, 34.5%, 69.8%)" fill-opacity="1" d="M 2615.0625 874 C 2615.0625 907.136719 2588.199219 934 2555.0625 934 C 2521.925781 934 2495.0625 907.136719 2495.0625 874 C 2495.0625 840.863281 2521.925781 814 2555.0625 814 C 2588.199219 814 2615.0625 840.863281 2615.0625 874 Z M 2615.0625 874 "/>
<path fill-rule="nonzero" fill="rgb(58.4%, 34.5%, 69.8%)" fill-opacity="1" d="M 2425.191406 875.402344 C 2425.191406 908.539062 2398.328125 935.402344 2365.191406 935.402344 C 2332.054688 935.402344 2305.191406 908.539062 2305.191406 875.402344 C 2305.191406 842.265625 2332.054688 815.402344 2365.191406 815.402344 C 2398.328125 815.402344 2425.191406 842.265625 2425.191406 875.402344 Z M 2425.191406 875.402344 "/>
<path fill-rule="nonzero" fill="rgb(58.4%, 34.5%, 69.8%)" fill-opacity="1" d="M 1646.707031 877.246094 C 1646.707031 910.382812 1619.847656 937.246094 1586.707031 937.246094 C 1553.570312 937.246094 1526.707031 910.382812 1526.707031 877.246094 C 1526.707031 844.109375 1553.570312 817.246094 1586.707031 817.246094 C 1619.847656 817.246094 1646.707031 844.109375 1646.707031 877.246094 Z M 1646.707031 877.246094 "/>
<path fill-rule="nonzero" fill="rgb(58.4%, 34.5%, 69.8%)" fill-opacity="1" d="M 1893.542969 906.777344 C 1893.542969 939.914062 1866.679688 966.777344 1833.542969 966.777344 C 1800.40625 966.777344 1773.542969 939.914062 1773.542969 906.777344 C 1773.542969 873.640625 1800.40625 846.777344 1833.542969 846.777344 C 1866.679688 846.777344 1893.542969 873.640625 1893.542969 906.777344 Z M 1893.542969 906.777344 "/>
<path fill-rule="nonzero" fill="rgb(58.4%, 34.5%, 69.8%)" fill-opacity="1" d="M 2159.367188 959.640625 C 2159.367188 992.777344 2132.503906 1019.640625 2099.367188 1019.640625 C 2066.230469 1019.640625 2039.367188 992.777344 2039.367188 959.640625 C 2039.367188 926.503906 2066.230469 899.640625 2099.367188 899.640625 C 2132.503906 899.640625 2159.367188 926.503906 2159.367188 959.640625 Z M 2159.367188 959.640625 "/>
<path fill-rule="nonzero" fill="rgb(58.4%, 34.5%, 69.8%)" fill-opacity="1" d="M 1494.808594 987.378906 C 1494.808594 1020.515625 1467.945312 1047.378906 1434.808594 1047.378906 C 1401.671875 1047.378906 1374.808594 1020.515625 1374.808594 987.378906 C 1374.808594 954.242188 1401.671875 927.378906 1434.808594 927.378906 C 1467.945312 927.378906 1494.808594 954.242188 1494.808594 987.378906 Z M 1494.808594 987.378906 "/>
<path fill-rule="nonzero" fill="rgb(58.4%, 34.5%, 69.8%)" fill-opacity="1" d="M 1304.9375 987.390625 C 1304.9375 1020.527344 1278.074219 1047.390625 1244.9375 1047.390625 C 1211.800781 1047.390625 1184.9375 1020.527344 1184.9375 987.390625 C 1184.9375 954.253906 1211.800781 927.390625 1244.9375 927.390625 C 1278.074219 927.390625 1304.9375 954.253906 1304.9375 987.390625 Z M 1304.9375 987.390625 "/>
<path fill-rule="nonzero" fill="rgb(58.4%, 34.5%, 69.8%)" fill-opacity="1" d="M 2520.125 1035.699219 C 2520.125 1068.835938 2493.261719 1095.699219 2460.125 1095.699219 C 2426.988281 1095.699219 2400.125 1068.835938 2400.125 1035.699219 C 2400.125 1002.5625 2426.988281 975.699219 2460.125 975.699219 C 2493.261719 975.699219 2520.125 1002.5625 2520.125 1035.699219 Z M 2520.125 1035.699219 "/>
<path fill-rule="nonzero" fill="rgb(58.4%, 34.5%, 69.8%)" fill-opacity="1" d="M 2330.253906 1036.164062 C 2330.253906 1069.304688 2303.390625 1096.164062 2270.253906 1096.164062 C 2237.117188 1096.164062 2210.253906 1069.304688 2210.253906 1036.164062 C 2210.253906 1003.027344 2237.117188 976.164062 2270.253906 976.164062 C 2303.390625 976.164062 2330.253906 1003.027344 2330.253906 1036.164062 Z M 2330.253906 1036.164062 "/>
<path fill-rule="nonzero" fill="rgb(58.4%, 34.5%, 69.8%)" fill-opacity="1" d="M 1741.644531 1039.777344 C 1741.644531 1072.914062 1714.78125 1099.777344 1681.644531 1099.777344 C 1648.507812 1099.777344 1621.644531 1072.914062 1621.644531 1039.777344 C 1621.644531 1006.640625 1648.507812 979.777344 1681.644531 979.777344 C 1714.78125 979.777344 1741.644531 1006.640625 1741.644531 1039.777344 Z M 1741.644531 1039.777344 "/>
<path fill-rule="nonzero" fill="rgb(58.4%, 34.5%, 69.8%)" fill-opacity="1" d="M 2007.46875 1069.394531 C 2007.46875 1102.53125 1980.605469 1129.394531 1947.46875 1129.394531 C 1914.332031 1129.394531 1887.46875 1102.53125 1887.46875 1069.394531 C 1887.46875 1036.257812 1914.332031 1009.394531 1947.46875 1009.394531 C 1980.605469 1009.394531 2007.46875 1036.257812 2007.46875 1069.394531 Z M 2007.46875 1069.394531 "/>
<path fill-rule="nonzero" fill="rgb(58.4%, 34.5%, 69.8%)" fill-opacity="1" d="M 2178.355469 1146.496094 C 2178.355469 1179.632812 2151.492188 1206.496094 2118.355469 1206.496094 C 2085.21875 1206.496094 2058.355469 1179.632812 2058.355469 1146.496094 C 2058.355469 1113.359375 2085.21875 1086.496094 2118.355469 1086.496094 C 2151.492188 1086.496094 2178.355469 1113.359375 2178.355469 1146.496094 Z M 2178.355469 1146.496094 "/>
<path fill-rule="nonzero" fill="rgb(58.4%, 34.5%, 69.8%)" fill-opacity="1" d="M 1589.746094 1150.234375 C 1589.746094 1183.371094 1562.882812 1210.234375 1529.746094 1210.234375 C 1496.609375 1210.234375 1469.746094 1183.371094 1469.746094 1150.234375 C 1469.746094 1117.097656 1496.609375 1090.234375 1529.746094 1090.234375 C 1562.882812 1090.234375 1589.746094 1117.097656 1589.746094 1150.234375 Z M 1589.746094 1150.234375 "/>
<path fill-rule="nonzero" fill="rgb(58.4%, 34.5%, 69.8%)" fill-opacity="1" d="M 1399.875 1150.703125 C 1399.875 1183.839844 1373.011719 1210.703125 1339.875 1210.703125 C 1306.738281 1210.703125 1279.875 1183.839844 1279.875 1150.703125 C 1279.875 1117.566406 1306.738281 1090.703125 1339.875 1090.703125 C 1373.011719 1090.703125 1399.875 1117.566406 1399.875 1150.703125 Z M 1399.875 1150.703125 "/>
<path fill-rule="nonzero" fill="rgb(58.4%, 34.5%, 69.8%)" fill-opacity="1" d="M 1855.570312 1189.21875 C 1855.570312 1222.355469 1828.707031 1249.21875 1795.570312 1249.21875 C 1762.433594 1249.21875 1735.570312 1222.355469 1735.570312 1189.21875 C 1735.570312 1156.082031 1762.433594 1129.21875 1795.570312 1129.21875 C 1828.707031 1129.21875 1855.570312 1156.082031 1855.570312 1189.21875 Z M 1855.570312 1189.21875 "/>
<path fill-rule="nonzero" fill="rgb(58.4%, 34.5%, 69.8%)" fill-opacity="1" d="M 2615.0625 1197.375 C 2615.0625 1230.511719 2588.199219 1257.375 2555.0625 1257.375 C 2521.925781 1257.375 2495.0625 1230.511719 2495.0625 1197.375 C 2495.0625 1164.238281 2521.925781 1137.375 2555.0625 1137.375 C 2588.199219 1137.375 2615.0625 1164.238281 2615.0625 1197.375 Z M 2615.0625 1197.375 "/>
<path fill-rule="nonzero" fill="rgb(58.4%, 34.5%, 69.8%)" fill-opacity="1" d="M 2425.191406 1198.78125 C 2425.191406 1231.917969 2398.328125 1258.78125 2365.191406 1258.78125 C 2332.054688 1258.78125 2305.191406 1231.917969 2305.191406 1198.78125 C 2305.191406 1165.644531 2332.054688 1138.78125 2365.191406 1138.78125 C 2398.328125 1138.78125 2425.191406 1165.644531 2425.191406 1198.78125 Z M 2425.191406 1198.78125 "/>
<path fill-rule="nonzero" fill="rgb(58.4%, 34.5%, 69.8%)" fill-opacity="1" d="M 2026.457031 1265.082031 C 2026.457031 1298.21875 1999.59375 1325.082031 1966.457031 1325.082031 C 1933.320312 1325.082031 1906.457031 1298.21875 1906.457031 1265.082031 C 1906.457031 1231.945312 1933.320312 1205.082031 1966.457031 1205.082031 C 1999.59375 1205.082031 2026.457031 1231.945312 2026.457031 1265.082031 Z M 2026.457031 1265.082031 "/>
<path fill-rule="nonzero" fill="rgb(58.4%, 34.5%, 69.8%)" fill-opacity="1" d="M 1703.671875 1297.957031 C 1703.671875 1331.09375 1676.808594 1357.957031 1643.671875 1357.957031 C 1610.535156 1357.957031 1583.671875 1331.09375 1583.671875 1297.957031 C 1583.671875 1264.820312 1610.535156 1237.957031 1643.671875 1237.957031 C 1676.808594 1237.957031 1703.671875 1264.820312 1703.671875 1297.957031 Z M 1703.671875 1297.957031 "/>
<path fill-rule="nonzero" fill="rgb(58.4%, 34.5%, 69.8%)" fill-opacity="1" d="M 2273.292969 1307.941406 C 2273.292969 1341.078125 2246.429688 1367.941406 2213.292969 1367.941406 C 2180.152344 1367.941406 2153.292969 1341.078125 2153.292969 1307.941406 C 2153.292969 1274.804688 2180.152344 1247.941406 2213.292969 1247.941406 C 2246.429688 1247.941406 2273.292969 1274.804688 2273.292969 1307.941406 Z M 2273.292969 1307.941406 "/>
<path fill-rule="nonzero" fill="rgb(58.4%, 34.5%, 69.8%)" fill-opacity="1" d="M 1494.808594 1310.757812 C 1494.808594 1343.894531 1467.945312 1370.757812 1434.808594 1370.757812 C 1401.671875 1370.757812 1374.808594 1343.894531 1374.808594 1310.757812 C 1374.808594 1277.621094 1401.671875 1250.757812 1434.808594 1250.757812 C 1467.945312 1250.757812 1494.808594 1277.621094 1494.808594 1310.757812 Z M 1494.808594 1310.757812 "/>
<path fill-rule="nonzero" fill="rgb(58.4%, 34.5%, 69.8%)" fill-opacity="1" d="M 2520.125 1359.078125 C 2520.125 1392.214844 2493.261719 1419.078125 2460.125 1419.078125 C 2426.988281 1419.078125 2400.125 1392.214844 2400.125 1359.078125 C 2400.125 1325.941406 2426.988281 1299.078125 2460.125 1299.078125 C 2493.261719 1299.078125 2520.125 1325.941406 2520.125 1359.078125 Z M 2520.125 1359.078125 "/>
<path fill-rule="nonzero" fill="rgb(58.4%, 34.5%, 69.8%)" fill-opacity="1" d="M 1874.558594 1376.042969 C 1874.558594 1409.179688 1847.695312 1436.042969 1814.558594 1436.042969 C 1781.417969 1436.042969 1754.558594 1409.179688 1754.558594 1376.042969 C 1754.558594 1342.90625 1781.417969 1316.042969 1814.558594 1316.042969 C 1847.695312 1316.042969 1874.558594 1342.90625 1874.558594 1376.042969 Z M 1874.558594 1376.042969 "/>
<path fill-rule="nonzero" fill="rgb(58.4%, 34.5%, 69.8%)" fill-opacity="1" d="M 2121.390625 1427.367188 C 2121.390625 1460.503906 2094.53125 1487.367188 2061.390625 1487.367188 C 2028.253906 1487.367188 2001.390625 1460.503906 2001.390625 1427.367188 C 2001.390625 1394.230469 2028.253906 1367.367188 2061.390625 1367.367188 C 2094.53125 1367.367188 2121.390625 1394.230469 2121.390625 1427.367188 Z M 2121.390625 1427.367188 "/>
<path fill-rule="nonzero" fill="rgb(58.4%, 34.5%, 69.8%)" fill-opacity="1" d="M 1608.734375 1460.179688 C 1608.734375 1493.316406 1581.871094 1520.179688 1548.734375 1520.179688 C 1515.597656 1520.179688 1488.734375 1493.316406 1488.734375 1460.179688 C 1488.734375 1427.042969 1515.597656 1400.179688 1548.734375 1400.179688 C 1581.871094 1400.179688 1608.734375 1427.042969 1608.734375 1460.179688 Z M 1608.734375 1460.179688 "/>
<path fill-rule="nonzero" fill="rgb(58.4%, 34.5%, 69.8%)" fill-opacity="1" d="M 2368.226562 1469.839844 C 2368.226562 1502.976562 2341.363281 1529.839844 2308.226562 1529.839844 C 2275.089844 1529.839844 2248.226562 1502.976562 2248.226562 1469.839844 C 2248.226562 1436.703125 2275.089844 1409.839844 2308.226562 1409.839844 C 2341.363281 1409.839844 2368.226562 1436.703125 2368.226562 1469.839844 Z M 2368.226562 1469.839844 "/>
<path fill-rule="nonzero" fill="rgb(58.4%, 34.5%, 69.8%)" fill-opacity="1" d="M 1969.492188 1536.742188 C 1969.492188 1569.878906 1942.628906 1596.742188 1909.492188 1596.742188 C 1876.355469 1596.742188 1849.492188 1569.878906 1849.492188 1536.742188 C 1849.492188 1503.605469 1876.355469 1476.742188 1909.492188 1476.742188 C 1942.628906 1476.742188 1969.492188 1503.605469 1969.492188 1536.742188 Z M 1969.492188 1536.742188 "/>
<path fill-rule="nonzero" fill="rgb(58.4%, 34.5%, 69.8%)" fill-opacity="1" d="M 1779.621094 1538.480469 C 1779.621094 1571.617188 1752.757812 1598.480469 1719.621094 1598.480469 C 1686.484375 1598.480469 1659.621094 1571.617188 1659.621094 1538.480469 C 1659.621094 1505.34375 1686.484375 1478.480469 1719.621094 1478.480469 C 1752.757812 1478.480469 1779.621094 1505.34375 1779.621094 1538.480469 Z M 1779.621094 1538.480469 "/>
<path fill-rule="nonzero" fill="rgb(58.4%, 34.5%, 69.8%)" fill-opacity="1" d="M 2216.328125 1589.789062 C 2216.328125 1622.929688 2189.464844 1649.789062 2156.328125 1649.789062 C 2123.191406 1649.789062 2096.328125 1622.929688 2096.328125 1589.789062 C 2096.328125 1556.652344 2123.191406 1529.789062 2156.328125 1529.789062 C 2189.464844 1529.789062 2216.328125 1556.652344 2216.328125 1589.789062 Z M 2216.328125 1589.789062 "/>
</svg>
