<?xml version="1.0" encoding="UTF-8"?>
<svg xmlns="http://www.w3.org/2000/svg" xmlns:xlink="http://www.w3.org/1999/xlink" width="3800" height="3800" viewBox="0 0 3800 3800">
<path fill-rule="nonzero" fill="rgb(79.6%, 23.5%, 20%)" fill-opacity="1" d="M 1710 2632.050781 C 1710 2665.1875 1683.136719 2692.050781 1650 2692.050781 C 1616.863281 2692.050781 1590 2665.1875 1590 2632.050781 C 1590 2598.914062 1616.863281 2572.050781 1650 2572.050781 C 1683.136719 2572.050781 1710 2598.914062 1710 2632.050781 Z M 1710 2632.050781 "/>
<path fill-rule="nonzero" fill="rgb(79.6%, 23.5%, 20%)" fill-opacity="1" d="M 1684.445312 2826.164062 C 1684.445312 2859.300781 1657.582031 2886.164062 1624.445312 2886.164062 C 1591.308594 2886.164062 1564.445312 2859.300781 1564.445312 2826.164062 C 1564.445312 2793.027344 1591.308594 2766.164062 1624.445312 2766.164062 C 1657.582031 2766.164062 1684.445312 2793.027344 1684.445312 2826.164062 Z M 1684.445312 2826.164062 "/>
<path fill-rule="nonzero" fill="rgb(79.6%, 23.5%, 20%)" fill-opacity="1" d="M 1609.519531 3007.050781 C 1609.519531 3040.1875 1582.65625 3067.050781 1549.519531 3067.050781 C 1516.382812 3067.050781 1489.519531 3040.1875 1489.519531 3007.050781 C 1489.519531 2973.914062 1516.382812 2947.050781 1549.519531 2947.050781 C 1582.65625 2947.050781 1609.519531 2973.914062 1609.519531 3007.050781 Z M 1609.519531 3007.050781 "/>
<path fill-rule="nonzero" fill="rgb(79.6%, 23.5%, 20%)" fill-opacity="1" d="M 1490.332031 3162.382812 C 1490.332031 3195.519531 1463.46875 3222.382812 1430.332031 3222.382812 C 1397.191406 3222.382812 1370.332031 3195.519531 1370.332031 3162.382812 C 1370.332031 3129.242188 1397.191406 3102.382812 1430.332031 3102.382812 C 1463.46875 3102.382812 1490.332031 3129.242188 1490.332031 3162.382812 Z M 1490.332031 3162.382812 "/>
<path fill-rule="nonzero" fill="rgb(79.6%, 23.5%, 20%)" fill-opacity="1" d="M 1335 3281.570312 C 1335 3314.707031 1308.136719 3341.570312 1275 3341.570312 C 1241.863281 3341.570312 1215 3314.707031 1215 3281.570312 C 1215 3248.433594 1241.863281 3221.570312 1275 3221.570312 C 1308.136719 3221.570312 1335 3248.433594 1335 3281.570312 Z M 1335 3281.570312 "/>
<path fill-rule="nonzero" fill="rgb(79.6%, 23.5%, 20%)" fill-opacity="1" d="M 1154.113281 3356.496094 C 1154.113281 3389.632812 1127.25 3416.496094 1094.113281 3416.496094 C 1060.976562 3416.496094 1034.113281 3389.632812 1034.113281 3356.496094 C 1034.113281 3323.359375 1060.976562 3296.496094 1094.113281 3296.496094 C 1127.25 3296.496094 1154.113281 3323.359375 1154.113281 3356.496094 Z M 1154.113281 3356.496094 "/>
<path fill-rule="nonzero" fill="rgb(79.6%, 23.5%, 20%)" fill-opacity="1" d="M 960 3382.050781 C 960 3415.1875 933.136719 3442.050781 900 3442.050781 C 866.863281 3442.050781 840 3415.1875 840 3382.050781 C 840 3348.914062 866.863281 3322.050781 900 3322.050781 C 933.136719 3322.050781 960 3348.914062 960 3382.050781 Z M 960 3382.050781 "/>
<path fill-rule="nonzero" fill="rgb(79.6%, 23.5%, 20%)" fill-opacity="1" d="M 765.886719 3356.496094 C 765.886719 3389.632812 739.023438 3416.496094 705.886719 3416.496094 C 672.75 3416.496094 645.886719 3389.632812 645.886719 3356.496094 C 645.886719 3323.359375 672.75 3296.496094 705.886719 3296.496094 C 739.023438 3296.496094 765.886719 3323.359375 765.886719 3356.496094 Z M 765.886719 3356.496094 "/>
<path fill-rule="nonzero" fill="rgb(79.6%, 23.5%, 20%)" fill-opacity="1" d="M 585 3281.570312 C 585 3314.707031 558.136719 3341.570312 525 3341.570312 C 491.863281 3341.570312 465 3314.707031 465 3281.570312 C 465 3248.433594 491.863281 3221.570312 525 3221.570312 C 558.136719 3221.570312 585 3248.433594 585 3281.570312 Z M 585 3281.570312 "/>
<path fill-rule="nonzero" fill="rgb(79.6%, 23.5%, 20%)" fill-opacity="1" d="M 429.667969 3162.382812 C 429.667969 3195.519531 402.808594 3222.382812 369.667969 3222.382812 C 336.53125 3222.382812 309.667969 3195.519531 309.667969 3162.382812 C 309.667969 3129.242188 336.53125 3102.382812 369.667969 3102.382812 C 402.808594 3102.382812 429.667969 3129.242188 429.667969 3162.382812 Z M 429.667969 3162.382812 "/>
<path fill-rule="nonzero" fill="rgb(79.6%, 23.5%, 20%)" fill-opacity="1" d="M 310.480469 3007.050781 C 310.480469 3040.1875 283.617188 3067.050781 250.480469 3067.050781 C 217.34375 3067.050781 190.480469 3040.1875 190.480469 3007.050781 C 190.480469 2973.914062 217.34375 2947.050781 250.480469 2947.050781 C 283.617188 2947.050781 310.480469 2973.914062 310.480469 3007.050781 Z M 310.480469 3007.050781 "/>
<path fill-rule="nonzero" fill="rgb(79.6%, 23.5%, 20%)" fill-opacity="1" d="M 235.554688 2826.164062 C 235.554688 2859.300781 208.691406 2886.164062 175.554688 2886.164062 C 142.417969 2886.164062 115.554688 2859.300781 115.554688 2826.164062 C 115.554688 2793.027344 142.417969 2766.164062 175.554688 2766.164062 C 208.691406 2766.164062 235.554688 2793.027344 235.554688 2826.164062 Z M 235.554688 2826.164062 "/>
<path fill-rule="nonzero" fill="rgb(79.6%, 23.5%, 20%)" fill-opacity="1" d="M 210 2632.050781 C 210 2665.1875 183.136719 2692.050781 150 2692.050781 C 116.863281 2692.050781 90 2665.1875 90 2632.050781 C 90 2598.914062 116.863281 2572.050781 150 2572.050781 C 183.136719 2572.050781 210 2598.914062 210 2632.050781 Z M 210 2632.050781 "/>
<path fill-rule="nonzero" fill="rgb(79.6%, 23.5%, 20%)" fill-opacity="1" d="M 235.554688 2437.9375 C 235.554688 2471.074219 208.691406 2497.9375 175.554688 2497.9375 C 142.417969 2497.9375 115.554688 2471.074219 115.554688 2437.9375 C 115.554688 2404.800781 142.417969 2377.9375 175.554688 2377.9375 C 208.691406 2377.9375 235.554688 2404.800781 235.554688 2437.9375 Z M 235.554688 2437.9375 "/>
<path fill-rule="nonzero" fill="rgb(79.6%, 23.5%, 20%)" fill-opacity="1" d="M 310.480469 2257.050781 C 310.480469 2290.1875 283.617188 2317.050781 250.480469 2317.050781 C 217.34375 2317.050781 190.480469 2290.1875 190.480469 2257.050781 C 190.480469 2223.914062 217.34375 2197.050781 250.480469 2197.050781 C 283.617188 2197.050781 310.480469 2223.914062 310.480469 2257.050781 Z M 310.480469 2257.050781 "/>
<path fill-rule="nonzero" fill="rgb(79.6%, 23.5%, 20%)" fill-opacity="1" d="M 429.667969 2101.722656 C 429.667969 2134.859375 402.808594 2161.722656 369.667969 2161.722656 C 336.53125 2161.722656 309.667969 2134.859375 309.667969 2101.722656 C 309.667969 2068.582031 336.53125 2041.722656 369.667969 2041.722656 C 402.808594 2041.722656 429.667969 2068.582031 429.667969 2101.722656 Z M 429.667969 2101.722656 "/>
<path fill-rule="nonzero" fill="rgb(79.6%, 23.5%, 20%)" fill-opacity="1" d="M 585 1982.53125 C 585 2015.667969 558.136719 2042.53125 525 2042.53125 C 491.863281 2042.53125 465 2015.667969 465 1982.53125 C 465 1949.394531 491.863281 1922.53125 525 1922.53125 C 558.136719 1922.53125 585 1949.394531 585 1982.53125 Z M 585 1982.53125 "/>
<path fill-rule="nonzero" fill="rgb(79.6%, 23.5%, 20%)" fill-opacity="1" d="M 765.886719 1907.605469 C 765.886719 1940.742188 739.023438 1967.605469 705.886719 1967.605469 C 672.75 1967.605469 645.886719 1940.742188 645.886719 1907.605469 C 645.886719 1874.46875 672.75 1847.605469 705.886719 1847.605469 C 739.023438 1847.605469 765.886719 1874.46875 765.886719 1907.605469 Z M 765.886719 1907.605469 "/>
<path fill-rule="nonzero" fill="rgb(79.6%, 23.5%, 20%)" fill-opacity="1" d="M 960 1882.050781 C 960 1915.1875 933.136719 1942.050781 900 1942.050781 C 866.863281 1942.050781 840 1915.1875 840 1882.050781 C 840 1848.914062 866.863281 1822.050781 900 1822.050781 C 933.136719 1822.050781 960 1848.914062 960 1882.050781 Z M 960 1882.050781 "/>
<path fill-rule="nonzero" fill="rgb(79.6%, 23.5%, 20%)" fill-opacity="1" d="M 1154.113281 1907.605469 C 1154.113281 1940.742188 1127.25 1967.605469 1094.113281 1967.605469 C 1060.976562 1967.605469 1034.113281 1940.742188 1034.113281 1907.605469 C 1034.113281 1874.46875 1060.976562 1847.605469 1094.113281 1847.605469 C 1127.25 1847.605469 1154.113281 1874.46875 1154.113281 1907.605469 Z M 1154.113281 1907.605469 "/>
<path fill-rule="nonzero" fill="rgb(79.6%, 23.5%, 20%)" fill-opacity="1" d="M 1335 1982.53125 C 1335 2015.667969 1308.136719 2042.53125 1275 2042.53125 C 1241.863281 2042.53125 1215 2015.667969 1215 1982.53125 C 1215 1949.394531 1241.863281 1922.53125 1275 1922.53125 C 1308.136719 1922.53125 1335 1949.394531 1335 1982.53125 Z M 1335 1982.53125 "/>
<path fill-rule="nonzero" fill="rgb(79.6%, 23.5%, 20%)" fill-opacity="1" d="M 1490.332031 2101.722656 C 1490.332031 2134.859375 1463.46875 2161.722656 1430.332031 2161.722656 C 1397.191406 2161.722656 1370.332031 2134.859375 1370.332031 2101.722656 C 1370.332031 2068.582031 1397.191406 2041.722656 1430.332031 2041.722656 C 1463.46875 2041.722656 1490.332031 2068.582031 1490.332031 2101.722656 Z M 1490.332031 2101.722656 "/>
<path fill-rule="nonzero" fill="rgb(79.6%, 23.5%, 20%)" fill-opacity="1" d="M 1609.519531 2257.050781 C 1609.519531 2290.1875 1582.65625 2317.050781 1549.519531 2317.050781 C 1516.382812 2317.050781 1489.519531 2290.1875 1489.519531 2257.050781 C 1489.519531 2223.914062 1516.382812 2197.050781 1549.519531 2197.050781 C 1582.65625 2197.050781 1609.519531 2223.914062 1609.519531 2257.050781 Z M 1609.519531 2257.050781 "/>
<path fill-rule="nonzero" fill="rgb(79.6%, 23.5%, 20%)" fill-opacity="1" d="M 1684.445312 2437.9375 C 1684.445312 2471.074219 1657.582031 2497.9375 1624.445312 2497.9375 C 1591.308594 2497.9375 1564.445312 2471.074219 1564.445312 2437.9375 C 1564.445312 2404.800781 1591.308594 2377.9375 1624.445312 2377.9375 C 1657.582031 2377.9375 1684.445312 2404.800781 1684.445312 2437.9375 Z M 1684.445312 2437.9375 "/>
<path fill-rule="nonzero" fill="rgb(79.6%, 23.5%, 20%)" fill-opacity="1" d="M 1204.9375 2024.195312 C 1204.9375 2057.332031 1178.074219 2084.195312 1144.9375 2084.195312 C 1111.796875 2084.195312 1084.9375 2057.332031 1084.9375 2024.195312 C 1084.9375 1991.058594 1111.796875 1964.195312 1144.9375 1964.195312 C 1178.074219 1964.195312 1204.9375 1991.058594 1204.9375 2024.195312 Z M 1204.9375 2024.195312 "/>
<path fill-rule="nonzero" fill="rgb(79.6%, 23.5%, 20%)" fill-opacity="1" d="M 867.171875 2046.355469 C 867.171875 2079.492188 840.308594 2106.355469 807.171875 2106.355469 C 774.035156 2106.355469 747.171875 2079.492188 747.171875 2046.355469 C 747.171875 2013.21875 774.035156 1986.355469 807.171875 1986.355469 C 840.308594 1986.355469 867.171875 2013.21875 867.171875 2046.355469 Z M 867.171875 2046.355469 "/>
<path fill-rule="nonzero" fill="rgb(79.6%, 23.5%, 20%)" fill-opacity="1" d="M 686.761719 2073.949219 C 686.761719 2107.085938 659.898438 2133.949219 626.761719 2133.949219 C 593.625 2133.949219 566.761719 2107.085938 566.761719 2073.949219 C 566.761719 2040.808594 593.625 2013.949219 626.761719 2013.949219 C 659.898438 2013.949219 686.761719 2040.808594 686.761719 2073.949219 Z M 686.761719 2073.949219 "/>
<path fill-rule="nonzero" fill="rgb(79.6%, 23.5%, 20%)" fill-opacity="1" d="M 1054.734375 2059.488281 C 1054.734375 2092.625 1027.871094 2119.488281 994.734375 2119.488281 C 961.597656 2119.488281 934.734375 2092.625 934.734375 2059.488281 C 934.734375 2026.351562 961.597656 1999.488281 994.734375 1999.488281 C 1027.871094 1999.488281 1054.734375 2026.351562 1054.734375 2059.488281 Z M 1054.734375 2059.488281 "/>
<path fill-rule="nonzero" fill="rgb(79.6%, 23.5%, 20%)" fill-opacity="1" d="M 1379.796875 2192.898438 C 1379.796875 2226.035156 1352.933594 2252.898438 1319.796875 2252.898438 C 1286.65625 2252.898438 1259.796875 2226.035156 1259.796875 2192.898438 C 1259.796875 2159.761719 1286.65625 2132.898438 1319.796875 2132.898438 C 1352.933594 2132.898438 1379.796875 2159.761719 1379.796875 2192.898438 Z M 1379.796875 2192.898438 "/>
<path fill-rule="nonzero" fill="rgb(79.6%, 23.5%, 20%)" fill-opacity="1" d="M 1186.882812 2163.710938 C 1186.882812 2196.847656 1160.019531 2223.710938 1126.882812 2223.710938 C 1093.746094 2223.710938 1066.882812 2196.847656 1066.882812 2163.710938 C 1066.882812 2130.574219 1093.746094 2103.710938 1126.882812 2103.710938 C 1160.019531 2103.710938 1186.882812 2130.574219 1186.882812 2163.710938 Z M 1186.882812 2163.710938 "/>
<path fill-rule="nonzero" fill="rgb(79.6%, 23.5%, 20%)" fill-opacity="1" d="M 567.367188 2217.648438 C 567.367188 2250.785156 540.503906 2277.648438 507.367188 2277.648438 C 474.230469 2277.648438 447.367188 2250.785156 447.367188 2217.648438 C 447.367188 2184.511719 474.230469 2157.648438 507.367188 2157.648438 C 540.503906 2157.648438 567.367188 2184.511719 567.367188 2217.648438 Z M 567.367188 2217.648438 "/>
<path fill-rule="nonzero" fill="rgb(79.6%, 23.5%, 20%)" fill-opacity="1" d="M 965.457031 2213.765625 C 965.457031 2246.902344 938.59375 2273.765625 905.457031 2273.765625 C 872.316406 2273.765625 845.457031 2246.902344 845.457031 2213.765625 C 845.457031 2180.628906 872.316406 2153.765625 905.457031 2153.765625 C 938.59375 2153.765625 965.457031 2180.628906 965.457031 2213.765625 Z M 965.457031 2213.765625 "/>
<path fill-rule="nonzero" fill="rgb(79.6%, 23.5%, 20%)" fill-opacity="1" d="M 763.589844 2214.285156 C 763.589844 2247.425781 736.726562 2274.285156 703.589844 2274.285156 C 670.453125 2274.285156 643.589844 2247.425781 643.589844 2214.285156 C 643.589844 2181.148438 670.453125 2154.285156 703.589844 2154.285156 C 736.726562 2154.285156 763.589844 2181.148438 763.589844 2214.285156 Z M 763.589844 2214.285156 "/>
<path fill-rule="nonzero" fill="rgb(79.6%, 23.5%, 20%)" fill-opacity="1" d="M 1475.132812 2289.269531 C 1475.132812 2322.40625 1448.269531 2349.269531 1415.132812 2349.269531 C 1381.996094 2349.269531 1355.132812 2322.40625 1355.132812 2289.269531 C 1355.132812 2256.132812 1381.996094 2229.269531 1415.132812 2229.269531 C 1448.269531 2229.269531 1475.132812 2256.132812 1475.132812 2289.269531 Z M 1475.132812 2289.269531 "/>
<path fill-rule="nonzero" fill="rgb(79.6%, 23.5%, 20%)" fill-opacity="1" d="M 453.871094 2324.464844 C 453.871094 2357.601562 427.007812 2384.464844 393.871094 2384.464844 C 360.730469 2384.464844 333.871094 2357.601562 333.871094 2324.464844 C 333.871094 2291.328125 360.730469 2264.464844 393.871094 2264.464844 C 427.007812 2264.464844 453.871094 2291.328125 453.871094 2324.464844 Z M 453.871094 2324.464844 "/>
<path fill-rule="nonzero" fill="rgb(79.6%, 23.5%, 20%)" fill-opacity="1" d="M 1105.714844 2312.949219 C 1105.714844 2346.085938 1078.851562 2372.949219 1045.714844 2372.949219 C 1012.578125 2372.949219 985.714844 2346.085938 985.714844 2312.949219 C 985.714844 2279.8125 1012.578125 2252.949219 1045.714844 2252.949219 C 1078.851562 2252.949219 1105.714844 2279.8125 1105.714844 2312.949219 Z M 1105.714844 2312.949219 "/>
<path fill-rule="nonzero" fill="rgb(79.6%, 23.5%, 20%)" fill-opacity="1" d="M 1304.332031 2326.105469 C 1304.332031 2359.242188 1277.46875 2386.105469 1244.332031 2386.105469 C 1211.195312 2386.105469 1184.332031 2359.242188 1184.332031 2326.105469 C 1184.332031 2292.96875 1211.195312 2266.105469 1244.332031 2266.105469 C 1277.46875 2266.105469 1304.332031 2292.96875 1304.332031 2326.105469 Z M 1304.332031 2326.105469 "/>
<path fill-rule="nonzero" fill="rgb(79.6%, 23.5%, 20%)" fill-opacity="1" d="M 864.992188 2373.644531 C 864.992188 2406.78125 838.132812 2433.644531 804.992188 2433.644531 C 771.855469 2433.644531 744.992188 2406.78125 744.992188 2373.644531 C 744.992188 2340.507812 771.855469 2313.644531 804.992188 2313.644531 C 838.132812 2313.644531 864.992188 2340.507812 864.992188 2373.644531 Z M 864.992188 2373.644531 "/>
<path fill-rule="nonzero" fill="rgb(79.6%, 23.5%, 20%)" fill-opacity="1" d="M 659.117188 2376.65625 C 659.117188 2409.792969 632.253906 2436.65625 599.117188 2436.65625 C 565.980469 2436.65625 539.117188 2409.792969 539.117188 2376.65625 C 539.117188 2343.515625 565.980469 2316.65625 599.117188 2316.65625 C 632.253906 2316.65625 659.117188 2343.515625 659.117188 2376.65625 Z M 659.117188 2376.65625 "/>
<path fill-rule="nonzero" fill="rgb(79.6%, 23.5%, 20%)" fill-opacity="1" d="M 1443.175781 2435.386719 C 1443.175781 2468.523438 1416.3125 2495.386719 1383.175781 2495.386719 C 1350.039062 2495.386719 1323.175781 2468.523438 1323.175781 2435.386719 C 1323.175781 2402.25 1350.039062 2375.386719 1383.175781 2375.386719 C 1416.3125 2375.386719 1443.175781 2402.25 1443.175781 2435.386719 Z M 1443.175781 2435.386719 "/>
<path fill-rule="nonzero" fill="rgb(79.6%, 23.5%, 20%)" fill-opacity="1" d="M 523.28125 2476.046875 C 523.28125 2509.183594 496.417969 2536.046875 463.28125 2536.046875 C 430.144531 2536.046875 403.28125 2509.183594 403.28125 2476.046875 C 403.28125 2442.910156 430.144531 2416.046875 463.28125 2416.046875 C 496.417969 2416.046875 523.28125 2442.910156 523.28125 2476.046875 Z M 523.28125 2476.046875 "/>
<path fill-rule="nonzero" fill="rgb(79.6%, 23.5%, 20%)" fill-opacity="1" d="M 358.640625 2497.03125 C 358.640625 2530.167969 331.777344 2557.03125 298.640625 2557.03125 C 265.503906 2557.03125 238.640625 2530.167969 238.640625 2497.03125 C 238.640625 2463.894531 265.503906 2437.03125 298.640625 2437.03125 C 331.777344 2437.03125 358.640625 2463.894531 358.640625 2497.03125 Z M 358.640625 2497.03125 "/>
<path fill-rule="nonzero" fill="rgb(79.6%, 23.5%, 20%)" fill-opacity="1" d="M 1217.132812 2483.808594 C 1217.132812 2516.945312 1190.269531 2543.808594 1157.132812 2543.808594 C 1123.996094 2543.808594 1097.132812 2516.945312 1097.132812 2483.808594 C 1097.132812 2450.671875 1123.996094 2423.808594 1157.132812 2423.808594 C 1190.269531 2423.808594 1217.132812 2450.671875 1217.132812 2483.808594 Z M 1217.132812 2483.808594 "/>
<path fill-rule="nonzero" fill="rgb(79.6%, 23.5%, 20%)" fill-opacity="1" d="M 1009.277344 2475.453125 C 1009.277344 2508.59375 982.414062 2535.453125 949.277344 2535.453125 C 916.140625 2535.453125 889.277344 2508.59375 889.277344 2475.453125 C 889.277344 2442.316406 916.140625 2415.453125 949.277344 2415.453125 C 982.414062 2415.453125 1009.277344 2442.316406 1009.277344 2475.453125 Z M 1009.277344 2475.453125 "/>
<path fill-rule="nonzero" fill="rgb(79.6%, 23.5%, 20%)" fill-opacity="1" d="M 761.105469 2533.796875 C 761.105469 2566.933594 734.242188 2593.796875 701.105469 2593.796875 C 667.96875 2593.796875 641.105469 2566.933594 641.105469 2533.796875 C 641.105469 2500.660156 667.96875 2473.796875 701.105469 2473.796875 C 734.242188 2473.796875 761.105469 2500.660156 761.105469 2533.796875 Z M 761.105469 2533.796875 "/>
<path fill-rule="nonzero" fill="rgb(79.6%, 23.5%, 20%)" fill-opacity="1" d="M 1563.859375 2546.289062 C 1563.859375 2579.425781 1536.996094 2606.289062 1503.859375 2606.289062 C 1470.722656 2606.289062 1443.859375 2579.425781 1443.859375 2546.289062 C 1443.859375 2513.148438 1470.722656 2486.289062 1503.859375 2486.289062 C 1536.996094 2486.289062 1563.859375 2513.148438 1563.859375 2546.289062 Z M 1563.859375 2546.289062 "/>
<path fill-rule="nonzero" fill="rgb(79.6%, 23.5%, 20%)" fill-opacity="1" d="M 1361 2589.4375 C 1361 2622.574219 1334.136719 2649.4375 1301 2649.4375 C 1267.863281 2649.4375 1241 2622.574219 1241 2589.4375 C 1241 2556.300781 1267.863281 2529.4375 1301 2529.4375 C 1334.136719 2529.4375 1361 2556.300781 1361 2589.4375 Z M 1361 2589.4375 "/>
<path fill-rule="nonzero" fill="rgb(79.6%, 23.5%, 20%)" fill-opacity="1" d="M 418.605469 2639.757812 C 418.605469 2672.894531 391.742188 2699.757812 358.605469 2699.757812 C 325.464844 2699.757812 298.605469 2672.894531 298.605469 2639.757812 C 298.605469 2606.617188 325.464844 2579.757812 358.605469 2579.757812 C 391.742188 2579.757812 418.605469 2606.617188 418.605469 2639.757812 Z M 418.605469 2639.757812 "/>
<path fill-rule="nonzero" fill="rgb(79.6%, 23.5%, 20%)" fill-opacity="1" d="M 1121.691406 2643.203125 C 1121.691406 2676.339844 1094.828125 2703.203125 1061.691406 2703.203125 C 1028.554688 2703.203125 1001.691406 2676.339844 1001.691406 2643.203125 C 1001.691406 2610.066406 1028.554688 2583.203125 1061.691406 2583.203125 C 1094.828125 2583.203125 1121.691406 2610.066406 1121.691406 2643.203125 Z M 1121.691406 2643.203125 "/>
<path fill-rule="nonzero" fill="rgb(79.6%, 23.5%, 20%)" fill-opacity="1" d="M 613.835938 2639.457031 C 613.835938 2672.59375 586.972656 2699.457031 553.835938 2699.457031 C 520.695312 2699.457031 493.835938 2672.59375 493.835938 2639.457031 C 493.835938 2606.320312 520.695312 2579.457031 553.835938 2579.457031 C 586.972656 2579.457031 613.835938 2606.320312 613.835938 2639.457031 Z M 613.835938 2639.457031 "/>
<path fill-rule="nonzero" fill="rgb(79.6%, 23.5%, 20%)" fill-opacity="1" d="M 910.792969 2640.941406 C 910.792969 2674.078125 883.929688 2700.941406 850.792969 2700.941406 C 817.65625 2700.941406 790.792969 2674.078125 790.792969 2640.941406 C 790.792969 2607.804688 817.65625 2580.941406 850.792969 2580.941406 C 883.929688 2580.941406 910.792969 2607.804688 910.792969 2640.941406 Z M 910.792969 2640.941406 "/>
<path fill-rule="nonzero" fill="rgb(79.6%, 23.5%, 20%)" fill-opacity="1" d="M 1499.929688 2689.75 C 1499.929688 2722.886719 1473.066406 2749.75 1439.929688 2749.75 C 1406.792969 2749.75 1379.929688 2722.886719 1379.929688 2689.75 C 1379.929688 2656.613281 1406.792969 2629.75 1439.929688 2629.75 C 1473.066406 2629.75 1499.929688 2656.613281 1499.929688 2689.75 Z M 1499.929688 2689.75 "/>
<path fill-rule="nonzero" fill="rgb(79.6%, 23.5%, 20%)" fill-opacity="1" d="M 1264.035156 2749.871094 C 1264.035156 2783.007812 1237.171875 2809.871094 1204.035156 2809.871094 C 1170.894531 2809.871094 1144.035156 2783.007812 1144.035156 2749.871094 C 1144.035156 2716.734375 1170.894531 2689.871094 1204.035156 2689.871094 C 1237.171875 2689.871094 1264.035156 2716.734375 1264.035156 2749.871094 Z M 1264.035156 2749.871094 "/>
<path fill-rule="nonzero" fill="rgb(79.6%, 23.5%, 20%)" fill-opacity="1" d="M 759.902344 2746.308594 C 759.902344 2779.445312 733.039062 2806.308594 699.902344 2806.308594 C 666.765625 2806.308594 639.902344 2779.445312 639.902344 2746.308594 C 639.902344 2713.167969 666.765625 2686.308594 699.902344 2686.308594 C 733.039062 2686.308594 759.902344 2713.167969 759.902344 2746.308594 Z M 759.902344 2746.308594 "/>
<path fill-rule="nonzero" fill="rgb(79.6%, 23.5%, 20%)" fill-opacity="1" d="M 523.152344 2802.25 C 523.152344 2835.386719 496.289062 2862.25 463.152344 2862.25 C 430.015625 2862.25 403.152344 2835.386719 403.152344 2802.25 C 403.152344 2769.113281 430.015625 2742.25 463.152344 2742.25 C 496.289062 2742.25 523.152344 2769.113281 523.152344 2802.25 Z M 523.152344 2802.25 "/>
<path fill-rule="nonzero" fill="rgb(79.6%, 23.5%, 20%)" fill-opacity="1" d="M 360.15625 2777.792969 C 360.15625 2810.929688 333.292969 2837.792969 300.15625 2837.792969 C 267.019531 2837.792969 240.15625 2810.929688 240.15625 2777.792969 C 240.15625 2744.652344 267.019531 2717.792969 300.15625 2717.792969 C 333.292969 2717.792969 360.15625 2744.652344 360.15625 2777.792969 Z M 360.15625 2777.792969 "/>
<path fill-rule="nonzero" fill="rgb(79.6%, 23.5%, 20%)" fill-opacity="1" d="M 1014.640625 2802.933594 C 1014.640625 2836.070312 987.777344 2862.933594 954.640625 2862.933594 C 921.503906 2862.933594 894.640625 2836.070312 894.640625 2802.933594 C 894.640625 2769.796875 921.503906 2742.933594 954.640625 2742.933594 C 987.777344 2742.933594 1014.640625 2769.796875 1014.640625 2802.933594 Z M 1014.640625 2802.933594 "/>
<path fill-rule="nonzero" fill="rgb(79.6%, 23.5%, 20%)" fill-opacity="1" d="M 1399.355469 2848.269531 C 1399.355469 2881.40625 1372.492188 2908.269531 1339.355469 2908.269531 C 1306.21875 2908.269531 1279.355469 2881.40625 1279.355469 2848.269531 C 1279.355469 2815.132812 1306.21875 2788.269531 1339.355469 2788.269531 C 1372.492188 2788.269531 1399.355469 2815.132812 1399.355469 2848.269531 Z M 1399.355469 2848.269531 "/>
<path fill-rule="nonzero" fill="rgb(79.6%, 23.5%, 20%)" fill-opacity="1" d="M 1559.984375 2845.863281 C 1559.984375 2879 1533.121094 2905.863281 1499.984375 2905.863281 C 1466.847656 2905.863281 1439.984375 2879 1439.984375 2845.863281 C 1439.984375 2812.726562 1466.847656 2785.863281 1499.984375 2785.863281 C 1533.121094 2785.863281 1559.984375 2812.726562 1559.984375 2845.863281 Z M 1559.984375 2845.863281 "/>
<path fill-rule="nonzero" fill="rgb(79.6%, 23.5%, 20%)" fill-opacity="1" d="M 1171.386719 2909.796875 C 1171.386719 2942.933594 1144.523438 2969.796875 1111.386719 2969.796875 C 1078.246094 2969.796875 1051.386719 2942.933594 1051.386719 2909.796875 C 1051.386719 2876.660156 1078.246094 2849.796875 1111.386719 2849.796875 C 1144.523438 2849.796875 1171.386719 2876.660156 1171.386719 2909.796875 Z M 1171.386719 2909.796875 "/>
<path fill-rule="nonzero" fill="rgb(79.6%, 23.5%, 20%)" fill-opacity="1" d="M 860.96875 2913.238281 C 860.96875 2946.375 834.105469 2973.238281 800.96875 2973.238281 C 767.832031 2973.238281 740.96875 2946.375 740.96875 2913.238281 C 740.96875 2880.101562 767.832031 2853.238281 800.96875 2853.238281 C 834.105469 2853.238281 860.96875 2880.101562 860.96875 2913.238281 Z M 860.96875 2913.238281 "/>
<path fill-rule="nonzero" fill="rgb(79.6%, 23.5%, 20%)" fill-opacity="1" d="M 659.453125 2905.257812 C 659.453125 2938.394531 632.59375 2965.257812 599.453125 2965.257812 C 566.316406 2965.257812 539.453125 2938.394531 539.453125 2905.257812 C 539.453125 2872.121094 566.316406 2845.257812 599.453125 2845.257812 C 632.59375 2845.257812 659.453125 2872.121094 659.453125 2905.257812 Z M 659.453125 2905.257812 "/>
<path fill-rule="nonzero" fill="rgb(79.6%, 23.5%, 20%)" fill-opacity="1" d="M 458.03125 2952.0625 C 458.03125 2985.199219 431.167969 3012.0625 398.03125 3012.0625 C 364.894531 3012.0625 338.03125 2985.199219 338.03125 2952.0625 C 338.03125 2918.921875 364.894531 2892.0625 398.03125 2892.0625 C 431.167969 2892.0625 458.03125 2918.921875 458.03125 2952.0625 Z M 458.03125 2952.0625 "/>
<path fill-rule="nonzero" fill="rgb(79.6%, 23.5%, 20%)" fill-opacity="1" d="M 1303.84375 3000.398438 C 1303.84375 3033.535156 1276.980469 3060.398438 1243.84375 3060.398438 C 1210.707031 3060.398438 1183.84375 3033.535156 1183.84375 3000.398438 C 1183.84375 2967.257812 1210.707031 2940.398438 1243.84375 2940.398438 C 1276.980469 2940.398438 1303.84375 2967.257812 1303.84375 3000.398438 Z M 1303.84375 3000.398438 "/>
<path fill-rule="nonzero" fill="rgb(79.6%, 23.5%, 20%)" fill-opacity="1" d="M 1007.460938 3020.96875 C 1007.460938 3054.105469 980.597656 3080.96875 947.460938 3080.96875 C 914.324219 3080.96875 887.460938 3054.105469 887.460938 3020.96875 C 887.460938 2987.832031 914.324219 2960.96875 947.460938 2960.96875 C 980.597656 2960.96875 1007.460938 2987.832031 1007.460938 3020.96875 Z M 1007.460938 3020.96875 "/>
<path fill-rule="nonzero" fill="rgb(79.6%, 23.5%, 20%)" fill-opacity="1" d="M 1471.097656 2998.808594 C 1471.097656 3031.945312 1444.234375 3058.808594 1411.097656 3058.808594 C 1377.960938 3058.808594 1351.097656 3031.945312 1351.097656 2998.808594 C 1351.097656 2965.671875 1377.960938 2938.808594 1411.097656 2938.808594 C 1444.234375 2938.808594 1471.097656 2965.671875 1471.097656 2998.808594 Z M 1471.097656 2998.808594 "/>
<path fill-rule="nonzero" fill="rgb(79.6%, 23.5%, 20%)" fill-opacity="1" d="M 572.191406 3059.238281 C 572.191406 3092.375 545.328125 3119.238281 512.191406 3119.238281 C 479.054688 3119.238281 452.191406 3092.375 452.191406 3059.238281 C 452.191406 3026.101562 479.054688 2999.238281 512.191406 2999.238281 C 545.328125 2999.238281 572.191406 3026.101562 572.191406 3059.238281 Z M 572.191406 3059.238281 "/>
<path fill-rule="nonzero" fill="rgb(79.6%, 23.5%, 20%)" fill-opacity="1" d="M 773.535156 3070.234375 C 773.535156 3103.371094 746.671875 3130.234375 713.535156 3130.234375 C 680.398438 3130.234375 653.535156 3103.371094 653.535156 3070.234375 C 653.535156 3037.097656 680.398438 3010.234375 713.535156 3010.234375 C 746.671875 3010.234375 773.535156 3037.097656 773.535156 3070.234375 Z M 773.535156 3070.234375 "/>
<path fill-rule="nonzero" fill="rgb(79.6%, 23.5%, 20%)" fill-opacity="1" d="M 1160.058594 3106.179688 C 1160.058594 3139.316406 1133.195312 3166.179688 1100.058594 3166.179688 C 1066.917969 3166.179688 1040.058594 3139.316406 1040.058594 3106.179688 C 1040.058594 3073.042969 1066.917969 3046.179688 1100.058594 3046.179688 C 1133.195312 3046.179688 1160.058594 3073.042969 1160.058594 3106.179688 Z M 1160.058594 3106.179688 "/>
<path fill-rule="nonzero" fill="rgb(79.6%, 23.5%, 20%)" fill-opacity="1" d="M 1330.910156 3142.144531 C 1330.910156 3175.28125 1304.046875 3202.144531 1270.910156 3202.144531 C 1237.769531 3202.144531 1210.910156 3175.28125 1210.910156 3142.144531 C 1210.910156 3109.007812 1237.769531 3082.144531 1270.910156 3082.144531 C 1304.046875 3082.144531 1330.910156 3109.007812 1330.910156 3142.144531 Z M 1330.910156 3142.144531 "/>
<path fill-rule="nonzero" fill="rgb(79.6%, 23.5%, 20%)" fill-opacity="1" d="M 913.914062 3161.140625 C 913.914062 3194.277344 887.054688 3221.140625 853.914062 3221.140625 C 820.777344 3221.140625 793.914062 3194.277344 793.914062 3161.140625 C 793.914062 3128.003906 820.777344 3101.140625 853.914062 3101.140625 C 887.054688 3101.140625 913.914062 3128.003906 913.914062 3161.140625 Z M 913.914062 3161.140625 "/>
<path fill-rule="nonzero" fill="rgb(79.6%, 23.5%, 20%)" fill-opacity="1" d="M 697.058594 3198.351562 C 697.058594 3231.488281 670.195312 3258.351562 637.058594 3258.351562 C 603.921875 3258.351562 577.058594 3231.488281 577.058594 3198.351562 C 577.058594 3165.214844 603.921875 3138.351562 637.058594 3138.351562 C 670.195312 3138.351562 697.058594 3165.214844 697.058594 3198.351562 Z M 697.058594 3198.351562 "/>
<path fill-rule="nonzero" fill="rgb(79.6%, 23.5%, 20%)" fill-opacity="1" d="M 1231.183594 3225.890625 C 1231.183594 3259.027344 1204.320312 3285.890625 1171.183594 3285.890625 C 1138.046875 3285.890625 1111.183594 3259.027344 1111.183594 3225.890625 C 1111.183594 3192.753906 1138.046875 3165.890625 1171.183594 3165.890625 C 1204.320312 3165.890625 1231.183594 3192.753906 1231.183594 3225.890625 Z M 1231.183594 3225.890625 "/>
<path fill-rule="nonzero" fill="rgb(79.6%, 23.5%, 20%)" fill-opacity="1" d="M 1052.113281 3238.078125 C 1052.113281 3271.214844 1025.25 3298.078125 992.113281 3298.078125 C 958.976562 3298.078125 932.113281 3271.214844 932.113281 3238.078125 C 932.113281 3204.941406 958.976562 3178.078125 992.113281 3178.078125 C 1025.25 3178.078125 1052.113281 3204.941406 1052.113281 3238.078125 Z M 1052.113281 3238.078125 "/>
<path fill-rule="nonzero" fill="rgb(79.6%, 23.5%, 20%)" fill-opacity="1" d="M 858.898438 3290.0625 C 858.898438 3323.199219 832.035156 3350.0625 798.898438 3350.0625 C 765.761719 3350.0625 738.898438 3323.199219 738.898438 3290.0625 C 738.898438 3256.925781 765.761719 3230.0625 798.898438 3230.0625 C 832.035156 3230.0625 858.898438 3256.925781 858.898438 3290.0625 Z M 858.898438 3290.0625 "/>
<path fill-rule="nonzero" fill="rgb(58.4%, 34.5%, 69.8%)" fill-opacity="1" d="M 3710 2632.050781 C 3710 2665.1875 3683.136719 2692.050781 3650 2692.050781 C 3616.863281 2692.050781 3590 2665.1875 3590 2632.050781 C 3590 2598.914062 3616.863281 2572.050781 3650 2572.050781 C 3683.136719 2572.050781 3710 2598.914062 3710 2632.050781 Z M 3710 2632.050781 "/>
<path fill-rule="nonzero" fill="rgb(58.4%, 34.5%, 69.8%)" fill-opacity="1" d="M 3684.445312 2826.164062 C 3684.445312 2859.300781 3657.582031 2886.164062 3624.445312 2886.164062 C 3591.308594 2886.164062 3564.445312 2859.300781 3564.445312 2826.164062 C 3564.445312 2793.027344 3591.308594 2766.164062 3624.445312 2766.164062 C 3657.582031 2766.164062 3684.445312 2793.027344 3684.445312 2826.164062 Z M 3684.445312 2826.164062 "/>
<path fill-rule="nonzero" fill="rgb(58.4%, 34.5%, 69.8%)" fill-opacity="1" d="M 3609.519531 3007.050781 C 3609.519531 3040.1875 3582.65625 3067.050781 3549.519531 3067.050781 C 3516.382812 3067.050781 3489.519531 3040.1875 3489.519531 3007.050781 C 3489.519531 2973.914062 3516.382812 2947.050781 3549.519531 2947.050781 C 3582.65625 2947.050781 3609.519531 2973.914062 3609.519531 3007.050781 Z M 3609.519531 3007.050781 "/>
<path fill-rule="nonzero" fill="rgb(58.4%, 34.5%, 69.8%)" fill-opacity="1" d="M 3490.332031 3162.382812 C 3490.332031 3195.519531 3463.46875 3222.382812 3430.332031 3222.382812 C 3397.191406 3222.382812 3370.332031 3195.519531 3370.332031 3162.382812 C 3370.332031 3129.242188 3397.191406 3102.382812 3430.332031 3102.382812 C 3463.46875 3102.382812 3490.332031 3129.242188 3490.332031 3162.382812 Z M 3490.332031 3162.382812 "/>
<path fill-rule="nonzero" fill="rgb(58.4%, 34.5%, 69.8%)" fill-opacity="1" d="M 3335 3281.570312 C 3335 3314.707031 3308.136719 3341.570312 3275 3341.570312 C 3241.863281 3341.570312 3215 3314.707031 3215 3281.570312 C 3215 3248.433594 3241.863281 3221.570312 3275 3221.570312 C 3308.136719 3221.570312 3335 3248.433594 3335 3281.570312 Z M 3335 3281.570312 "/>
<path fill-rule="nonzero" fill="rgb(58.4%, 34.5%, 69.8%)" fill-opacity="1" d="M 3154.113281 3356.496094 C 3154.113281 3389.632812 3127.25 3416.496094 3094.113281 3416.496094 C 3060.976562 3416.496094 3034.113281 3389.632812 3034.113281 3356.496094 C 3034.113281 3323.359375 3060.976562 3296.496094 3094.113281 3296.496094 C 3127.25 3296.496094 3154.113281 3323.359375 3154.113281 3356.496094 Z M 3154.113281 3356.496094 "/>
<path fill-rule="nonzero" fill="rgb(58.4%, 34.5%, 69.8%)" fill-opacity="1" d="M 2960 3382.050781 C 2960 3415.1875 2933.136719 3442.050781 2900 3442.050781 C 2866.863281 3442.050781 2840 3415.1875 2840 3382.050781 C 2840 3348.914062 2866.863281 3322.050781 2900 3322.050781 C 2933.136719 3322.050781 2960 3348.914062 2960 3382.050781 Z M 2960 3382.050781 "/>
<path fill-rule="nonzero" fill="rgb(58.4%, 34.5%, 69.8%)" fill-opacity="1" d="M 2765.886719 3356.496094 C 2765.886719 3389.632812 2739.023438 3416.496094 2705.886719 3416.496094 C 2672.75 3416.496094 2645.886719 3389.632812 2645.886719 3356.496094 C 2645.886719 3323.359375 2672.75 3296.496094 2705.886719 3296.496094 C 2739.023438 3296.496094 2765.886719 3323.359375 2765.886719 3356.496094 Z M 2765.886719 3356.496094 "/>
<path fill-rule="nonzero" fill="rgb(58.4%, 34.5%, 69.8%)" fill-opacity="1" d="M 2585 3281.570312 C 2585 3314.707031 2558.136719 3341.570312 2525 3341.570312 C 2491.863281 3341.570312 2465 3314.707031 2465 3281.570312 C 2465 3248.433594 2491.863281 3221.570312 2525 3221.570312 C 2558.136719 3221.570312 2585 3248.433594 2585 3281.570312 Z M 2585 3281.570312 "/>
<path fill-rule="nonzero" fill="rgb(58.4%, 34.5%, 69.8%)" fill-opacity="1" d="M 2429.667969 3162.382812 C 2429.667969 3195.519531 2402.808594 3222.382812 2369.667969 3222.382812 C 2336.53125 3222.382812 2309.667969 3195.519531 2309.667969 3162.382812 C 2309.667969 3129.242188 2336.53125 3102.382812 2369.667969 3102.382812 C 2402.808594 3102.382812 2429.667969 3129.242188 2429.667969 3162.382812 Z M 2429.667969 3162.382812 "/>
<path fill-rule="nonzero" fill="rgb(58.4%, 34.5%, 69.8%)" fill-opacity="1" d="M 2310.480469 3007.050781 C 2310.480469 3040.1875 2283.617188 3067.050781 2250.480469 3067.050781 C 2217.34375 3067.050781 2190.480469 3040.1875 2190.480469 3007.050781 C 2190.480469 2973.914062 2217.34375 2947.050781 2250.480469 2947.050781 C 2283.617188 2947.050781 2310.480469 2973.914062 2310.480469 3007.050781 Z M 2310.480469 3007.050781 "/>
<path fill-rule="nonzero" fill="rgb(58.4%, 34.5%, 69.8%)" fill-opacity="1" d="M 2235.554688 2826.164062 C 2235.554688 2859.300781 2208.691406 2886.164062 2175.554688 2886.164062 C 2142.417969 2886.164062 2115.554688 2859.300781 2115.554688 2826.164062 C 2115.554688 2793.027344 2142.417969 2766.164062 2175.554688 2766.164062 C 2208.691406 2766.164062 2235.554688 2793.027344 2235.554688 2826.164062 Z M 2235.554688 2826.164062 "/>
<path fill-rule="nonzero" fill="rgb(58.4%, 34.5%, 69.8%)" fill-opacity="1" d="M 2210 2632.050781 C 2210 2665.1875 2183.136719 2692.050781 2150 2692.050781 C 2116.863281 2692.050781 2090 2665.1875 2090 2632.050781 C 2090 2598.914062 2116.863281 2572.050781 2150 2572.050781 C 2183.136719 2572.050781 2210 2598.914062 2210 2632.050781 Z M 2210 2632.050781 "/>
<path fill-rule="nonzero" fill="rgb(58.4%, 34.5%, 69.8%)" fill-opacity="1" d="M 2235.554688 2437.9375 C 2235.554688 2471.074219 2208.691406 2497.9375 2175.554688 2497.9375 C 2142.417969 2497.9375 2115.554688 2471.074219 2115.554688 2437.9375 C 2115.554688 2404.800781 2142.417969 2377.9375 2175.554688 2377.9375 C 2208.691406 2377.9375 2235.554688 2404.800781 2235.554688 2437.9375 Z M 2235.554688 2437.9375 "/>
<path fill-rule="nonzero" fill="rgb(58.4%, 34.5%, 69.8%)" fill-opacity="1" d="M 2310.480469 2257.050781 C 2310.480469 2290.1875 2283.617188 2317.050781 2250.480469 2317.050781 C 2217.34375 2317.050781 2190.480469 2290.1875 2190.480469 2257.050781 C 2190.480469 2223.914062 2217.34375 2197.050781 2250.480469 2197.050781 C 2283.617188 2197.050781 2310.480469 2223.914062 2310.480469 2257.050781 Z M 2310.480469 2257.050781 "/>
<path fill-rule="nonzero" fill="rgb(58.4%, 34.5%, 69.8%)" fill-opacity="1" d="M 2429.667969 2101.722656 C 2429.667969 2134.859375 2402.808594 2161.722656 2369.667969 2161.722656 C 2336.53125 2161.722656 2309.667969 2134.859375 2309.667969 2101.722656 C 2309.667969 2068.582031 2336.53125 2041.722656 2369.667969 2041.722656 C 2402.808594 2041.722656 2429.667969 2068.582031 2429.667969 2101.722656 Z M 2429.667969 2101.722656 "/>
<path fill-rule="nonzero" fill="rgb(58.4%, 34.5%, 69.8%)" fill-opacity="1" d="M 2585 1982.53125 C 2585 2015.667969 2558.136719 2042.53125 2525 2042.53125 C 2491.863281 2042.53125 2465 2015.667969 2465 1982.53125 C 2465 1949.394531 2491.863281 1922.53125 2525 1922.53125 C 2558.136719 1922.53125 2585 1949.394531 2585 1982.53125 Z M 2585 1982.53125 "/>
<path fill-rule="nonzero" fill="rgb(58.4%, 34.5%, 69.8%)" fill-opacity="1" d="M 2765.886719 1907.605469 C 2765.886719 1940.742188 2739.023438 1967.605469 2705.886719 1967.605469 C 2672.75 1967.605469 2645.886719 1940.742188 2645.886719 1907.605469 C 2645.886719 1874.46875 2672.75 1847.605469 2705.886719 1847.605469 C 2739.023438 1847.605469 2765.886719 1874.46875 2765.886719 1907.605469 Z M 2765.886719 1907.605469 "/>
<path fill-rule="nonzero" fill="rgb(58.4%, 34.5%, 69.8%)" fill-opacity="1" d="M 2960 1882.050781 C 2960 1915.1875 2933.136719 1942.050781 2900 1942.050781 C 2866.863281 1942.050781 2840 1915.1875 2840 1882.050781 C 2840 1848.914062 2866.863281 1822.050781 2900 1822.050781 C 2933.136719 1822.050781 2960 1848.914062 2960 1882.050781 Z M 2960 1882.050781 "/>
<path fill-rule="nonzero" fill="rgb(58.4%, 34.5%, 69.8%)" fill-opacity="1" d="M 3154.113281 1907.605469 C 3154.113281 1940.742188 3127.25 1967.605469 3094.113281 1967.605469 C 3060.976562 1967.605469 3034.113281 1940.742188 3034.113281 1907.605469 C 3034.113281 1874.46875 3060.976562 1847.605469 3094.113281 1847.605469 C 3127.25 1847.605469 3154.113281 1874.46875 3154.113281 1907.605469 Z M 3154.113281 1907.605469 "/>
<path fill-rule="nonzero" fill="rgb(58.4%, 34.5%, 69.8%)" fill-opacity="1" d="M 3335 1982.53125 C 3335 2015.667969 3308.136719 2042.53125 3275 2042.53125 C 3241.863281 2042.53125 3215 2015.667969 3215 1982.53125 C 3215 1949.394531 3241.863281 1922.53125 3275 1922.53125 C 3308.136719 1922.53125 3335 1949.394531 3335 1982.53125 Z M 3335 1982.53125 "/>
<path fill-rule="nonzero" fill="rgb(58.4%, 34.5%, 69.8%)" fill-opacity="1" d="M 3490.332031 2101.722656 C 3490.332031 2134.859375 3463.46875 2161.722656 3430.332031 2161.722656 C 3397.191406 2161.722656 3370.332031 2134.859375 3370.332031 2101.722656 C 3370.332031 2068.582031 3397.191406 2041.722656 3430.332031 2041.722656 C 3463.46875 2041.722656 3490.332031 2068.582031 3490.332031 2101.722656 Z M 3490.332031 2101.722656 "/>
<path fill-rule="nonzero" fill="rgb(58.4%, 34.5%, 69.8%)" fill-opacity="1" d="M 3609.519531 2257.050781 C 3609.519531 2290.1875 3582.65625 2317.050781 3549.519531 2317.050781 C 3516.382812 2317.050781 3489.519531 2290.1875 3489.519531 2257.050781 C 3489.519531 2223.914062 3516.382812 2197.050781 3549.519531 2197.050781 C 3582.65625 2197.050781 3609.519531 2223.914062 3609.519531 2257.050781 Z M 3609.519531 2257.050781 "/>
<path fill-rule="nonzero" fill="rgb(58.4%, 34.5%, 69.8%)" fill-opacity="1" d="M 3684.445312 2437.9375 C 3684.445312 2471.074219 3657.582031 2497.9375 3624.445312 2497.9375 C 3591.308594 2497.9375 3564.445312 2471.074219 3564.445312 2437.9375 C 3564.445312 2404.800781 3591.308594 2377.9375 3624.445312 2377.9375 C 3657.582031 2377.9375 3684.445312 2404.800781 3684.445312 2437.9375 Z M 3684.445312 2437.9375 "/>
<path fill-rule="nonzero" fill="rgb(58.4%, 34.5%, 69.8%)" fill-opacity="1" d="M 2587.4375 2105 C 2587.4375 2138.136719 2560.574219 2165 2527.4375 2165 C 2494.300781 2165 2467.4375 2138.136719 2467.4375 2105 C 2467.4375 2071.863281 2494.300781 2045 2527.4375 2045 C 2560.574219 2045 2587.4375 2071.863281 2587.4375 2105 Z M 2587.4375 2105 "/>
<path fill-rule="nonzero" fill="rgb(58.4%, 34.5%, 69.8%)" fill-opacity="1" d="M 3167.027344 2067.046875 C 3167.027344 2100.1875 3140.164062 2127.046875 3107.027344 2127.046875 C 3073.890625 2127.046875 3047.027344 2100.1875 3047.027344 2067.046875 C 3047.027344 2033.910156 3073.890625 2007.046875 3107.027344 2007.046875 C 3140.164062 2007.046875 3167.027344 2033.910156 3167.027344 2067.046875 Z M 3167.027344 2067.046875 "/>
<path fill-rule="nonzero" fill="rgb(58.4%, 34.5%, 69.8%)" fill-opacity="1" d="M 2777.125 2062.070312 C 2777.125 2095.207031 2750.261719 2122.070312 2717.125 2122.070312 C 2683.984375 2122.070312 2657.125 2095.207031 2657.125 2062.070312 C 2657.125 2028.933594 2683.984375 2002.070312 2717.125 2002.070312 C 2750.261719 2002.070312 2777.125 2028.933594 2777.125 2062.070312 Z M 2777.125 2062.070312 "/>
<path fill-rule="nonzero" fill="rgb(58.4%, 34.5%, 69.8%)" fill-opacity="1" d="M 2961.9375 2047.007812 C 2961.9375 2080.148438 2935.074219 2107.007812 2901.9375 2107.007812 C 2868.800781 2107.007812 2841.9375 2080.148438 2841.9375 2047.007812 C 2841.9375 2013.871094 2868.800781 1987.007812 2901.9375 1987.007812 C 2935.074219 1987.007812 2961.9375 2013.871094 2961.9375 2047.007812 Z M 2961.9375 2047.007812 "/>
<path fill-rule="nonzero" fill="rgb(58.4%, 34.5%, 69.8%)" fill-opacity="1" d="M 3317.03125 2167.058594 C 3317.03125 2200.195312 3290.167969 2227.058594 3257.03125 2227.058594 C 3223.894531 2227.058594 3197.03125 2200.195312 3197.03125 2167.058594 C 3197.03125 2133.921875 3223.894531 2107.058594 3257.03125 2107.058594 C 3290.167969 2107.058594 3317.03125 2133.921875 3317.03125 2167.058594 Z M 3317.03125 2167.058594 "/>
<path fill-rule="nonzero" fill="rgb(58.4%, 34.5%, 69.8%)" fill-opacity="1" d="M 3066.5625 2202.574219 C 3066.5625 2235.710938 3039.699219 2262.574219 3006.5625 2262.574219 C 2973.425781 2262.574219 2946.5625 2235.710938 2946.5625 2202.574219 C 2946.5625 2169.4375 2973.425781 2142.574219 3006.5625 2142.574219 C 3039.699219 2142.574219 3066.5625 2169.4375 3066.5625 2202.574219 Z M 3066.5625 2202.574219 "/>
<path fill-rule="nonzero" fill="rgb(58.4%, 34.5%, 69.8%)" fill-opacity="1" d="M 2490.761719 2230.960938 C 2490.761719 2264.097656 2463.898438 2290.960938 2430.761719 2290.960938 C 2397.625 2290.960938 2370.761719 2264.097656 2370.761719 2230.960938 C 2370.761719 2197.824219 2397.625 2170.960938 2430.761719 2170.960938 C 2463.898438 2170.960938 2490.761719 2197.824219 2490.761719 2230.960938 Z M 2490.761719 2230.960938 "/>
<path fill-rule="nonzero" fill="rgb(58.4%, 34.5%, 69.8%)" fill-opacity="1" d="M 2667.460938 2219.160156 C 2667.460938 2252.300781 2640.597656 2279.160156 2607.460938 2279.160156 C 2574.324219 2279.160156 2547.460938 2252.300781 2547.460938 2219.160156 C 2547.460938 2186.023438 2574.324219 2159.160156 2607.460938 2159.160156 C 2640.597656 2159.160156 2667.460938 2186.023438 2667.460938 2219.160156 Z M 2667.460938 2219.160156 "/>
<path fill-rule="nonzero" fill="rgb(58.4%, 34.5%, 69.8%)" fill-opacity="1" d="M 2867.546875 2211.765625 C 2867.546875 2244.902344 2840.683594 2271.765625 2807.546875 2271.765625 C 2774.410156 2271.765625 2747.546875 2244.902344 2747.546875 2211.765625 C 2747.546875 2178.628906 2774.410156 2151.765625 2807.546875 2151.765625 C 2840.683594 2151.765625 2867.546875 2178.628906 2867.546875 2211.765625 Z M 2867.546875 2211.765625 "/>
<path fill-rule="nonzero" fill="rgb(58.4%, 34.5%, 69.8%)" fill-opacity="1" d="M 3436.046875 2293.191406 C 3436.046875 2326.328125 3409.183594 2353.191406 3376.046875 2353.191406 C 3342.910156 2353.191406 3316.046875 2326.328125 3316.046875 2293.191406 C 3316.046875 2260.050781 3342.910156 2233.191406 3376.046875 2233.191406 C 3409.183594 2233.191406 3436.046875 2260.050781 3436.046875 2293.191406 Z M 3436.046875 2293.191406 "/>
<path fill-rule="nonzero" fill="rgb(58.4%, 34.5%, 69.8%)" fill-opacity="1" d="M 2410.644531 2338.84375 C 2410.644531 2371.980469 2383.78125 2398.84375 2350.644531 2398.84375 C 2317.507812 2398.84375 2290.644531 2371.980469 2290.644531 2338.84375 C 2290.644531 2305.707031 2317.507812 2278.84375 2350.644531 2278.84375 C 2383.78125 2278.84375 2410.644531 2305.707031 2410.644531 2338.84375 Z M 2410.644531 2338.84375 "/>
<path fill-rule="nonzero" fill="rgb(58.4%, 34.5%, 69.8%)" fill-opacity="1" d="M 3212.773438 2306.066406 C 3212.773438 2339.203125 3185.914062 2366.066406 3152.773438 2366.066406 C 3119.636719 2366.066406 3092.773438 2339.203125 3092.773438 2306.066406 C 3092.773438 2272.929688 3119.636719 2246.066406 3152.773438 2246.066406 C 3185.914062 2246.066406 3212.773438 2272.929688 3212.773438 2306.066406 Z M 3212.773438 2306.066406 "/>
<path fill-rule="nonzero" fill="rgb(58.4%, 34.5%, 69.8%)" fill-opacity="1" d="M 2562.339844 2366.488281 C 2562.339844 2399.625 2535.476562 2426.488281 2502.339844 2426.488281 C 2469.203125 2426.488281 2442.339844 2399.625 2442.339844 2366.488281 C 2442.339844 2333.351562 2469.203125 2306.488281 2502.339844 2306.488281 C 2535.476562 2306.488281 2562.339844 2333.351562 2562.339844 2366.488281 Z M 2562.339844 2366.488281 "/>
<path fill-rule="nonzero" fill="rgb(58.4%, 34.5%, 69.8%)" fill-opacity="1" d="M 2976.144531 2357.820312 C 2976.144531 2390.960938 2949.28125 2417.820312 2916.144531 2417.820312 C 2883.007812 2417.820312 2856.144531 2390.960938 2856.144531 2357.820312 C 2856.144531 2324.683594 2883.007812 2297.820312 2916.144531 2297.820312 C 2949.28125 2297.820312 2976.144531 2324.683594 2976.144531 2357.820312 Z M 2976.144531 2357.820312 "/>
<path fill-rule="nonzero" fill="rgb(58.4%, 34.5%, 69.8%)" fill-opacity="1" d="M 2760.152344 2372.773438 C 2760.152344 2405.910156 2733.289062 2432.773438 2700.152344 2432.773438 C 2667.015625 2432.773438 2640.152344 2405.910156 2640.152344 2372.773438 C 2640.152344 2339.636719 2667.015625 2312.773438 2700.152344 2312.773438 C 2733.289062 2312.773438 2760.152344 2339.636719 2760.152344 2372.773438 Z M 2760.152344 2372.773438 "/>
<path fill-rule="nonzero" fill="rgb(58.4%, 34.5%, 69.8%)" fill-opacity="1" d="M 3542.96875 2410.191406 C 3542.96875 2443.328125 3516.105469 2470.191406 3482.96875 2470.191406 C 3449.832031 2470.191406 3422.96875 2443.328125 3422.96875 2410.191406 C 3422.96875 2377.054688 3449.832031 2350.191406 3482.96875 2350.191406 C 3516.105469 2350.191406 3542.96875 2377.054688 3542.96875 2410.191406 Z M 3542.96875 2410.191406 "/>
<path fill-rule="nonzero" fill="rgb(58.4%, 34.5%, 69.8%)" fill-opacity="1" d="M 3342.011719 2438.058594 C 3342.011719 2471.195312 3315.148438 2498.058594 3282.011719 2498.058594 C 3248.871094 2498.058594 3222.011719 2471.195312 3222.011719 2438.058594 C 3222.011719 2404.921875 3248.871094 2378.058594 3282.011719 2378.058594 C 3315.148438 2378.058594 3342.011719 2404.921875 3342.011719 2438.058594 Z M 3342.011719 2438.058594 "/>
<path fill-rule="nonzero" fill="rgb(58.4%, 34.5%, 69.8%)" fill-opacity="1" d="M 2427.390625 2469.914062 C 2427.390625 2503.050781 2400.527344 2529.914062 2367.390625 2529.914062 C 2334.253906 2529.914062 2307.390625 2503.050781 2307.390625 2469.914062 C 2307.390625 2436.777344 2334.253906 2409.914062 2367.390625 2409.914062 C 2400.527344 2409.914062 2427.390625 2436.777344 2427.390625 2469.914062 Z M 2427.390625 2469.914062 "/>
<path fill-rule="nonzero" fill="rgb(58.4%, 34.5%, 69.8%)" fill-opacity="1" d="M 3121.730469 2464.511719 C 3121.730469 2497.648438 3094.867188 2524.511719 3061.730469 2524.511719 C 3028.59375 2524.511719 3001.730469 2497.648438 3001.730469 2464.511719 C 3001.730469 2431.375 3028.59375 2404.511719 3061.730469 2404.511719 C 3094.867188 2404.511719 3121.730469 2431.375 3121.730469 2464.511719 Z M 3121.730469 2464.511719 "/>
<path fill-rule="nonzero" fill="rgb(58.4%, 34.5%, 69.8%)" fill-opacity="1" d="M 2648.320312 2521.195312 C 2648.320312 2554.332031 2621.457031 2581.195312 2588.320312 2581.195312 C 2555.179688 2581.195312 2528.320312 2554.332031 2528.320312 2521.195312 C 2528.320312 2488.058594 2555.179688 2461.195312 2588.320312 2461.195312 C 2621.457031 2461.195312 2648.320312 2488.058594 2648.320312 2521.195312 Z M 2648.320312 2521.195312 "/>
<path fill-rule="nonzero" fill="rgb(58.4%, 34.5%, 69.8%)" fill-opacity="1" d="M 2877.667969 2520.695312 C 2877.667969 2553.832031 2850.804688 2580.695312 2817.667969 2580.695312 C 2784.53125 2580.695312 2757.667969 2553.832031 2757.667969 2520.695312 C 2757.667969 2487.558594 2784.53125 2460.695312 2817.667969 2460.695312 C 2850.804688 2460.695312 2877.667969 2487.558594 2877.667969 2520.695312 Z M 2877.667969 2520.695312 "/>
<path fill-rule="nonzero" fill="rgb(58.4%, 34.5%, 69.8%)" fill-opacity="1" d="M 3482.730469 2543.152344 C 3482.730469 2576.289062 3455.867188 2603.152344 3422.730469 2603.152344 C 3389.59375 2603.152344 3362.730469 2576.289062 3362.730469 2543.152344 C 3362.730469 2510.015625 3389.59375 2483.152344 3422.730469 2483.152344 C 3455.867188 2483.152344 3482.730469 2510.015625 3482.730469 2543.152344 Z M 3482.730469 2543.152344 "/>
<path fill-rule="nonzero" fill="rgb(58.4%, 34.5%, 69.8%)" fill-opacity="1" d="M 3251.515625 2598.558594 C 3251.515625 2631.695312 3224.652344 2658.558594 3191.515625 2658.558594 C 3158.378906 2658.558594 3131.515625 2631.695312 3131.515625 2598.558594 C 3131.515625 2565.421875 3158.378906 2538.558594 3191.515625 2538.558594 C 3224.652344 2538.558594 3251.515625 2565.421875 3251.515625 2598.558594 Z M 3251.515625 2598.558594 "/>
<path fill-rule="nonzero" fill="rgb(58.4%, 34.5%, 69.8%)" fill-opacity="1" d="M 2345.742188 2625.878906 C 2345.742188 2659.015625 2318.878906 2685.878906 2285.742188 2685.878906 C 2252.605469 2685.878906 2225.742188 2659.015625 2225.742188 2625.878906 C 2225.742188 2592.742188 2252.605469 2565.878906 2285.742188 2565.878906 C 2318.878906 2565.878906 2345.742188 2592.742188 2345.742188 2625.878906 Z M 2345.742188 2625.878906 "/>
<path fill-rule="nonzero" fill="rgb(58.4%, 34.5%, 69.8%)" fill-opacity="1" d="M 3028.6875 2625.738281 C 3028.6875 2658.875 3001.824219 2685.738281 2968.6875 2685.738281 C 2935.550781 2685.738281 2908.6875 2658.875 2908.6875 2625.738281 C 2908.6875 2592.601562 2935.550781 2565.738281 2968.6875 2565.738281 C 3001.824219 2565.738281 3028.6875 2592.601562 3028.6875 2625.738281 Z M 3028.6875 2625.738281 "/>
<path fill-rule="nonzero" fill="rgb(58.4%, 34.5%, 69.8%)" fill-opacity="1" d="M 2512.5625 2622.050781 C 2512.5625 2655.1875 2485.699219 2682.050781 2452.5625 2682.050781 C 2419.421875 2682.050781 2392.5625 2655.1875 2392.5625 2622.050781 C 2392.5625 2588.910156 2419.421875 2562.050781 2452.5625 2562.050781 C 2485.699219 2562.050781 2512.5625 2588.910156 2512.5625 2622.050781 Z M 2512.5625 2622.050781 "/>
<path fill-rule="nonzero" fill="rgb(58.4%, 34.5%, 69.8%)" fill-opacity="1" d="M 2760.460938 2667.277344 C 2760.460938 2700.414062 2733.597656 2727.277344 2700.460938 2727.277344 C 2667.324219 2727.277344 2640.460938 2700.414062 2640.460938 2667.277344 C 2640.460938 2634.140625 2667.324219 2607.277344 2700.460938 2607.277344 C 2733.597656 2607.277344 2760.460938 2634.140625 2760.460938 2667.277344 Z M 2760.460938 2667.277344 "/>
<path fill-rule="nonzero" fill="rgb(58.4%, 34.5%, 69.8%)" fill-opacity="1" d="M 3391.964844 2701.773438 C 3391.964844 2734.914062 3365.101562 2761.773438 3331.964844 2761.773438 C 3298.828125 2761.773438 3271.964844 2734.914062 3271.964844 2701.773438 C 3271.964844 2668.636719 3298.828125 2641.773438 3331.964844 2641.773438 C 3365.101562 2641.773438 3391.964844 2668.636719 3391.964844 2701.773438 Z M 3391.964844 2701.773438 "/>
<path fill-rule="nonzero" fill="rgb(58.4%, 34.5%, 69.8%)" fill-opacity="1" d="M 3572.898438 2705.125 C 3572.898438 2738.261719 3546.039062 2765.125 3512.898438 2765.125 C 3479.761719 2765.125 3452.898438 2738.261719 3452.898438 2705.125 C 3452.898438 2671.988281 3479.761719 2645.125 3512.898438 2645.125 C 3546.039062 2645.125 3572.898438 2671.988281 3572.898438 2705.125 Z M 3572.898438 2705.125 "/>
<path fill-rule="nonzero" fill="rgb(58.4%, 34.5%, 69.8%)" fill-opacity="1" d="M 3156.527344 2758.113281 C 3156.527344 2791.25 3129.664062 2818.113281 3096.527344 2818.113281 C 3063.390625 2818.113281 3036.527344 2791.25 3036.527344 2758.113281 C 3036.527344 2724.976562 3063.390625 2698.113281 3096.527344 2698.113281 C 3129.664062 2698.113281 3156.527344 2724.976562 3156.527344 2758.113281 Z M 3156.527344 2758.113281 "/>
<path fill-rule="nonzero" fill="rgb(58.4%, 34.5%, 69.8%)" fill-opacity="1" d="M 2609.777344 2776.503906 C 2609.777344 2809.640625 2582.914062 2836.503906 2549.777344 2836.503906 C 2516.640625 2836.503906 2489.777344 2809.640625 2489.777344 2776.503906 C 2489.777344 2743.367188 2516.640625 2716.503906 2549.777344 2716.503906 C 2582.914062 2716.503906 2609.777344 2743.367188 2609.777344 2776.503906 Z M 2609.777344 2776.503906 "/>
<path fill-rule="nonzero" fill="rgb(58.4%, 34.5%, 69.8%)" fill-opacity="1" d="M 2916.691406 2774.683594 C 2916.691406 2807.820312 2889.828125 2834.683594 2856.691406 2834.683594 C 2823.554688 2834.683594 2796.691406 2807.820312 2796.691406 2774.683594 C 2796.691406 2741.546875 2823.554688 2714.683594 2856.691406 2714.683594 C 2889.828125 2714.683594 2916.691406 2741.546875 2916.691406 2774.683594 Z M 2916.691406 2774.683594 "/>
<path fill-rule="nonzero" fill="rgb(58.4%, 34.5%, 69.8%)" fill-opacity="1" d="M 2424.28125 2784.636719 C 2424.28125 2817.773438 2397.417969 2844.636719 2364.28125 2844.636719 C 2331.144531 2844.636719 2304.28125 2817.773438 2304.28125 2784.636719 C 2304.28125 2751.5 2331.144531 2724.636719 2364.28125 2724.636719 C 2397.417969 2724.636719 2424.28125 2751.5 2424.28125 2784.636719 Z M 2424.28125 2784.636719 "/>
<path fill-rule="nonzero" fill="rgb(58.4%, 34.5%, 69.8%)" fill-opacity="1" d="M 3497.4375 2871.703125 C 3497.4375 2904.839844 3470.574219 2931.703125 3437.4375 2931.703125 C 3404.300781 2931.703125 3377.4375 2904.839844 3377.4375 2871.703125 C 3377.4375 2838.566406 3404.300781 2811.703125 3437.4375 2811.703125 C 3470.574219 2811.703125 3497.4375 2838.566406 3497.4375 2871.703125 Z M 3497.4375 2871.703125 "/>
<path fill-rule="nonzero" fill="rgb(58.4%, 34.5%, 69.8%)" fill-opacity="1" d="M 3297.71875 2861.886719 C 3297.71875 2895.023438 3270.855469 2921.886719 3237.71875 2921.886719 C 3204.582031 2921.886719 3177.71875 2895.023438 3177.71875 2861.886719 C 3177.71875 2828.75 3204.582031 2801.886719 3237.71875 2801.886719 C 3270.855469 2801.886719 3297.71875 2828.75 3297.71875 2861.886719 Z M 3297.71875 2861.886719 "/>
<path fill-rule="nonzero" fill="rgb(58.4%, 34.5%, 69.8%)" fill-opacity="1" d="M 2759.859375 2886.296875 C 2759.859375 2919.433594 2732.996094 2946.296875 2699.859375 2946.296875 C 2666.722656 2946.296875 2639.859375 2919.433594 2639.859375 2886.296875 C 2639.859375 2853.160156 2666.722656 2826.296875 2699.859375 2826.296875 C 2732.996094 2826.296875 2759.859375 2853.160156 2759.859375 2886.296875 Z M 2759.859375 2886.296875 "/>
<path fill-rule="nonzero" fill="rgb(58.4%, 34.5%, 69.8%)" fill-opacity="1" d="M 3046.117188 2907.566406 C 3046.117188 2940.703125 3019.253906 2967.566406 2986.117188 2967.566406 C 2952.980469 2967.566406 2926.117188 2940.703125 2926.117188 2907.566406 C 2926.117188 2874.429688 2952.980469 2847.566406 2986.117188 2847.566406 C 3019.253906 2847.566406 3046.117188 2874.429688 3046.117188 2907.566406 Z M 3046.117188 2907.566406 "/>
<path fill-rule="nonzero" fill="rgb(58.4%, 34.5%, 69.8%)" fill-opacity="1" d="M 2540.707031 2929.652344 C 2540.707031 2962.789062 2513.84375 2989.652344 2480.707031 2989.652344 C 2447.570312 2989.652344 2420.707031 2962.789062 2420.707031 2929.652344 C 2420.707031 2896.511719 2447.570312 2869.652344 2480.707031 2869.652344 C 2513.84375 2869.652344 2540.707031 2896.511719 2540.707031 2929.652344 Z M 2540.707031 2929.652344 "/>
<path fill-rule="nonzero" fill="rgb(58.4%, 34.5%, 69.8%)" fill-opacity="1" d="M 2372.023438 2906.644531 C 2372.023438 2939.78125 2345.160156 2966.644531 2312.023438 2966.644531 C 2278.886719 2966.644531 2252.023438 2939.78125 2252.023438 2906.644531 C 2252.023438 2873.507812 2278.886719 2846.644531 2312.023438 2846.644531 C 2345.160156 2846.644531 2372.023438 2873.507812 2372.023438 2906.644531 Z M 2372.023438 2906.644531 "/>
<path fill-rule="nonzero" fill="rgb(58.4%, 34.5%, 69.8%)" fill-opacity="1" d="M 3191.605469 3011.085938 C 3191.605469 3044.222656 3164.742188 3071.085938 3131.605469 3071.085938 C 3098.46875 3071.085938 3071.605469 3044.222656 3071.605469 3011.085938 C 3071.605469 2977.949219 3098.46875 2951.085938 3131.605469 2951.085938 C 3164.742188 2951.085938 3191.605469 2977.949219 3191.605469 3011.085938 Z M 3191.605469 3011.085938 "/>
<path fill-rule="nonzero" fill="rgb(58.4%, 34.5%, 69.8%)" fill-opacity="1" d="M 2889.558594 3015.539062 C 2889.558594 3048.679688 2862.695312 3075.539062 2829.558594 3075.539062 C 2796.421875 3075.539062 2769.558594 3048.679688 2769.558594 3015.539062 C 2769.558594 2982.402344 2796.421875 2955.539062 2829.558594 2955.539062 C 2862.695312 2955.539062 2889.558594 2982.402344 2889.558594 3015.539062 Z M 2889.558594 3015.539062 "/>
<path fill-rule="nonzero" fill="rgb(58.4%, 34.5%, 69.8%)" fill-opacity="1" d="M 3399.125 3021.925781 C 3399.125 3055.0625 3372.261719 3081.925781 3339.125 3081.925781 C 3305.984375 3081.925781 3279.125 3055.0625 3279.125 3021.925781 C 3279.125 2988.789062 3305.984375 2961.925781 3339.125 2961.925781 C 3372.261719 2961.925781 3399.125 2988.789062 3399.125 3021.925781 Z M 3399.125 3021.925781 "/>
<path fill-rule="nonzero" fill="rgb(58.4%, 34.5%, 69.8%)" fill-opacity="1" d="M 2674.519531 3036.441406 C 2674.519531 3069.578125 2647.65625 3096.441406 2614.519531 3096.441406 C 2581.382812 3096.441406 2554.519531 3069.578125 2554.519531 3036.441406 C 2554.519531 3003.300781 2581.382812 2976.441406 2614.519531 2976.441406 C 2647.65625 2976.441406 2674.519531 3003.300781 2674.519531 3036.441406 Z M 2674.519531 3036.441406 "/>
<path fill-rule="nonzero" fill="rgb(58.4%, 34.5%, 69.8%)" fill-opacity="1" d="M 2514.054688 3062.820312 C 2514.054688 3095.957031 2487.195312 3122.820312 2454.054688 3122.820312 C 2420.917969 3122.820312 2394.054688 3095.957031 2394.054688 3062.820312 C 2394.054688 3029.683594 2420.917969 3002.820312 2454.054688 3002.820312 C 2487.195312 3002.820312 2514.054688 3029.683594 2514.054688 3062.820312 Z M 2514.054688 3062.820312 "/>
<path fill-rule="nonzero" fill="rgb(58.4%, 34.5%, 69.8%)" fill-opacity="1" d="M 3042.007812 3111.425781 C 3042.007812 3144.5625 3015.144531 3171.425781 2982.007812 3171.425781 C 2948.871094 3171.425781 2922.007812 3144.5625 2922.007812 3111.425781 C 2922.007812 3078.289062 2948.871094 3051.425781 2982.007812 3051.425781 C 3015.144531 3051.425781 3042.007812 3078.289062 3042.007812 3111.425781 Z M 3042.007812 3111.425781 "/>
<path fill-rule="nonzero" fill="rgb(58.4%, 34.5%, 69.8%)" fill-opacity="1" d="M 2795.097656 3171.78125 C 2795.097656 3204.917969 2768.234375 3231.78125 2735.097656 3231.78125 C 2701.960938 3231.78125 2675.097656 3204.917969 2675.097656 3171.78125 C 2675.097656 3138.644531 2701.960938 3111.78125 2735.097656 3111.78125 C 2768.234375 3111.78125 2795.097656 3138.644531 2795.097656 3171.78125 Z M 2795.097656 3171.78125 "/>
<path fill-rule="nonzero" fill="rgb(58.4%, 34.5%, 69.8%)" fill-opacity="1" d="M 3274.972656 3146.382812 C 3274.972656 3179.519531 3248.109375 3206.382812 3214.972656 3206.382812 C 3181.835938 3206.382812 3154.972656 3179.519531 3154.972656 3146.382812 C 3154.972656 3113.246094 3181.835938 3086.382812 3214.972656 3086.382812 C 3248.109375 3086.382812 3274.972656 3113.246094 3274.972656 3146.382812 Z M 3274.972656 3146.382812 "/>
<path fill-rule="nonzero" fill="rgb(58.4%, 34.5%, 69.8%)" fill-opacity="1" d="M 2607.042969 3159.179688 C 2607.042969 3192.320312 2580.179688 3219.179688 2547.042969 3219.179688 C 2513.902344 3219.179688 2487.042969 3192.320312 2487.042969 3159.179688 C 2487.042969 3126.042969 2513.902344 3099.179688 2547.042969 3099.179688 C 2580.179688 3099.179688 2607.042969 3126.042969 2607.042969 3159.179688 Z M 2607.042969 3159.179688 "/>
<path fill-rule="nonzero" fill="rgb(58.4%, 34.5%, 69.8%)" fill-opacity="1" d="M 2936.308594 3237.296875 C 2936.308594 3270.433594 2909.445312 3297.296875 2876.308594 3297.296875 C 2843.171875 3297.296875 2816.308594 3270.433594 2816.308594 3237.296875 C 2816.308594 3204.160156 2843.171875 3177.296875 2876.308594 3177.296875 C 2909.445312 3177.296875 2936.308594 3204.160156 2936.308594 3237.296875 Z M 2936.308594 3237.296875 "/>
<path fill-rule="nonzero" fill="rgb(58.4%, 34.5%, 69.8%)" fill-opacity="1" d="M 3145.816406 3219.042969 C 3145.816406 3252.179688 3118.953125 3279.042969 3085.816406 3279.042969 C 3052.679688 3279.042969 3025.816406 3252.179688 3025.816406 3219.042969 C 3025.816406 3185.90625 3052.679688 3159.042969 3085.816406 3159.042969 C 3118.953125 3159.042969 3145.816406 3185.90625 3145.816406 3219.042969 Z M 3145.816406 3219.042969 "/>
<path fill-rule="nonzero" fill="rgb(22%, 59.6%, 14.9%)" fill-opacity="1" d="M 2710 900 C 2710 933.136719 2683.136719 960 2650 960 C 2616.863281 960 2590 933.136719 2590 900 C 2590 866.863281 2616.863281 840 2650 840 C 2683.136719 840 2710 866.863281 2710 900 Z M 2710 900 "/>
<path fill-rule="nonzero" fill="rgb(22%, 59.6%, 14.9%)" fill-opacity="1" d="M 2684.445312 1094.113281 C 2684.445312 1127.25 2657.582031 1154.113281 2624.445312 1154.113281 C 2591.308594 1154.113281 2564.445312 1127.25 2564.445312 1094.113281 C 2564.445312 1060.976562 2591.308594 1034.113281 2624.445312 1034.113281 C 2657.582031 1034.113281 2684.445312 1060.976562 2684.445312 1094.113281 Z M 2684.445312 1094.113281 "/>
<path fill-rule="nonzero" fill="rgb(22%, 59.6%, 14.9%)" fill-opacity="1" d="M 2609.519531 1275 C 2609.519531 1308.136719 2582.65625 1335 2549.519531 1335 C 2516.382812 1335 2489.519531 1308.136719 2489.519531 1275 C 2489.519531 1241.863281 2516.382812 1215 2549.519531 1215 C 2582.65625 1215 2609.519531 1241.863281 2609.519531 1275 Z M 2609.519531 1275 "/>
<path fill-rule="nonzero" fill="rgb(22%, 59.6%, 14.9%)" fill-opacity="1" d="M 2490.332031 1430.332031 C 2490.332031 1463.46875 2463.46875 1490.332031 2430.332031 1490.332031 C 2397.191406 1490.332031 2370.332031 1463.46875 2370.332031 1430.332031 C 2370.332031 1397.191406 2397.191406 1370.332031 2430.332031 1370.332031 C 2463.46875 1370.332031 2490.332031 1397.191406 2490.332031 1430.332031 Z M 2490.332031 1430.332031 "/>
<path fill-rule="nonzero" fill="rgb(22%, 59.6%, 14.9%)" fill-opacity="1" d="M 2335 1549.519531 C 2335 1582.65625 2308.136719 1609.519531 2275 1609.519531 C 2241.863281 1609.519531 2215 1582.65625 2215 1549.519531 C 2215 1516.382812 2241.863281 1489.519531 2275 1489.519531 C 2308.136719 1489.519531 2335 1516.382812 2335 1549.519531 Z M 2335 1549.519531 "/>
<path fill-rule="nonzero" fill="rgb(22%, 59.6%, 14.9%)" fill-opacity="1" d="M 2154.113281 1624.445312 C 2154.113281 1657.582031 2127.25 1684.445312 2094.113281 1684.445312 C 2060.976562 1684.445312 2034.113281 1657.582031 2034.113281 1624.445312 C 2034.113281 1591.308594 2060.976562 1564.445312 2094.113281 1564.445312 C 2127.25 1564.445312 2154.113281 1591.308594 2154.113281 1624.445312 Z M 2154.113281 1624.445312 "/>
<path fill-rule="nonzero" fill="rgb(22%, 59.6%, 14.9%)" fill-opacity="1" d="M 1960 1650 C 1960 1683.136719 1933.136719 1710 1900 1710 C 1866.863281 1710 1840 1683.136719 1840 1650 C 1840 1616.863281 1866.863281 1590 1900 1590 C 1933.136719 1590 1960 1616.863281 1960 1650 Z M 1960 1650 "/>
<path fill-rule="nonzero" fill="rgb(22%, 59.6%, 14.9%)" fill-opacity="1" d="M 1765.886719 1624.445312 C 1765.886719 1657.582031 1739.023438 1684.445312 1705.886719 1684.445312 C 1672.75 1684.445312 1645.886719 1657.582031 1645.886719 1624.445312 C 1645.886719 1591.308594 1672.75 1564.445312 1705.886719 1564.445312 C 1739.023438 1564.445312 1765.886719 1591.308594 1765.886719 1624.445312 Z M 1765.886719 1624.445312 "/>
<path fill-rule="nonzero" fill="rgb(22%, 59.6%, 14.9%)" fill-opacity="1" d="M 1585 1549.519531 C 1585 1582.65625 1558.136719 1609.519531 1525 1609.519531 C 1491.863281 1609.519531 1465 1582.65625 1465 1549.519531 C 1465 1516.382812 1491.863281 1489.519531 1525 1489.519531 C 1558.136719 1489.519531 1585 1516.382812 1585 1549.519531 Z M 1585 1549.519531 "/>
<path fill-rule="nonzero" fill="rgb(22%, 59.6%, 14.9%)" fill-opacity="1" d="M 1429.667969 1430.332031 C 1429.667969 1463.46875 1402.808594 1490.332031 1369.667969 1490.332031 C 1336.53125 1490.332031 1309.667969 1463.46875 1309.667969 1430.332031 C 1309.667969 1397.191406 1336.53125 1370.332031 1369.667969 1370.332031 C 1402.808594 1370.332031 1429.667969 1397.191406 1429.667969 1430.332031 Z M 1429.667969 1430.332031 "/>
<path fill-rule="nonzero" fill="rgb(22%, 59.6%, 14.9%)" fill-opacity="1" d="M 1310.480469 1275 C 1310.480469 1308.136719 1283.617188 1335 1250.480469 1335 C 1217.34375 1335 1190.480469 1308.136719 1190.480469 1275 C 1190.480469 1241.863281 1217.34375 1215 1250.480469 1215 C 1283.617188 1215 1310.480469 1241.863281 1310.480469 1275 Z M 1310.480469 1275 "/>
<path fill-rule="nonzero" fill="rgb(22%, 59.6%, 14.9%)" fill-opacity="1" d="M 1235.554688 1094.113281 C 1235.554688 1127.25 1208.691406 1154.113281 1175.554688 1154.113281 C 1142.417969 1154.113281 1115.554688 1127.25 1115.554688 1094.113281 C 1115.554688 1060.976562 1142.417969 1034.113281 1175.554688 1034.113281 C 1208.691406 1034.113281 1235.554688 1060.976562 1235.554688 1094.113281 Z M 1235.554688 1094.113281 "/>
<path fill-rule="nonzero" fill="rgb(22%, 59.6%, 14.9%)" fill-opacity="1" d="M 1210 900 C 1210 933.136719 1183.136719 960 1150 960 C 1116.863281 960 1090 933.136719 1090 900 C 1090 866.863281 1116.863281 840 1150 840 C 1183.136719 840 1210 866.863281 1210 900 Z M 1210 900 "/>
<path fill-rule="nonzero" fill="rgb(22%, 59.6%, 14.9%)" fill-opacity="1" d="M 1235.554688 705.886719 C 1235.554688 739.023438 1208.691406 765.886719 1175.554688 765.886719 C 1142.417969 765.886719 1115.554688 739.023438 1115.554688 705.886719 C 1115.554688 672.75 1142.417969 645.886719 1175.554688 645.886719 C 1208.691406 645.886719 1235.554688 672.75 1235.554688 705.886719 Z M 1235.554688 705.886719 "/>
<path fill-rule="nonzero" fill="rgb(22%, 59.6%, 14.9%)" fill-opacity="1" d="M 1310.480469 525 C 1310.480469 558.136719 1283.617188 585 1250.480469 585 C 1217.34375 585 1190.480469 558.136719 1190.480469 525 C 1190.480469 491.863281 1217.34375 465 1250.480469 465 C 1283.617188 465 1310.480469 491.863281 1310.480469 525 Z M 1310.480469 525 "/>
<path fill-rule="nonzero" fill="rgb(22%, 59.6%, 14.9%)" fill-opacity="1" d="M 1429.667969 369.667969 C 1429.667969 402.808594 1402.808594 429.667969 1369.667969 429.667969 C 1336.53125 429.667969 1309.667969 402.808594 1309.667969 369.667969 C 1309.667969 336.53125 1336.53125 309.667969 1369.667969 309.667969 C 1402.808594 309.667969 1429.667969 336.53125 1429.667969 369.667969 Z M 1429.667969 369.667969 "/>
<path fill-rule="nonzero" fill="rgb(22%, 59.6%, 14.9%)" fill-opacity="1" d="M 1585 250.480469 C 1585 283.617188 1558.136719 310.480469 1525 310.480469 C 1491.863281 310.480469 1465 283.617188 1465 250.480469 C 1465 217.34375 1491.863281 190.480469 1525 190.480469 C 1558.136719 190.480469 1585 217.34375 1585 250.480469 Z M 1585 250.480469 "/>
<path fill-rule="nonzero" fill="rgb(22%, 59.6%, 14.9%)" fill-opacity="1" d="M 1765.886719 175.554688 C 1765.886719 208.691406 1739.023438 235.554688 1705.886719 235.554688 C 1672.75 235.554688 1645.886719 208.691406 1645.886719 175.554688 C 1645.886719 142.417969 1672.75 115.554688 1705.886719 115.554688 C 1739.023438 115.554688 1765.886719 142.417969 1765.886719 175.554688 Z M 1765.886719 175.554688 "/>
<path fill-rule="nonzero" fill="rgb(22%, 59.6%, 14.9%)" fill-opacity="1" d="M 1960 150 C 1960 183.136719 1933.136719 210 1900 210 C 1866.863281 210 1840 183.136719 1840 150 C 1840 116.863281 1866.863281 90 1900 90 C 1933.136719 90 1960 116.863281 1960 150 Z M 1960 150 "/>
<path fill-rule="nonzero" fill="rgb(22%, 59.6%, 14.9%)" fill-opacity="1" d="M 2154.113281 175.554688 C 2154.113281 208.691406 2127.25 235.554688 2094.113281 235.554688 C 2060.976562 235.554688 2034.113281 208.691406 2034.113281 175.554688 C 2034.113281 142.417969 2060.976562 115.554688 2094.113281 115.554688 C 2127.25 115.554688 2154.113281 142.417969 2154.113281 175.554688 Z M 2154.113281 175.554688 "/>
<path fill-rule="nonzero" fill="rgb(22%, 59.6%, 14.9%)" fill-opacity="1" d="M 2335 250.480469 C 2335 283.617188 2308.136719 310.480469 2275 310.480469 C 2241.863281 310.480469 2215 283.617188 2215 250.480469 C 2215 217.34375 2241.863281 190.480469 2275 190.480469 C 2308.136719 190.480469 2335 217.34375 2335 250.480469 Z M 2335 250.480469 "/>
<path fill-rule="nonzero" fill="rgb(22%, 59.6%, 14.9%)" fill-opacity="1" d="M 2490.332031 369.667969 C 2490.332031 402.808594 2463.46875 429.667969 2430.332031 429.667969 C 2397.191406 429.667969 2370.332031 402.808594 2370.332031 369.667969 C 2370.332031 336.53125 2397.191406 309.667969 2430.332031 309.667969 C 2463.46875 309.667969 2490.332031 336.53125 2490.332031 369.667969 Z M 2490.332031 369.667969 "/>
<path fill-rule="nonzero" fill="rgb(22%, 59.6%, 14.9%)" fill-opacity="1" d="M 2609.519531 525 C 2609.519531 558.136719 2582.65625 585 2549.519531 585 C 2516.382812 585 2489.519531 558.136719 2489.519531 525 C 2489.519531 491.863281 2516.382812 465 2549.519531 465 C 2582.65625 465 2609.519531 491.863281 2609.519531 525 Z M 2609.519531 525 "/>
<path fill-rule="nonzero" fill="rgb(22%, 59.6%, 14.9%)" fill-opacity="1" d="M 2684.445312 705.886719 C 2684.445312 739.023438 2657.582031 765.886719 2624.445312 765.886719 C 2591.308594 765.886719 2564.445312 739.023438 2564.445312 705.886719 C 2564.445312 672.75 2591.308594 645.886719 2624.445312 645.886719 C 2657.582031 645.886719 2684.445312 672.75 2684.445312 705.886719 Z M 2684.445312 705.886719 "/>
<path fill-rule="nonzero" fill="rgb(22%, 59.6%, 14.9%)" fill-opacity="1" d="M 1897.734375 293.40625 C 1897.734375 326.542969 1870.871094 353.40625 1837.734375 353.40625 C 1804.597656 353.40625 1777.734375 326.542969 1777.734375 293.40625 C 1777.734375 260.269531 1804.597656 233.40625 1837.734375 233.40625 C 1870.871094 233.40625 1897.734375 260.269531 1897.734375 293.40625 Z M 1897.734375 293.40625 "/>
<path fill-rule="nonzero" fill="rgb(22%, 59.6%, 14.9%)" fill-opacity="1" d="M 2161.335938 326.234375 C 2161.335938 359.375 2134.472656 386.234375 2101.335938 386.234375 C 2068.199219 386.234375 2041.335938 359.375 2041.335938 326.234375 C 2041.335938 293.097656 2068.199219 266.234375 2101.335938 266.234375 C 2134.472656 266.234375 2161.335938 293.097656 2161.335938 326.234375 Z M 2161.335938 326.234375 "/>
<path fill-rule="nonzero" fill="rgb(22%, 59.6%, 14.9%)" fill-opacity="1" d="M 1722.804688 356.003906 C 1722.804688 389.140625 1695.941406 416.003906 1662.804688 416.003906 C 1629.667969 416.003906 1602.804688 389.140625 1602.804688 356.003906 C 1602.804688 322.867188 1629.667969 296.003906 1662.804688 296.003906 C 1695.941406 296.003906 1722.804688 322.867188 1722.804688 356.003906 Z M 1722.804688 356.003906 "/>
<path fill-rule="nonzero" fill="rgb(22%, 59.6%, 14.9%)" fill-opacity="1" d="M 1554.9375 390.582031 C 1554.9375 423.71875 1528.074219 450.582031 1494.9375 450.582031 C 1461.800781 450.582031 1434.9375 423.71875 1434.9375 390.582031 C 1434.9375 357.445312 1461.800781 330.582031 1494.9375 330.582031 C 1528.074219 330.582031 1554.9375 357.445312 1554.9375 390.582031 Z M 1554.9375 390.582031 "/>
<path fill-rule="nonzero" fill="rgb(22%, 59.6%, 14.9%)" fill-opacity="1" d="M 2029.5625 406.011719 C 2029.5625 439.148438 2002.699219 466.011719 1969.5625 466.011719 C 1936.425781 466.011719 1909.5625 439.148438 1909.5625 406.011719 C 1909.5625 372.875 1936.425781 346.011719 1969.5625 346.011719 C 2002.699219 346.011719 2029.5625 372.875 2029.5625 406.011719 Z M 2029.5625 406.011719 "/>
<path fill-rule="nonzero" fill="rgb(22%, 59.6%, 14.9%)" fill-opacity="1" d="M 2261.4375 464.488281 C 2261.4375 497.625 2234.574219 524.488281 2201.4375 524.488281 C 2168.300781 524.488281 2141.4375 497.625 2141.4375 464.488281 C 2141.4375 431.351562 2168.300781 404.488281 2201.4375 404.488281 C 2234.574219 404.488281 2261.4375 431.351562 2261.4375 464.488281 Z M 2261.4375 464.488281 "/>
<path fill-rule="nonzero" fill="rgb(22%, 59.6%, 14.9%)" fill-opacity="1" d="M 1856.863281 472.480469 C 1856.863281 505.621094 1830 532.480469 1796.863281 532.480469 C 1763.726562 532.480469 1736.863281 505.621094 1736.863281 472.480469 C 1736.863281 439.34375 1763.726562 412.480469 1796.863281 412.480469 C 1830 412.480469 1856.863281 439.34375 1856.863281 472.480469 Z M 1856.863281 472.480469 "/>
<path fill-rule="nonzero" fill="rgb(22%, 59.6%, 14.9%)" fill-opacity="1" d="M 2460.691406 511.53125 C 2460.691406 544.671875 2433.828125 571.53125 2400.691406 571.53125 C 2367.554688 571.53125 2340.691406 544.671875 2340.691406 511.53125 C 2340.691406 478.394531 2367.554688 451.53125 2400.691406 451.53125 C 2433.828125 451.53125 2460.691406 478.394531 2460.691406 511.53125 Z M 2460.691406 511.53125 "/>
<path fill-rule="nonzero" fill="rgb(22%, 59.6%, 14.9%)" fill-opacity="1" d="M 1638.957031 504.160156 C 1638.957031 537.296875 1612.09375 564.160156 1578.957031 564.160156 C 1545.820312 564.160156 1518.957031 537.296875 1518.957031 504.160156 C 1518.957031 471.023438 1545.820312 444.160156 1578.957031 444.160156 C 1612.09375 444.160156 1638.957031 471.023438 1638.957031 504.160156 Z M 1638.957031 504.160156 "/>
<path fill-rule="nonzero" fill="rgb(22%, 59.6%, 14.9%)" fill-opacity="1" d="M 1422.914062 589.648438 C 1422.914062 622.785156 1396.050781 649.648438 1362.914062 649.648438 C 1329.777344 649.648438 1302.914062 622.785156 1302.914062 589.648438 C 1302.914062 556.511719 1329.777344 529.648438 1362.914062 529.648438 C 1396.050781 529.648438 1422.914062 556.511719 1422.914062 589.648438 Z M 1422.914062 589.648438 "/>
<path fill-rule="nonzero" fill="rgb(22%, 59.6%, 14.9%)" fill-opacity="1" d="M 2124.582031 556.210938 C 2124.582031 589.347656 2097.71875 616.210938 2064.582031 616.210938 C 2031.445312 616.210938 2004.582031 589.347656 2004.582031 556.210938 C 2004.582031 523.074219 2031.445312 496.210938 2064.582031 496.210938 C 2097.71875 496.210938 2124.582031 523.074219 2124.582031 556.210938 Z M 2124.582031 556.210938 "/>
<path fill-rule="nonzero" fill="rgb(22%, 59.6%, 14.9%)" fill-opacity="1" d="M 2357.96875 623.097656 C 2357.96875 656.238281 2331.105469 683.097656 2297.96875 683.097656 C 2264.832031 683.097656 2237.96875 656.238281 2237.96875 623.097656 C 2237.96875 589.960938 2264.832031 563.097656 2297.96875 563.097656 C 2331.105469 563.097656 2357.96875 589.960938 2357.96875 623.097656 Z M 2357.96875 623.097656 "/>
<path fill-rule="nonzero" fill="rgb(22%, 59.6%, 14.9%)" fill-opacity="1" d="M 1749.828125 628.460938 C 1749.828125 661.597656 1722.964844 688.460938 1689.828125 688.460938 C 1656.691406 688.460938 1629.828125 661.597656 1629.828125 628.460938 C 1629.828125 595.324219 1656.691406 568.460938 1689.828125 568.460938 C 1722.964844 568.460938 1749.828125 595.324219 1749.828125 628.460938 Z M 1749.828125 628.460938 "/>
<path fill-rule="nonzero" fill="rgb(22%, 59.6%, 14.9%)" fill-opacity="1" d="M 1959.417969 623.054688 C 1959.417969 656.191406 1932.554688 683.054688 1899.417969 683.054688 C 1866.28125 683.054688 1839.417969 656.191406 1839.417969 623.054688 C 1839.417969 589.917969 1866.28125 563.054688 1899.417969 563.054688 C 1932.554688 563.054688 1959.417969 589.917969 1959.417969 623.054688 Z M 1959.417969 623.054688 "/>
<path fill-rule="nonzero" fill="rgb(22%, 59.6%, 14.9%)" fill-opacity="1" d="M 2542.027344 649.292969 C 2542.027344 682.429688 2515.164062 709.292969 2482.027344 709.292969 C 2448.890625 709.292969 2422.027344 682.429688 2422.027344 649.292969 C 2422.027344 616.152344 2448.890625 589.292969 2482.027344 589.292969 C 2515.164062 589.292969 2542.027344 616.152344 2542.027344 649.292969 Z M 2542.027344 649.292969 "/>
<path fill-rule="nonzero" fill="rgb(22%, 59.6%, 14.9%)" fill-opacity="1" d="M 1535.535156 677.339844 C 1535.535156 710.476562 1508.671875 737.339844 1475.535156 737.339844 C 1442.398438 737.339844 1415.535156 710.476562 1415.535156 677.339844 C 1415.535156 644.203125 1442.398438 617.339844 1475.535156 617.339844 C 1508.671875 617.339844 1535.535156 644.203125 1535.535156 677.339844 Z M 1535.535156 677.339844 "/>
<path fill-rule="nonzero" fill="rgb(22%, 59.6%, 14.9%)" fill-opacity="1" d="M 2223.796875 718.789062 C 2223.796875 751.925781 2196.933594 778.789062 2163.796875 778.789062 C 2130.660156 778.789062 2103.796875 751.925781 2103.796875 718.789062 C 2103.796875 685.652344 2130.660156 658.789062 2163.796875 658.789062 C 2196.933594 658.789062 2223.796875 685.652344 2223.796875 718.789062 Z M 2223.796875 718.789062 "/>
<path fill-rule="nonzero" fill="rgb(22%, 59.6%, 14.9%)" fill-opacity="1" d="M 2460.574219 777.375 C 2460.574219 810.511719 2433.714844 837.375 2400.574219 837.375 C 2367.4375 837.375 2340.574219 810.511719 2340.574219 777.375 C 2340.574219 744.238281 2367.4375 717.375 2400.574219 717.375 C 2433.714844 717.375 2460.574219 744.238281 2460.574219 777.375 Z M 2460.574219 777.375 "/>
<path fill-rule="nonzero" fill="rgb(22%, 59.6%, 14.9%)" fill-opacity="1" d="M 1383.984375 790.191406 C 1383.984375 823.328125 1357.121094 850.191406 1323.984375 850.191406 C 1290.847656 850.191406 1263.984375 823.328125 1263.984375 790.191406 C 1263.984375 757.054688 1290.847656 730.191406 1323.984375 730.191406 C 1357.121094 730.191406 1383.984375 757.054688 1383.984375 790.191406 Z M 1383.984375 790.191406 "/>
<path fill-rule="nonzero" fill="rgb(22%, 59.6%, 14.9%)" fill-opacity="1" d="M 2054.960938 785.371094 C 2054.960938 818.507812 2028.097656 845.371094 1994.960938 845.371094 C 1961.824219 845.371094 1934.960938 818.507812 1934.960938 785.371094 C 1934.960938 752.234375 1961.824219 725.371094 1994.960938 725.371094 C 2028.097656 725.371094 2054.960938 752.234375 2054.960938 785.371094 Z M 2054.960938 785.371094 "/>
<path fill-rule="nonzero" fill="rgb(22%, 59.6%, 14.9%)" fill-opacity="1" d="M 1655.792969 794.574219 C 1655.792969 827.710938 1628.929688 854.574219 1595.792969 854.574219 C 1562.65625 854.574219 1535.792969 827.710938 1535.792969 794.574219 C 1535.792969 761.4375 1562.65625 734.574219 1595.792969 734.574219 C 1628.929688 734.574219 1655.792969 761.4375 1655.792969 794.574219 Z M 1655.792969 794.574219 "/>
<path fill-rule="nonzero" fill="rgb(22%, 59.6%, 14.9%)" fill-opacity="1" d="M 1854.410156 794.09375 C 1854.410156 827.230469 1827.546875 854.09375 1794.410156 854.09375 C 1761.273438 854.09375 1734.410156 827.230469 1734.410156 794.09375 C 1734.410156 760.957031 1761.273438 734.09375 1794.410156 734.09375 C 1827.546875 734.09375 1854.410156 760.957031 1854.410156 794.09375 Z M 1854.410156 794.09375 "/>
<path fill-rule="nonzero" fill="rgb(22%, 59.6%, 14.9%)" fill-opacity="1" d="M 2322.753906 876.398438 C 2322.753906 909.535156 2295.890625 936.398438 2262.753906 936.398438 C 2229.617188 936.398438 2202.753906 909.535156 2202.753906 876.398438 C 2202.753906 843.261719 2229.617188 816.398438 2262.753906 816.398438 C 2295.890625 816.398438 2322.753906 843.261719 2322.753906 876.398438 Z M 2322.753906 876.398438 "/>
<path fill-rule="nonzero" fill="rgb(22%, 59.6%, 14.9%)" fill-opacity="1" d="M 1514.121094 895.339844 C 1514.121094 928.476562 1487.257812 955.339844 1454.121094 955.339844 C 1420.980469 955.339844 1394.121094 928.476562 1394.121094 895.339844 C 1394.121094 862.203125 1420.980469 835.339844 1454.121094 835.339844 C 1487.257812 835.339844 1514.121094 862.203125 1514.121094 895.339844 Z M 1514.121094 895.339844 "/>
<path fill-rule="nonzero" fill="rgb(22%, 59.6%, 14.9%)" fill-opacity="1" d="M 2546.8125 924.179688 C 2546.8125 957.316406 2519.949219 984.179688 2486.8125 984.179688 C 2453.675781 984.179688 2426.8125 957.316406 2426.8125 924.179688 C 2426.8125 891.042969 2453.675781 864.179688 2486.8125 864.179688 C 2519.949219 864.179688 2546.8125 891.042969 2546.8125 924.179688 Z M 2546.8125 924.179688 "/>
<path fill-rule="nonzero" fill="rgb(22%, 59.6%, 14.9%)" fill-opacity="1" d="M 2152.351562 952.667969 C 2152.351562 985.804688 2125.488281 1012.667969 2092.351562 1012.667969 C 2059.214844 1012.667969 2032.351562 985.804688 2032.351562 952.667969 C 2032.351562 919.53125 2059.214844 892.667969 2092.351562 892.667969 C 2125.488281 892.667969 2152.351562 919.53125 2152.351562 952.667969 Z M 2152.351562 952.667969 "/>
<path fill-rule="nonzero" fill="rgb(22%, 59.6%, 14.9%)" fill-opacity="1" d="M 1748.773438 960.164062 C 1748.773438 993.300781 1721.910156 1020.164062 1688.773438 1020.164062 C 1655.636719 1020.164062 1628.773438 993.300781 1628.773438 960.164062 C 1628.773438 927.027344 1655.636719 900.164062 1688.773438 900.164062 C 1721.910156 900.164062 1748.773438 927.027344 1748.773438 960.164062 Z M 1748.773438 960.164062 "/>
<path fill-rule="nonzero" fill="rgb(22%, 59.6%, 14.9%)" fill-opacity="1" d="M 1950.355469 956.425781 C 1950.355469 989.5625 1923.492188 1016.425781 1890.355469 1016.425781 C 1857.21875 1016.425781 1830.355469 989.5625 1830.355469 956.425781 C 1830.355469 923.289062 1857.21875 896.425781 1890.355469 896.425781 C 1923.492188 896.425781 1950.355469 923.289062 1950.355469 956.425781 Z M 1950.355469 956.425781 "/>
<path fill-rule="nonzero" fill="rgb(22%, 59.6%, 14.9%)" fill-opacity="1" d="M 1375.433594 1000.777344 C 1375.433594 1033.914062 1348.570312 1060.777344 1315.433594 1060.777344 C 1282.296875 1060.777344 1255.433594 1033.914062 1255.433594 1000.777344 C 1255.433594 967.640625 1282.296875 940.777344 1315.433594 940.777344 C 1348.570312 940.777344 1375.433594 967.640625 1375.433594 1000.777344 Z M 1375.433594 1000.777344 "/>
<path fill-rule="nonzero" fill="rgb(22%, 59.6%, 14.9%)" fill-opacity="1" d="M 2411.972656 1024.6875 C 2411.972656 1057.824219 2385.109375 1084.6875 2351.972656 1084.6875 C 2318.835938 1084.6875 2291.972656 1057.824219 2291.972656 1024.6875 C 2291.972656 991.550781 2318.835938 964.6875 2351.972656 964.6875 C 2385.109375 964.6875 2411.972656 991.550781 2411.972656 1024.6875 Z M 2411.972656 1024.6875 "/>
<path fill-rule="nonzero" fill="rgb(22%, 59.6%, 14.9%)" fill-opacity="1" d="M 1606.875 1066.894531 C 1606.875 1100.035156 1580.011719 1126.894531 1546.875 1126.894531 C 1513.738281 1126.894531 1486.875 1100.035156 1486.875 1066.894531 C 1486.875 1033.757812 1513.738281 1006.894531 1546.875 1006.894531 C 1580.011719 1006.894531 1606.875 1033.757812 1606.875 1066.894531 Z M 1606.875 1066.894531 "/>
<path fill-rule="nonzero" fill="rgb(22%, 59.6%, 14.9%)" fill-opacity="1" d="M 2052.601562 1118.988281 C 2052.601562 1152.125 2025.738281 1178.988281 1992.601562 1178.988281 C 1959.464844 1178.988281 1932.601562 1152.125 1932.601562 1118.988281 C 1932.601562 1085.851562 1959.464844 1058.988281 1992.601562 1058.988281 C 2025.738281 1058.988281 2052.601562 1085.851562 2052.601562 1118.988281 Z M 2052.601562 1118.988281 "/>
<path fill-rule="nonzero" fill="rgb(22%, 59.6%, 14.9%)" fill-opacity="1" d="M 2251.542969 1113.167969 C 2251.542969 1146.304688 2224.679688 1173.167969 2191.542969 1173.167969 C 2158.40625 1173.167969 2131.542969 1146.304688 2131.542969 1113.167969 C 2131.542969 1080.03125 2158.40625 1053.167969 2191.542969 1053.167969 C 2224.679688 1053.167969 2251.542969 1080.03125 2251.542969 1113.167969 Z M 2251.542969 1113.167969 "/>
<path fill-rule="nonzero" fill="rgb(22%, 59.6%, 14.9%)" fill-opacity="1" d="M 1843.191406 1121.953125 C 1843.191406 1155.089844 1816.328125 1181.953125 1783.191406 1181.953125 C 1750.054688 1181.953125 1723.191406 1155.089844 1723.191406 1121.953125 C 1723.191406 1088.816406 1750.054688 1061.953125 1783.191406 1061.953125 C 1816.328125 1061.953125 1843.191406 1088.816406 1843.191406 1121.953125 Z M 1843.191406 1121.953125 "/>
<path fill-rule="nonzero" fill="rgb(22%, 59.6%, 14.9%)" fill-opacity="1" d="M 2535.621094 1134.300781 C 2535.621094 1167.441406 2508.757812 1194.300781 2475.621094 1194.300781 C 2442.484375 1194.300781 2415.621094 1167.441406 2415.621094 1134.300781 C 2415.621094 1101.164062 2442.484375 1074.300781 2475.621094 1074.300781 C 2508.757812 1074.300781 2535.621094 1101.164062 2535.621094 1134.300781 Z M 2535.621094 1134.300781 "/>
<path fill-rule="nonzero" fill="rgb(22%, 59.6%, 14.9%)" fill-opacity="1" d="M 1462.980469 1173.867188 C 1462.980469 1207.003906 1436.117188 1233.867188 1402.980469 1233.867188 C 1369.84375 1233.867188 1342.980469 1207.003906 1342.980469 1173.867188 C 1342.980469 1140.730469 1369.84375 1113.867188 1402.980469 1113.867188 C 1436.117188 1113.867188 1462.980469 1140.730469 1462.980469 1173.867188 Z M 1462.980469 1173.867188 "/>
<path fill-rule="nonzero" fill="rgb(22%, 59.6%, 14.9%)" fill-opacity="1" d="M 1704.414062 1222.707031 C 1704.414062 1255.84375 1677.550781 1282.707031 1644.414062 1282.707031 C 1611.277344 1282.707031 1584.414062 1255.84375 1584.414062 1222.707031 C 1584.414062 1189.570312 1611.277344 1162.707031 1644.414062 1162.707031 C 1677.550781 1162.707031 1704.414062 1189.570312 1704.414062 1222.707031 Z M 1704.414062 1222.707031 "/>
<path fill-rule="nonzero" fill="rgb(22%, 59.6%, 14.9%)" fill-opacity="1" d="M 2359.132812 1242.496094 C 2359.132812 1275.632812 2332.269531 1302.496094 2299.132812 1302.496094 C 2265.996094 1302.496094 2239.132812 1275.632812 2239.132812 1242.496094 C 2239.132812 1209.359375 2265.996094 1182.496094 2299.132812 1182.496094 C 2332.269531 1182.496094 2359.132812 1209.359375 2359.132812 1242.496094 Z M 2359.132812 1242.496094 "/>
<path fill-rule="nonzero" fill="rgb(22%, 59.6%, 14.9%)" fill-opacity="1" d="M 2158.296875 1277.511719 C 2158.296875 1310.652344 2131.433594 1337.511719 2098.296875 1337.511719 C 2065.160156 1337.511719 2038.296875 1310.652344 2038.296875 1277.511719 C 2038.296875 1244.375 2065.160156 1217.511719 2098.296875 1217.511719 C 2131.433594 1217.511719 2158.296875 1244.375 2158.296875 1277.511719 Z M 2158.296875 1277.511719 "/>
<path fill-rule="nonzero" fill="rgb(22%, 59.6%, 14.9%)" fill-opacity="1" d="M 1942.019531 1282.332031 C 1942.019531 1315.46875 1915.15625 1342.332031 1882.019531 1342.332031 C 1848.882812 1342.332031 1822.019531 1315.46875 1822.019531 1282.332031 C 1822.019531 1249.195312 1848.882812 1222.332031 1882.019531 1222.332031 C 1915.15625 1222.332031 1942.019531 1249.195312 1942.019531 1282.332031 Z M 1942.019531 1282.332031 "/>
<path fill-rule="nonzero" fill="rgb(22%, 59.6%, 14.9%)" fill-opacity="1" d="M 1560.214844 1318.5 C 1560.214844 1351.636719 1533.351562 1378.5 1500.214844 1378.5 C 1467.078125 1378.5 1440.214844 1351.636719 1440.214844 1318.5 C 1440.214844 1285.363281 1467.078125 1258.5 1500.214844 1258.5 C 1533.351562 1258.5 1560.214844 1285.363281 1560.214844 1318.5 Z M 1560.214844 1318.5 "/>
<path fill-rule="nonzero" fill="rgb(22%, 59.6%, 14.9%)" fill-opacity="1" d="M 1799.300781 1376.15625 C 1799.300781 1409.292969 1772.4375 1436.15625 1739.300781 1436.15625 C 1706.164062 1436.15625 1679.300781 1409.292969 1679.300781 1376.15625 C 1679.300781 1343.019531 1706.164062 1316.15625 1739.300781 1316.15625 C 1772.4375 1316.15625 1799.300781 1343.019531 1799.300781 1376.15625 Z M 1799.300781 1376.15625 "/>
<path fill-rule="nonzero" fill="rgb(22%, 59.6%, 14.9%)" fill-opacity="1" d="M 2274.472656 1383.570312 C 2274.472656 1416.707031 2247.609375 1443.570312 2214.472656 1443.570312 C 2181.335938 1443.570312 2154.472656 1416.707031 2154.472656 1383.570312 C 2154.472656 1350.433594 2181.335938 1323.570312 2214.472656 1323.570312 C 2247.609375 1323.570312 2274.472656 1350.433594 2274.472656 1383.570312 Z M 2274.472656 1383.570312 "/>
<path fill-rule="nonzero" fill="rgb(22%, 59.6%, 14.9%)" fill-opacity="1" d="M 2043.078125 1430.0625 C 2043.078125 1463.199219 2016.214844 1490.0625 1983.078125 1490.0625 C 1949.941406 1490.0625 1923.078125 1463.199219 1923.078125 1430.0625 C 1923.078125 1396.925781 1949.941406 1370.0625 1983.078125 1370.0625 C 2016.214844 1370.0625 2043.078125 1396.925781 2043.078125 1430.0625 Z M 2043.078125 1430.0625 "/>
<path fill-rule="nonzero" fill="rgb(22%, 59.6%, 14.9%)" fill-opacity="1" d="M 1671.195312 1443.078125 C 1671.195312 1476.214844 1644.332031 1503.078125 1611.195312 1503.078125 C 1578.058594 1503.078125 1551.195312 1476.214844 1551.195312 1443.078125 C 1551.195312 1409.941406 1578.058594 1383.078125 1611.195312 1383.078125 C 1644.332031 1383.078125 1671.195312 1409.941406 1671.195312 1443.078125 Z M 1671.195312 1443.078125 "/>
<path fill-rule="nonzero" fill="rgb(22%, 59.6%, 14.9%)" fill-opacity="1" d="M 1895.050781 1509.601562 C 1895.050781 1542.738281 1868.1875 1569.601562 1835.050781 1569.601562 C 1801.914062 1569.601562 1775.050781 1542.738281 1775.050781 1509.601562 C 1775.050781 1476.464844 1801.914062 1449.601562 1835.050781 1449.601562 C 1868.1875 1449.601562 1895.050781 1476.464844 1895.050781 1509.601562 Z M 1895.050781 1509.601562 "/>
<path fill-rule="nonzero" fill="rgb(22%, 59.6%, 14.9%)" fill-opacity="1" d="M 2174.011719 1487.351562 C 2174.011719 1520.488281 2147.148438 1547.351562 2114.011719 1547.351562 C 2080.875 1547.351562 2054.011719 1520.488281 2054.011719 1487.351562 C 2054.011719 1454.214844 2080.875 1427.351562 2114.011719 1427.351562 C 2147.148438 1427.351562 2174.011719 1454.214844 2174.011719 1487.351562 Z M 2174.011719 1487.351562 "/>
</svg>
